SplineFontDB: 3.2
FontName: ing15ms
FullName: ing15ms
FamilyName: ing15ms
Weight: Regular
Copyright: github.com/zawa8/font hscii4(4phinger maths) hscii5
Version: w0.000
ItalicAngle: 0
UnderlinePosition: -125
UnderlineWidth: 50
Ascent: 800
Descent: 200
InvalidEm: 0
sfntRevision: 0x00010000
LayerCount: 2
Layer: 0 1 "Back" 1
Layer: 1 1 "Fore" 0
XUID: [1021 426 849761687 13685114]
UniqueID: 259086422
StyleMap: 0x0040
FSType: 0
OS2Version: 4
OS2_WeightWidthSlopeOnly: 0
OS2_UseTypoMetrics: 1
CreationTime: 1633362791
ModificationTime: 1743372010
PfmFamily: 17
TTFWeight: 400
TTFWidth: 5
LineGap: 0
VLineGap: 0
Panose: 2 11 5 2 4 5 4 2 2 4
OS2TypoAscent: 1069
OS2TypoAOffset: 0
OS2TypoDescent: -293
OS2TypoDOffset: 0
OS2TypoLinegap: 0
OS2WinAscent: 1124
OS2WinAOffset: 0
OS2WinDescent: 395
OS2WinDOffset: 0
HheadAscent: 1069
HheadAOffset: 0
HheadDescent: -293
HheadDOffset: 0
OS2SubXSize: 650
OS2SubYSize: 600
OS2SubXOff: 0
OS2SubYOff: 75
OS2SupXSize: 650
OS2SupYSize: 600
OS2SupXOff: 0
OS2SupYOff: 350
OS2StrikeYSize: 50
OS2StrikeYPos: 322
OS2CapHeight: 714
OS2XHeight: 536
OS2Vendor: 'zawa'
OS2CodePages: 0000019f.00000000
OS2UnicodeRanges: e00002ff.4000201f.08000029.00100000
MarkAttachClasses: 3

StartChar: exclam
Encoding: 33 33 3
Width: 540
Flags: W
LayerCount: 2
Fore
SplineSet
263.5 122.599609375 m 4,0,1
 242.700195312 122.599609375 242.700195312 122.599609375 231 135.799804688 c 132,-1,2
 219.299804688 149 219.299804688 149 213.450195312 181.400390625 c 132,-1,3
 207.599609375 213.799804688 207.599609375 213.799804688 206.299804688 268.400390625 c 132,-1,4
 205 323 205 323 205 405.799804688 c 4,5,6
 205 522.200195312 205 522.200195312 206.299804688 587 c 132,-1,7
 207.599609375 651.799804688 207.599609375 651.799804688 215.400390625 683 c 132,-1,8
 223.200195312 714.200195312 223.200195312 714.200195312 239.450195312 720.799804688 c 132,-1,9
 255.700195312 727.400390625 255.700195312 727.400390625 285.599609375 727.400390625 c 4,10,11
 301.200195312 727.400390625 301.200195312 727.400390625 310.299804688 719 c 132,-1,12
 319.400390625 710.599609375 319.400390625 710.599609375 325.25 683 c 132,-1,13
 331.099609375 655.400390625 331.099609375 655.400390625 333.049804688 601.400390625 c 132,-1,14
 335 547.400390625 335 547.400390625 335 455 c 4,15,16
 335 287 335 287 322 204.799804688 c 132,-1,17
 309 122.599609375 309 122.599609375 263.5 122.599609375 c 4,0,1
246.599609375 699.799804688 m 4,18,19
 241.400390625 699.799804688 241.400390625 699.799804688 233.599609375 685.400390625 c 132,-1,20
 225.799804688 671 225.799804688 671 225.799804688 641 c 4,21,22
 225.799804688 625.400390625 225.799804688 625.400390625 227.75 610.400390625 c 132,-1,23
 229.700195312 595.400390625 229.700195312 595.400390625 238.799804688 595.400390625 c 4,24,25
 246.599609375 595.400390625 246.599609375 595.400390625 249.200195312 600.200195312 c 132,-1,26
 251.799804688 605 251.799804688 605 251.799804688 611.599609375 c 132,-1,27
 251.799804688 618.200195312 251.799804688 618.200195312 251.150390625 626.599609375 c 132,-1,28
 250.5 635 250.5 635 250.5 642.200195312 c 4,29,30
 251.799804688 662.599609375 251.799804688 662.599609375 254.400390625 681.200195312 c 132,-1,31
 257 699.799804688 257 699.799804688 246.599609375 699.799804688 c 4,18,19
264.799804688 -21.400390625 m 4,32,33
 240.099609375 -21.400390625 240.099609375 -21.400390625 225.150390625 -6.400390625 c 132,-1,34
 210.200195312 8.599609375 210.200195312 8.599609375 210.200195312 33.7998046875 c 4,35,36
 210.200195312 56.599609375 210.200195312 56.599609375 223.200195312 76.400390625 c 132,-1,37
 236.200195312 96.2001953125 236.200195312 96.2001953125 264.799804688 96.2001953125 c 4,38,39
 294.700195312 96.2001953125 294.700195312 96.2001953125 310.299804688 77.599609375 c 132,-1,40
 325.900390625 59 325.900390625 59 325.900390625 33.7998046875 c 4,41,42
 325.900390625 6.2001953125 325.900390625 6.2001953125 308.349609375 -7.599609375 c 132,-1,43
 290.799804688 -21.400390625 290.799804688 -21.400390625 264.799804688 -21.400390625 c 4,32,33
241.400390625 41 m 4,44,45
 242.700195312 54.2001953125 242.700195312 54.2001953125 247.900390625 65 c 132,-1,46
 253.099609375 75.7998046875 253.099609375 75.7998046875 246.599609375 75.7998046875 c 4,47,48
 237.5 75.7998046875 237.5 75.7998046875 231.650390625 58.400390625 c 132,-1,49
 225.799804688 41 225.799804688 41 225.799804688 27.7998046875 c 4,50,51
 225.799804688 15.7998046875 225.799804688 15.7998046875 232.299804688 15.7998046875 c 4,52,53
 237.5 15.7998046875 237.5 15.7998046875 238.799804688 24.7998046875 c 132,-1,54
 240.099609375 33.7998046875 240.099609375 33.7998046875 241.400390625 41 c 4,44,45
EndSplineSet
EndChar

StartChar: quotedbl
Encoding: 34 34 4
Width: 540
Flags: W
LayerCount: 2
Fore
SplineSet
226 714 m 1,0,-1
 206 456 l 1,1,-1
 151 456 l 1,2,-1
 131 714 l 1,3,-1
 226 714 l 1,0,-1
409 714 m 1,4,-1
 389 456 l 1,5,-1
 334 456 l 1,6,-1
 314 714 l 1,7,-1
 409 714 l 1,4,-1
EndSplineSet
EndChar

StartChar: numbersign
Encoding: 35 35 5
Width: 540
Flags: W
LayerCount: 2
Fore
SplineSet
72 0 m 1,0,-1
 110 199 l 1,1,-1
 2 199 l 1,2,-1
 2 266 l 1,3,-1
 123 266 l 1,4,-1
 155 419 l 5,5,-1
 28 419 l 5,6,-1
 28 485 l 5,7,-1
 167 485 l 5,8,-1
 207 687 l 5,9,-1
 279 687 l 5,10,-1
 239 485 l 5,11,-1
 363 485 l 5,12,-1
 403 687 l 5,13,-1
 472 687 l 5,14,-1
 432 485 l 5,15,-1
 538 485 l 5,16,-1
 538 419 l 5,17,-1
 419 419 l 5,18,-1
 388 266 l 1,19,-1
 517 266 l 1,20,-1
 517 199 l 1,21,-1
 375 199 l 1,22,-1
 334 0 l 1,23,-1
 263 0 l 1,24,-1
 304 199 l 1,25,-1
 181 199 l 1,26,-1
 142 0 l 1,27,-1
 72 0 l 1,0,-1
194 266 m 1,28,-1
 317 266 l 1,29,-1
 348 419 l 5,30,-1
 225 419 l 5,31,-1
 194 266 l 1,28,-1
EndSplineSet
EndChar

StartChar: dollar
Encoding: 36 36 6
Width: 540
Flags: W
LayerCount: 2
Fore
SplineSet
334.981445312 739.662109375 m 260,0,1
 361.59375 735.099609375 361.59375 735.099609375 369.717773438 714.4296875 c 132,-1,2
 377.860351562 693.711914062 377.860351562 693.711914062 374.80078125 676.018554688 c 6,3,-1
 260.609375 15.8212890625 l 6,4,5
 257.90625 0.05078125 257.90625 0.05078125 245.529296875 -10.0029296875 c 132,-1,6
 233.15234375 -20.0556640625 233.15234375 -20.0556640625 213.440429688 -16.6767578125 c 4,7,8
 205.555664062 -15.3251953125 205.555664062 -15.3251953125 193.108398438 -5.07421875 c 4,9,10
 178.859375 6.5 178.859375 6.5 181.731445312 23.2548828125 c 6,11,-1
 295.106445312 684.607421875 l 6,12,13
 298.823242188 706.291015625 298.823242188 706.291015625 303.596679688 725.2578125 c 132,-1,14
 308.370117188 744.223632812 308.370117188 744.223632812 334.981445312 739.662109375 c 260,0,1
236.194335938 33.1962890625 m 4,15,16
 234.334960938 22.3544921875 234.334960938 22.3544921875 230.604492188 15.384765625 c 132,-1,17
 226.873046875 8.4150390625 226.873046875 8.4150390625 224.633789062 4.232421875 c 132,-1,18
 222.395507812 0.05078125 222.395507812 0.05078125 222.057617188 -1.919921875 c 132,-1,19
 221.719726562 -3.8916015625 221.719726562 -3.8916015625 226.647460938 -4.736328125 c 4,20,21
 232.561523438 -5.75 232.561523438 -5.75 236.940429688 -0.9208984375 c 132,-1,22
 241.319335938 3.9091796875 241.319335938 3.9091796875 244.557617188 10.962890625 c 132,-1,23
 247.795898438 18.017578125 247.795898438 18.017578125 249.556640625 25.3251953125 c 132,-1,24
 251.31640625 32.6328125 251.31640625 32.6328125 252.161132812 37.560546875 c 4,25,26
 254.357421875 50.3740234375 254.357421875 50.3740234375 253.174804688 61.2294921875 c 132,-1,27
 251.9921875 72.0859375 251.9921875 72.0859375 246.078125 73.099609375 c 4,28,29
 243.12109375 73.6064453125 243.12109375 73.6064453125 241.868164062 69.255859375 c 132,-1,30
 240.615234375 64.9052734375 240.615234375 64.9052734375 239.432617188 58.005859375 c 132,-1,31
 238.25 51.1064453125 238.25 51.1064453125 237.559570312 44.1220703125 c 132,-1,32
 236.870117188 37.138671875 236.870117188 37.138671875 236.194335938 33.1962890625 c 4,15,16
249 81 m 0,33,34
 199 81 199 81 153.5 90 c 128,-1,35
 108 99 108 99 75 115 c 1,36,-1
 75 198 l 1,37,38
 110 182 110 182 152.5 168.5 c 128,-1,39
 195 155 195 155 254 155 c 0,40,41
 320 155 320 155 347.5 175.5 c 128,-1,42
 375 196 375 196 375 235 c 0,43,44
 375 256 375 256 365.5 269.5 c 128,-1,45
 356 283 356 283 329 297 c 128,-1,46
 302 311 302 311 250 333 c 0,47,48
 198 356 198 356 161 376 c 128,-1,49
 124 396 124 396 104 423.5 c 128,-1,50
 84 451 84 451 84 494 c 0,51,52
 84 542 84 542 108.5 573.5 c 128,-1,53
 133 605 133 605 179.5 621 c 128,-1,54
 226 637 226 637 290 637 c 0,55,56
 334 637 334 637 374 629 c 128,-1,57
 414 621 414 621 457 603 c 1,58,-1
 430 533 l 1,59,60
 390 550 390 550 356.5 556 c 128,-1,61
 323 562 323 562 290 562 c 0,62,63
 228 562 228 562 199.5 546 c 128,-1,64
 171 530 171 530 171 496 c 0,65,66
 171 474 171 474 183.5 459 c 128,-1,67
 196 444 196 444 224.5 430 c 128,-1,68
 253 416 253 416 300 396 c 0,69,70
 353 374 353 374 390 355 c 128,-1,71
 427 336 427 336 446 309.5 c 128,-1,72
 465 283 465 283 465 237 c 0,73,74
 465 186 465 186 440.5 151.5 c 128,-1,75
 416 117 416 117 368 99 c 128,-1,76
 320 81 320 81 249 81 c 0,33,34
EndSplineSet
EndChar

StartChar: percent
Encoding: 37 37 7
Width: 540
Flags: W
LayerCount: 2
Fore
SplineSet
53 0 m 1,0,-1
 409 714 l 1,1,-1
 486 714 l 1,2,-1
 130 0 l 1,3,-1
 53 0 l 1,0,-1
426 -9 m 0,4,5
 365 -9 365 -9 324.5 35.5 c 128,-1,6
 284 80 284 80 284 161 c 256,7,8
 284 242 284 242 322.5 286 c 128,-1,9
 361 330 361 330 428 330 c 0,10,11
 489 330 489 330 529.5 286 c 128,-1,12
 570 242 570 242 570 161 c 256,13,14
 570 80 570 80 531 35.5 c 128,-1,15
 492 -9 492 -9 426 -9 c 0,4,5
427 49 m 256,16,17
 461 49 461 49 478 76 c 128,-1,18
 495 103 495 103 495 161 c 0,19,20
 495 220 495 220 478 245.5 c 128,-1,21
 461 271 461 271 427 271 c 256,22,23
 393 271 393 271 375.5 245.5 c 128,-1,24
 358 220 358 220 358 161 c 0,25,26
 358 103 358 103 375.5 76 c 128,-1,27
 393 49 393 49 427 49 c 256,16,17
112 383 m 0,28,29
 51 383 51 383 10.5 427.5 c 128,-1,30
 -30 472 -30 472 -30 553 c 256,31,32
 -30 634 -30 634 8.5 678 c 128,-1,33
 47 722 47 722 114 722 c 0,34,35
 175 722 175 722 215.5 678 c 128,-1,36
 256 634 256 634 256 553 c 256,37,38
 256 472 256 472 217 427.5 c 128,-1,39
 178 383 178 383 112 383 c 0,28,29
113 441 m 256,40,41
 147 441 147 441 164 468 c 128,-1,42
 181 495 181 495 181 553 c 0,43,44
 181 612 181 612 164 637.5 c 128,-1,45
 147 663 147 663 113 663 c 256,46,47
 79 663 79 663 61.5 637.5 c 128,-1,48
 44 612 44 612 44 553 c 0,49,50
 44 495 44 495 61.5 468 c 128,-1,51
 79 441 79 441 113 441 c 256,40,41
EndSplineSet
EndChar

StartChar: ampersand
Encoding: 38 38 8
Width: 540
Flags: W
LayerCount: 2
Fore
SplineSet
184 -10 m 0,0,1
 125 -10 125 -10 83.5 14 c 128,-1,2
 42 38 42 38 20.5 80.5 c 128,-1,3
 -1 123 -1 123 -1 176 c 0,4,5
 -1 233 -1 233 21.5 275.5 c 128,-1,6
 44 318 44 318 80 351.5 c 128,-1,7
 116 385 116 385 157 414 c 0,8,9
 180 430 180 430 208 454 c 128,-1,10
 236 478 236 478 257 509.5 c 128,-1,11
 278 541 278 541 278 580 c 0,12,13
 278 616 278 616 259 636 c 128,-1,14
 240 656 240 656 209 656 c 256,15,16
 178 656 178 656 159.5 635 c 128,-1,17
 141 614 141 614 141 576 c 0,18,19
 141 550 141 550 149.5 522 c 128,-1,20
 158 494 158 494 172.5 468 c 128,-1,21
 187 442 187 442 204 420 c 2,22,-1
 541 0 l 1,23,-1
 434 0 l 1,24,-1
 152 364 l 2,25,26
 130 393 130 393 108.5 427 c 128,-1,27
 87 461 87 461 73 499.5 c 128,-1,28
 59 538 59 538 59 578 c 0,29,30
 59 644 59 644 99 684.5 c 128,-1,31
 139 725 139 725 209 725 c 256,32,33
 279 725 279 725 319 684.5 c 128,-1,34
 359 644 359 644 359 580 c 0,35,36
 359 530 359 530 336 490 c 128,-1,37
 313 450 313 450 278 418.5 c 128,-1,38
 243 387 243 387 208 359 c 0,39,40
 179 336 179 336 150.5 310.5 c 128,-1,41
 122 285 122 285 103.5 253.5 c 128,-1,42
 85 222 85 222 85 181 c 0,43,44
 85 133 85 133 114 100 c 128,-1,45
 143 67 143 67 194 67 c 0,46,47
 231 67 231 67 263.5 84.5 c 128,-1,48
 296 102 296 102 323 132 c 128,-1,49
 350 162 350 162 370.5 198.5 c 128,-1,50
 391 235 391 235 404.5 274 c 128,-1,51
 418 313 418 313 424 349 c 1,52,-1
 507 349 l 1,53,54
 497 292 497 292 477.5 239 c 128,-1,55
 458 186 458 186 429 140.5 c 128,-1,56
 400 95 400 95 363 61.5 c 128,-1,57
 326 28 326 28 281 9 c 128,-1,58
 236 -10 236 -10 184 -10 c 0,0,1
EndSplineSet
EndChar

StartChar: quotesingle
Encoding: 39 39 9
Width: 540
Flags: W
LayerCount: 2
Fore
SplineSet
317.5 714 m 1,0,-1
 297.5 456 l 1,1,-1
 242.5 456 l 1,2,-1
 222.5 714 l 1,3,-1
 317.5 714 l 1,0,-1
EndSplineSet
EndChar

StartChar: parenleft
Encoding: 40 40 10
Width: 540
Flags: W
LayerCount: 2
Fore
SplineSet
334.5 -72 m 0,0,1
 280.5 -51 280.5 -51 244 -13 c 128,-1,2
 207.5 25 207.5 25 185 71.5 c 128,-1,3
 162.5 118 162.5 118 152.5 169.5 c 128,-1,4
 142.5 221 142.5 221 142.5 269 c 0,5,6
 142.5 315 142.5 315 151 363 c 128,-1,7
 159.5 411 159.5 411 175 456 c 128,-1,8
 190.5 501 190.5 501 213.5 540.5 c 128,-1,9
 236.5 580 236.5 580 264.5 609 c 0,10,11
 291.5 636 291.5 636 316.5 654 c 128,-1,12
 341.5 672 341.5 672 361.5 672 c 0,13,14
 376.5 672 376.5 672 385.5 660 c 128,-1,15
 394.5 648 394.5 648 394.5 636 c 0,16,17
 394.5 628 394.5 628 382 617 c 128,-1,18
 369.5 606 369.5 606 346.5 582 c 0,19,20
 316.5 550 316.5 550 296.5 512 c 128,-1,21
 276.5 474 276.5 474 264.5 433.5 c 128,-1,22
 252.5 393 252.5 393 248 351.5 c 128,-1,23
 243.5 310 243.5 310 243.5 272 c 256,24,25
 243.5 234 243.5 234 249.5 192.5 c 128,-1,26
 255.5 151 255.5 151 269.5 113 c 128,-1,27
 283.5 75 283.5 75 306.5 43.5 c 128,-1,28
 329.5 12 329.5 12 363.5 -7 c 0,29,30
 380.5 -16 380.5 -16 389 -22.5 c 128,-1,31
 397.5 -29 397.5 -29 397.5 -43 c 0,32,33
 397.5 -56 397.5 -56 384.5 -66 c 128,-1,34
 371.5 -76 371.5 -76 354.5 -76 c 0,35,36
 343.5 -76 343.5 -76 334.5 -72 c 0,0,1
320.5 620 m 0,37,38
 325.5 625 325.5 625 331.5 630.5 c 128,-1,39
 337.5 636 337.5 636 330.5 636 c 0,40,41
 322.5 636 322.5 636 312 628.5 c 128,-1,42
 301.5 621 301.5 621 291.5 611 c 128,-1,43
 281.5 601 281.5 601 275 590.5 c 128,-1,44
 268.5 580 268.5 580 268.5 574 c 0,45,46
 268.5 569 268.5 569 272.5 569 c 0,47,48
 277.5 569 277.5 569 282 575.5 c 128,-1,49
 286.5 582 286.5 582 289.5 587 c 0,50,51
 293.5 594 293.5 594 300.5 601.5 c 128,-1,52
 307.5 609 307.5 609 320.5 620 c 0,37,38
262.5 547 m 0,53,54
 262.5 555 262.5 555 256.5 555 c 0,55,56
 244.5 555 244.5 555 244.5 547 c 0,57,58
 244.5 541 244.5 541 247.5 539.5 c 128,-1,59
 250.5 538 250.5 538 252.5 538 c 256,60,61
 254.5 538 254.5 538 258.5 539.5 c 128,-1,62
 262.5 541 262.5 541 262.5 547 c 0,53,54
EndSplineSet
EndChar

StartChar: parenright
Encoding: 41 41 11
Width: 540
Flags: W
LayerCount: 2
Fore
SplineSet
199 -93 m 0,0,1
 185 -93 185 -93 172.5 -84.5 c 128,-1,2
 160 -76 160 -76 160 -66 c 0,3,4
 160 -57 160 -57 170 -43 c 128,-1,5
 180 -29 180 -29 194.5 -8.5 c 128,-1,6
 209 12 209 12 226.5 41 c 128,-1,7
 244 70 244 70 258.5 108 c 128,-1,8
 273 146 273 146 283 195 c 128,-1,9
 293 244 293 244 293 305 c 0,10,11
 293 352 293 352 285.5 398.5 c 128,-1,12
 278 445 278 445 264 484 c 128,-1,13
 250 523 250 523 230.5 552 c 128,-1,14
 211 581 211 581 187 594 c 0,15,16
 175 601 175 601 161 610.5 c 128,-1,17
 147 620 147 620 147 638 c 0,18,19
 147 653 147 653 160 662.5 c 128,-1,20
 173 672 173 672 194 672 c 0,21,22
 231 672 231 672 267 646 c 128,-1,23
 303 620 303 620 331 572 c 128,-1,24
 359 524 359 524 376 455.5 c 128,-1,25
 393 387 393 387 393 302 c 0,26,27
 393 227 393 227 384.5 175 c 128,-1,28
 376 123 376 123 360.5 85 c 128,-1,29
 345 47 345 47 324 17 c 128,-1,30
 303 -13 303 -13 278 -44 c 0,31,32
 255 -73 255 -73 235.5 -83 c 128,-1,33
 216 -93 216 -93 199 -93 c 0,0,1
167 621 m 0,34,35
 171 621 171 621 174.5 628.5 c 128,-1,36
 178 636 178 636 178 644 c 0,37,38
 178 657 178 657 171 657 c 0,39,40
 167 657 167 657 163.5 649.5 c 128,-1,41
 160 642 160 642 160 634 c 0,42,43
 160 621 160 621 167 621 c 0,34,35
194 -60 m 256,44,45
 199 -50 199 -50 199.5 -40 c 128,-1,46
 200 -30 200 -30 196 -29 c 0,47,48
 194 -29 194 -29 190.5 -33 c 128,-1,49
 187 -37 187 -37 183.5 -43 c 128,-1,50
 180 -49 180 -49 177.5 -55 c 128,-1,51
 175 -61 175 -61 175 -64 c 0,52,53
 175 -72 175 -72 179 -73 c 0,54,55
 182 -74 182 -74 185.5 -72 c 128,-1,56
 189 -70 189 -70 194 -60 c 256,44,45
EndSplineSet
EndChar

StartChar: asterisk
Encoding: 42 42 12
Width: 540
Flags: W
LayerCount: 2
Fore
SplineSet
317.5 760 m 1,0,-1
 297.5 568 l 1,1,-1
 489.5 622 l 1,2,-1
 503.5 530 l 1,3,-1
 319.5 515 l 1,4,-1
 438.5 357 l 1,5,-1
 352.5 310 l 1,6,-1
 267.5 485 l 1,7,-1
 190.5 310 l 1,8,-1
 101.5 357 l 1,9,-1
 218.5 515 l 1,10,-1
 36.5 530 l 1,11,-1
 50.5 622 l 1,12,-1
 240.5 568 l 1,13,-1
 219.5 760 l 1,14,-1
 317.5 760 l 1,0,-1
EndSplineSet
EndChar

StartChar: plus
Encoding: 43 43 13
Width: 540
Flags: W
LayerCount: 2
Fore
SplineSet
309.599609375 391.5 m 5,0,-1
 528.5 391.5 l 5,1,-1
 528.5 313.400390625 l 5,2,-1
 309.599609375 313.400390625 l 5,3,-1
 309.599609375 86.7998046875 l 5,4,-1
 230.400390625 86.7998046875 l 5,5,-1
 230.400390625 313.400390625 l 5,6,-1
 11.5 313.400390625 l 5,7,-1
 11.5 391.5 l 5,8,-1
 230.400390625 391.5 l 5,9,-1
 230.400390625 619.200195312 l 5,10,-1
 309.599609375 619.200195312 l 5,11,-1
 309.599609375 391.5 l 5,0,-1
EndSplineSet
EndChar

StartChar: comma
Encoding: 44 44 14
Width: 540
Flags: W
LayerCount: 2
Fore
SplineSet
345.5 105 m 1,0,1
 336.5 70 336.5 70 322.5 29 c 128,-1,2
 308.5 -12 308.5 -12 292 -52.5 c 128,-1,3
 275.5 -93 275.5 -93 259.5 -129 c 1,4,-1
 194.5 -129 l 1,5,6
 204.5 -91 204.5 -91 214 -47.5 c 128,-1,7
 223.5 -4 223.5 -4 231.5 38.5 c 128,-1,8
 239.5 81 239.5 81 244.5 116 c 1,9,-1
 338.5 116 l 1,10,-1
 345.5 105 l 1,0,1
EndSplineSet
EndChar

StartChar: hyphen
Encoding: 45 45 15
Width: 540
Flags: W
LayerCount: 2
Fore
SplineSet
65.5 229 m 1,0,-1
 65.5 307 l 1,1,-1
 474.5 307 l 1,2,-1
 474.5 229 l 1,3,-1
 65.5 229 l 1,0,-1
EndSplineSet
EndChar

StartChar: period
Encoding: 46 46 16
Width: 540
Flags: W
LayerCount: 2
Fore
SplineSet
261.75 -62.25 m 4,0,1
 201.75 -62.25 201.75 -62.25 159 -20.25 c 132,-1,2
 116.25 21.75 116.25 21.75 116.25 87.75 c 4,3,4
 116.25 123.75 116.25 123.75 129 156 c 132,-1,5
 141.75 188.25 141.75 188.25 164.25 211.5 c 132,-1,6
 186.75 234.75 186.75 234.75 218.25 249 c 132,-1,7
 249.75 263.25 249.75 263.25 287.25 263.25 c 4,8,9
 317.25 263.25 317.25 263.25 342.75 250.5 c 132,-1,10
 368.25 237.75 368.25 237.75 386.25 215.25 c 132,-1,11
 404.25 192.75 404.25 192.75 414 164.25 c 132,-1,12
 423.75 135.75 423.75 135.75 423.75 104.25 c 4,13,14
 423.75 63.75 423.75 63.75 411 33 c 132,-1,15
 398.25 2.25 398.25 2.25 375.75 -18.75 c 132,-1,16
 353.25 -39.75 353.25 -39.75 324 -51 c 132,-1,17
 294.75 -62.25 294.75 -62.25 261.75 -62.25 c 4,0,1
206.25 197.25 m 4,18,19
 216.75 207.75 216.75 207.75 219 215.25 c 132,-1,20
 221.25 222.75 221.25 222.75 218.25 222.75 c 4,21,22
 206.25 222.75 206.25 222.75 192.75 211.5 c 132,-1,23
 179.25 200.25 179.25 200.25 168 184.5 c 132,-1,24
 156.75 168.75 156.75 168.75 149.25 150.75 c 132,-1,25
 141.75 132.75 141.75 132.75 141.75 117.75 c 4,26,27
 141.75 114.75 141.75 114.75 144 105.75 c 132,-1,28
 146.25 96.75 146.25 96.75 150.75 96.75 c 4,29,30
 156.75 96.75 156.75 96.75 165.75 129.75 c 4,31,32
 170.25 150.75 170.25 150.75 182.25 168 c 132,-1,33
 194.25 185.25 194.25 185.25 206.25 197.25 c 4,18,19
267.75 23.25 m 4,34,35
 285.75 23.25 285.75 23.25 310.5 44.25 c 132,-1,36
 335.25 65.25 335.25 65.25 335.25 104.25 c 4,37,38
 335.25 134.25 335.25 134.25 319.5 154.5 c 132,-1,39
 303.75 174.75 303.75 174.75 278.25 174.75 c 260,40,41
 252.75 174.75 252.75 174.75 231.75 154.5 c 132,-1,42
 210.75 134.25 210.75 134.25 210.75 98.25 c 260,43,44
 210.75 62.25 210.75 62.25 227.25 42.75 c 132,-1,45
 243.75 23.25 243.75 23.25 267.75 23.25 c 4,34,35
EndSplineSet
EndChar

StartChar: slash
Encoding: 47 47 17
Width: 540
Flags: W
LayerCount: 2
Fore
SplineSet
156.5 -77 m 0,0,1
 152.5 -77 152.5 -77 141 -75 c 128,-1,2
 129.5 -73 129.5 -73 117.5 -68.5 c 128,-1,3
 105.5 -64 105.5 -64 96.5 -57 c 128,-1,4
 87.5 -50 87.5 -50 87.5 -41 c 0,5,6
 87.5 -38 87.5 -38 98 -9.5 c 128,-1,7
 108.5 19 108.5 19 125.5 64 c 128,-1,8
 142.5 109 142.5 109 165 166 c 128,-1,9
 187.5 223 187.5 223 211.5 283 c 128,-1,10
 235.5 343 235.5 343 259.5 402 c 128,-1,11
 283.5 461 283.5 461 303.5 509.5 c 128,-1,12
 323.5 558 323.5 558 338.5 592 c 128,-1,13
 353.5 626 353.5 626 359.5 636 c 0,14,15
 366.5 647 366.5 647 378 656.5 c 128,-1,16
 389.5 666 389.5 666 403.5 666 c 0,17,18
 410.5 666 410.5 666 419 663.5 c 128,-1,19
 427.5 661 427.5 661 435 656.5 c 128,-1,20
 442.5 652 442.5 652 447.5 646 c 128,-1,21
 452.5 640 452.5 640 452.5 633 c 0,22,23
 452.5 625 452.5 625 444 599.5 c 128,-1,24
 435.5 574 435.5 574 424 544.5 c 128,-1,25
 412.5 515 412.5 515 401 487.5 c 128,-1,26
 389.5 460 389.5 460 383.5 447 c 0,27,28
 379.5 438 379.5 438 368.5 410.5 c 128,-1,29
 357.5 383 357.5 383 342.5 344.5 c 128,-1,30
 327.5 306 327.5 306 309.5 259.5 c 128,-1,31
 291.5 213 291.5 213 272.5 166.5 c 128,-1,32
 253.5 120 253.5 120 235 76 c 128,-1,33
 216.5 32 216.5 32 201 -2 c 128,-1,34
 185.5 -36 185.5 -36 173.5 -56.5 c 128,-1,35
 161.5 -77 161.5 -77 156.5 -77 c 0,0,1
131.5 -37 m 4,36,37
 135.5 -25 135.5 -25 143.5 -7 c 132,-1,38
 151.5 11 151.5 11 158.5 27.5 c 132,-1,39
 165.5 44 165.5 44 169 56.5 c 132,-1,40
 172.5 69 172.5 69 167.5 70 c 4,41,42
 165.5 71 165.5 71 160.5 71 c 132,-1,43
 155.5 71 155.5 71 152.5 66 c 4,44,45
 150.5 62 150.5 62 144 48.5 c 132,-1,46
 137.5 35 137.5 35 131 19.5 c 132,-1,47
 124.5 4 124.5 4 119.5 -10.5 c 132,-1,48
 114.5 -25 114.5 -25 114.5 -31 c 4,49,50
 114.5 -38 114.5 -38 122 -40 c 132,-1,51
 129.5 -42 129.5 -42 131.5 -37 c 4,36,37
EndSplineSet
EndChar

StartChar: zero
Encoding: 48 48 18
Width: 540
VWidth: 1024
Flags: W
LayerCount: 2
Fore
SplineSet
277.799804688 -17 m 0,0,1
 195.119140625 -17 195.119140625 -17 139.740234375 12 c 128,-1,2
 84.359375 41 84.359375 41 50.8193359375 88 c 128,-1,3
 17.2802734375 135 17.2802734375 135 4.01953125 194.5 c 128,-1,4
 -9.240234375 254 -9.240234375 254 -9.240234375 314 c 256,5,6
 -9.240234375 374 -9.240234375 374 6.359375 432 c 128,-1,7
 21.9599609375 490 21.9599609375 490 57.83984375 535.5 c 128,-1,8
 93.7197265625 581 93.7197265625 581 151.440429688 608.5 c 128,-1,9
 209.16015625 636 209.16015625 636 290.280273438 636 c 0,10,11
 344.880859375 636 344.880859375 636 384.66015625 618.5 c 128,-1,12
 424.440429688 601 424.440429688 601 453.299804688 573.5 c 128,-1,13
 482.16015625 546 482.16015625 546 501.66015625 511 c 128,-1,14
 521.16015625 476 521.16015625 476 531.299804688 440 c 128,-1,15
 541.440429688 404 541.440429688 404 545.33984375 371 c 128,-1,16
 549.240234375 338 549.240234375 338 549.240234375 314 c 0,17,18
 549.240234375 264 549.240234375 264 535.200195312 205.5 c 128,-1,19
 521.16015625 147 521.16015625 147 489.180664062 97.5 c 128,-1,20
 457.200195312 48 457.200195312 48 404.940429688 15.5 c 128,-1,21
 352.680664062 -17 352.680664062 -17 277.799804688 -17 c 0,0,1
106.200195312 524 m 0,22,23
 120.240234375 543 120.240234375 543 128.819335938 553 c 128,-1,24
 137.400390625 563 137.400390625 563 137.400390625 566 c 0,25,26
 137.400390625 568 137.400390625 568 131.16015625 568.5 c 128,-1,27
 124.919921875 569 124.919921875 569 115.559570312 562 c 0,28,29
 109.319335938 556 109.319335938 556 98.400390625 543 c 128,-1,30
 87.48046875 530 87.48046875 530 76.5595703125 516 c 128,-1,31
 65.640625 502 65.640625 502 57.83984375 488 c 128,-1,32
 50.0400390625 474 50.0400390625 474 50.0400390625 467 c 256,33,34
 50.0400390625 460 50.0400390625 460 58.619140625 462 c 128,-1,35
 67.2001953125 464 67.2001953125 464 71.880859375 471 c 0,36,37
 76.5595703125 479 76.5595703125 479 84.359375 492.5 c 128,-1,38
 92.16015625 506 92.16015625 506 106.200195312 524 c 0,22,23
279.359375 60 m 0,39,40
 329.280273438 60 329.280273438 60 358.140625 87 c 128,-1,41
 387 114 387 114 401.819335938 154 c 128,-1,42
 416.640625 194 416.640625 194 420.540039062 240 c 128,-1,43
 424.440429688 286 424.440429688 286 424.440429688 324 c 0,44,45
 424.440429688 348 424.440429688 348 419.759765625 386.5 c 128,-1,46
 415.080078125 425 415.080078125 425 401.040039062 462.5 c 128,-1,47
 387 500 387 500 360.48046875 527 c 128,-1,48
 333.959960938 554 333.959960938 554 290.280273438 554 c 0,49,50
 254.400390625 554 254.400390625 554 229.440429688 526.5 c 128,-1,51
 204.48046875 499 204.48046875 499 187.319335938 460.5 c 128,-1,52
 170.16015625 422 170.16015625 422 162.359375 380 c 128,-1,53
 154.559570312 338 154.559570312 338 154.559570312 308 c 0,54,55
 154.559570312 293 154.559570312 293 154.559570312 269 c 128,-1,56
 154.559570312 245 154.559570312 245 157.680664062 217 c 128,-1,57
 160.799804688 189 160.799804688 189 167.819335938 161.5 c 128,-1,58
 174.83984375 134 174.83984375 134 188.880859375 111.5 c 128,-1,59
 202.919921875 89 202.919921875 89 225.540039062 74.5 c 128,-1,60
 248.16015625 60 248.16015625 60 279.359375 60 c 0,39,40
EndSplineSet
EndChar

StartChar: one
Encoding: 49 49 19
Width: 540
VWidth: 1024
Flags: W
LayerCount: 2
Fore
SplineSet
374.744140625 0 m 0,0,1
 302.984375 0 302.984375 0 302.984375 48 c 2,2,-1
 302.984375 461 l 2,3,4
 303.184570312 475 303.184570312 475 302.204101562 477 c 0,5,6
 301.184570312 484 301.184570312 484 298.303710938 484 c 0,7,8
 293.184570312 484 293.184570312 484 283.484375 476.5 c 0,9,10
 273.184570312 469 273.184570312 469 237.184570312 455.5 c 128,-1,11
 201.184570312 442 201.184570312 442 187.684570312 436 c 128,-1,12
 174.184570312 430 174.184570312 430 160.384765625 426 c 0,13,14
 146.184570312 421 146.184570312 421 130.744140625 421 c 0,15,16
 109.184570312 421 109.184570312 421 94.0849609375 431 c 0,17,18
 73.1845703125 443 73.1845703125 443 79.2646484375 456 c 0,19,20
 79.037109375 458.423828125 79.037109375 458.423828125 89.865234375 486 c 0,21,22
 95.1845703125 499 95.1845703125 499 121.384765625 511 c 0,23,24
 191.184570312 543 191.184570312 543 212.29296875 553.505859375 c 0,25,26
 268.181640625 583.712890625 268.181640625 583.712890625 274.904296875 586.5 c 0,27,28
 332.184570312 610 332.184570312 610 338.084960938 615 c 0,29,30
 359.184570312 631 359.184570312 631 387.224609375 631 c 0,31,32
 396.184570312 631 396.184570312 631 409.844726562 630 c 0,33,34
 423.184570312 629 423.184570312 629 434.803710938 626 c 0,35,36
 446.184570312 623 446.184570312 623 454.303710938 617 c 0,37,38
 462.104492188 611.060546875 462.104492188 611.060546875 462.104492188 601 c 2,39,-1
 462.104492188 49 l 2,40,41
 462.184570312 31 462.184570312 31 436.365234375 15.5 c 0,42,43
 410.184570312 0 410.184570312 0 374.744140625 0 c 0,0,1
373.184570312 606 m 0,44,45
 380.984375 614 380.984375 614 385.665039062 617 c 128,-1,46
 390.344726562 620 390.344726562 620 385.665039062 621 c 0,47,48
 382.543945312 621 382.543945312 621 371.625 618 c 128,-1,49
 360.704101562 615 360.704101562 615 349.784179688 609 c 0,50,51
 341.984375 604 341.984375 604 329.50390625 597 c 128,-1,52
 317.024414062 590 317.024414062 590 317.024414062 586 c 0,53,54
 317.024414062 583 317.024414062 583 323.264648438 582 c 0,55,56
 334.184570312 581 334.184570312 581 350.565429688 591 c 128,-1,57
 366.944335938 601 366.944335938 601 373.184570312 606 c 0,44,45
356.024414062 46 m 0,58,59
 356.024414062 54 356.024414062 54 351.344726562 59.5 c 128,-1,60
 346.665039062 65 346.665039062 65 346.665039062 76 c 0,61,62
 346.665039062 81 346.665039062 81 345.884765625 85 c 128,-1,63
 345.104492188 89 345.104492188 89 337.303710938 89 c 0,64,65
 331.065429688 89 331.065429688 89 327.944335938 79.5 c 128,-1,66
 324.825195312 70 324.825195312 70 324.825195312 58.5 c 128,-1,67
 324.825195312 47 324.825195312 47 327.944335938 37.5 c 128,-1,68
 331.065429688 28 331.065429688 28 337.303710938 28 c 0,69,70
 356.024414062 28 356.024414062 28 356.024414062 46 c 0,58,59
EndSplineSet
EndChar

StartChar: two
Encoding: 50 50 20
Width: 540
VWidth: 1024
Flags: W
LayerCount: 2
Fore
SplineSet
60.5087890625 0 m 2,0,1
 46.46875 0 46.46875 0 34.7685546875 13.5 c 128,-1,2
 23.068359375 27 23.068359375 27 26.189453125 39 c 256,3,4
 29.30859375 51 29.30859375 51 51.1484375 69.5 c 128,-1,5
 72.9892578125 88 72.9892578125 88 99.5087890625 109 c 0,6,7
 157.229492188 155 157.229492188 155 203.249023438 203.5 c 128,-1,8
 249.268554688 252 249.268554688 252 282.029296875 299.5 c 128,-1,9
 314.7890625 347 314.7890625 347 331.94921875 392 c 128,-1,10
 349.108398438 437 349.108398438 437 349.108398438 476 c 0,11,12
 349.108398438 518 349.108398438 518 321.80859375 532.5 c 128,-1,13
 294.508789062 547 294.508789062 547 261.749023438 547 c 256,14,15
 230.548828125 547 230.548828125 547 206.368164062 530 c 128,-1,16
 182.189453125 513 182.189453125 513 182.189453125 475 c 0,17,18
 182.189453125 452 182.189453125 452 189.989257812 440.5 c 128,-1,19
 197.7890625 429 197.7890625 429 197.7890625 413 c 0,20,21
 197.7890625 399 197.7890625 399 172.829101562 392.5 c 128,-1,22
 147.868164062 386 147.868164062 386 130.708984375 386 c 0,23,24
 88.5888671875 386 88.5888671875 386 61.2890625 413 c 128,-1,25
 33.9892578125 440 33.9892578125 440 33.9892578125 481 c 0,26,27
 33.9892578125 514 33.9892578125 514 50.3681640625 542 c 128,-1,28
 66.7490234375 570 66.7490234375 570 97.94921875 591 c 128,-1,29
 129.1484375 612 129.1484375 612 171.268554688 624.5 c 128,-1,30
 213.388671875 637 213.388671875 637 263.30859375 637 c 0,31,32
 311.66796875 637 311.66796875 637 356.908203125 625 c 128,-1,33
 402.1484375 613 402.1484375 613 437.249023438 591 c 128,-1,34
 472.348632812 569 472.348632812 569 493.408203125 538 c 128,-1,35
 514.46875 507 514.46875 507 514.46875 468 c 0,36,37
 514.46875 420 514.46875 420 494.96875 373 c 128,-1,38
 475.46875 326 475.46875 326 445.829101562 284 c 128,-1,39
 416.189453125 242 416.189453125 242 382.6484375 206 c 128,-1,40
 349.108398438 170 349.108398438 170 320.249023438 143.5 c 128,-1,41
 291.388671875 117 291.388671875 117 271.888671875 100.5 c 128,-1,42
 252.388671875 84 252.388671875 84 252.388671875 81 c 1,43,44
 257.068359375 81 257.068359375 81 264.868164062 81 c 2,45,-1
 303.868164062 81 l 1,46,-1
 442.708984375 84 l 2,47,48
 470.7890625 85 470.7890625 85 485.608398438 81 c 128,-1,49
 500.4296875 77 500.4296875 77 506.66796875 69 c 128,-1,50
 512.908203125 61 512.908203125 61 512.908203125 51 c 128,-1,51
 512.908203125 41 512.908203125 41 512.908203125 30 c 0,52,53
 512.908203125 12 512.908203125 12 495.749023438 6 c 128,-1,54
 478.588867188 0 478.588867188 0 428.66796875 0 c 2,55,-1
 60.5087890625 0 l 2,0,1
85.46875 500 m 0,56,57
 87.029296875 512 87.029296875 512 83.908203125 519 c 128,-1,58
 80.7890625 526 80.7890625 526 76.1083984375 525 c 0,59,60
 69.8681640625 525 69.8681640625 525 65.96875 518.5 c 128,-1,61
 62.068359375 512 62.068359375 512 61.2890625 503.5 c 128,-1,62
 60.5087890625 495 60.5087890625 495 60.5087890625 487 c 128,-1,63
 60.5087890625 479 60.5087890625 479 60.5087890625 476 c 0,64,65
 63.62890625 463 63.62890625 463 68.30859375 461 c 0,66,67
 76.1083984375 456 76.1083984375 456 79.2294921875 463 c 128,-1,68
 82.3486328125 470 82.3486328125 470 85.46875 500 c 0,56,57
90.1484375 434 m 0,69,70
 90.1484375 441 90.1484375 441 77.66796875 441 c 256,71,72
 66.7490234375 441 66.7490234375 441 66.7490234375 433 c 0,73,74
 66.7490234375 431 66.7490234375 431 69.8681640625 428 c 128,-1,75
 72.9892578125 425 72.9892578125 425 76.1083984375 425 c 0,76,77
 82.3486328125 425 82.3486328125 425 86.2490234375 428 c 128,-1,78
 90.1484375 431 90.1484375 431 90.1484375 434 c 0,69,70
87.029296875 51 m 0,79,80
 99.5087890625 70 99.5087890625 70 96.388671875 71 c 0,81,82
 85.46875 71 85.46875 71 72.9892578125 61.5 c 128,-1,83
 60.5087890625 52 60.5087890625 52 60.5087890625 41 c 0,84,85
 60.5087890625 33 60.5087890625 33 66.7490234375 33 c 0,86,87
 74.548828125 33 74.548828125 33 87.029296875 51 c 0,79,80
EndSplineSet
EndChar

StartChar: three
Encoding: 51 51 21
Width: 540
VWidth: 1024
Flags: W
LayerCount: 2
Fore
SplineSet
352.680664062 498 m 0,0,1
 352.680664062 528 352.680664062 528 330.83984375 540.5 c 128,-1,2
 309 553 309 553 263.759765625 553 c 0,3,4
 210.719726562 553 210.719726562 553 184.98046875 527 c 128,-1,5
 159.240234375 501 159.240234375 501 159.240234375 440 c 0,6,7
 159.240234375 426 159.240234375 426 142.859375 420 c 128,-1,8
 126.48046875 414 126.48046875 414 109.319335938 414 c 0,9,10
 12.599609375 414 12.599609375 414 11.0400390625 505 c 0,11,12
 11.0400390625 533 11.0400390625 533 32.880859375 557 c 128,-1,13
 54.7197265625 581 54.7197265625 581 89.0400390625 598.5 c 128,-1,14
 123.359375 616 123.359375 616 167.819335938 626.5 c 128,-1,15
 212.280273438 637 212.280273438 637 257.51953125 637 c 0,16,17
 327.719726562 637 327.719726562 637 377.640625 625.5 c 128,-1,18
 427.559570312 614 427.559570312 614 459.540039062 594.5 c 128,-1,19
 491.51953125 575 491.51953125 575 507.900390625 550 c 128,-1,20
 524.280273438 525 524.280273438 525 524.280273438 499 c 0,21,22
 524.280273438 458 524.280273438 458 496.200195312 428 c 128,-1,23
 468.119140625 398 468.119140625 398 433.799804688 377 c 128,-1,24
 399.48046875 356 399.48046875 356 371.400390625 344 c 128,-1,25
 343.319335938 332 343.319335938 332 343.319335938 326 c 256,26,27
 343.319335938 320 343.319335938 320 372.180664062 313 c 128,-1,28
 401.040039062 306 401.040039062 306 436.140625 290.5 c 128,-1,29
 471.240234375 275 471.240234375 275 500.099609375 247 c 128,-1,30
 528.959960938 219 528.959960938 219 528.959960938 171 c 0,31,32
 528.959960938 124 528.959960938 124 500.880859375 90.5 c 128,-1,33
 472.799804688 57 472.799804688 57 427.559570312 35.5 c 128,-1,34
 382.319335938 14 382.319335938 14 324.599609375 4 c 128,-1,35
 266.880859375 -6 266.880859375 -6 207.599609375 -6 c 0,36,37
 182.640625 -6 182.640625 -6 150.66015625 -1.5 c 128,-1,38
 118.680664062 3 118.680664062 3 90.599609375 13 c 128,-1,39
 62.51953125 23 62.51953125 23 43.01953125 37.5 c 128,-1,40
 23.51953125 52 23.51953125 52 23.51953125 73 c 0,41,42
 23.51953125 88 23.51953125 88 33.66015625 98 c 128,-1,43
 43.7998046875 108 43.7998046875 108 60.9599609375 108 c 0,44,45
 81.240234375 108 81.240234375 108 98.400390625 103 c 128,-1,46
 115.559570312 98 115.559570312 98 131.940429688 92.5 c 128,-1,47
 148.319335938 87 148.319335938 87 167.819335938 82.5 c 128,-1,48
 187.319335938 78 187.319335938 78 210.719726562 78 c 0,49,50
 254.400390625 78 254.400390625 78 283.259765625 86 c 128,-1,51
 312.119140625 94 312.119140625 94 328.5 107.5 c 128,-1,52
 344.880859375 121 344.880859375 121 351.119140625 137.5 c 128,-1,53
 357.359375 154 357.359375 154 357.359375 170 c 0,54,55
 357.359375 203 357.359375 203 329.280273438 225.5 c 128,-1,56
 301.200195312 248 301.200195312 248 254.400390625 248 c 0,57,58
 187.319335938 248 187.319335938 248 160.01953125 263.5 c 128,-1,59
 132.719726562 279 132.719726562 279 132.719726562 299 c 0,60,61
 132.719726562 318 132.719726562 318 167.040039062 342.5 c 128,-1,62
 201.359375 367 201.359375 367 242.700195312 392.5 c 128,-1,63
 284.040039062 418 284.040039062 418 318.359375 445 c 128,-1,64
 352.680664062 472 352.680664062 472 352.680664062 498 c 0,0,1
76.5595703125 527 m 0,65,66
 78.119140625 539 78.119140625 539 75 546.5 c 128,-1,67
 71.880859375 554 71.880859375 554 67.2001953125 553 c 0,68,69
 60.9599609375 553 60.9599609375 553 55.5 547 c 128,-1,70
 50.0400390625 541 50.0400390625 541 46.140625 532.5 c 128,-1,71
 42.240234375 524 42.240234375 524 39.900390625 516 c 128,-1,72
 37.5595703125 508 37.5595703125 508 39.119140625 504 c 0,73,74
 42.240234375 491 42.240234375 491 46.919921875 488 c 0,75,76
 54.7197265625 483 54.7197265625 483 64.080078125 490 c 128,-1,77
 73.4404296875 497 73.4404296875 497 76.5595703125 527 c 0,65,66
67.2001953125 462 m 0,78,79
 67.2001953125 469 67.2001953125 469 56.2802734375 469 c 256,80,81
 45.359375 469 45.359375 469 45.359375 461 c 0,82,83
 45.359375 459 45.359375 459 48.48046875 456 c 128,-1,84
 51.599609375 453 51.599609375 453 54.7197265625 453 c 0,85,86
 60.9599609375 453 60.9599609375 453 64.080078125 456 c 128,-1,87
 67.2001953125 459 67.2001953125 459 67.2001953125 462 c 0,78,79
185.759765625 298 m 0,88,89
 188.880859375 303 188.880859375 303 195.119140625 311 c 128,-1,90
 201.359375 319 201.359375 319 209.16015625 327 c 0,91,92
 215.400390625 333 215.400390625 333 216.959960938 338 c 128,-1,93
 218.51953125 343 218.51953125 343 215.400390625 343 c 0,94,95
 209.16015625 343 209.16015625 343 199.799804688 337 c 128,-1,96
 190.440429688 331 190.440429688 331 181.859375 322.5 c 128,-1,97
 173.280273438 314 173.280273438 314 166.259765625 305.5 c 128,-1,98
 159.240234375 297 159.240234375 297 159.240234375 291 c 0,99,100
 159.240234375 282 159.240234375 282 168.599609375 282 c 256,101,102
 176.400390625 282 176.400390625 282 185.759765625 298 c 0,88,89
73.4404296875 82 m 0,103,104
 73.4404296875 104 73.4404296875 104 59.400390625 94 c 0,105,106
 51.599609375 89 51.599609375 89 48.48046875 80 c 128,-1,107
 45.359375 71 45.359375 71 46.919921875 63 c 0,108,109
 48.48046875 59 48.48046875 59 51.599609375 57.5 c 128,-1,110
 54.7197265625 56 54.7197265625 56 57.83984375 56 c 256,111,112
 60.9599609375 56 60.9599609375 56 67.2001953125 65 c 128,-1,113
 73.4404296875 74 73.4404296875 74 73.4404296875 82 c 0,103,104
EndSplineSet
EndChar

StartChar: four
Encoding: 52 52 22
Width: 540
Flags: W
LayerCount: 2
Fore
SplineSet
437.700195312 0 m 0,0,1
 400.259765625 0 400.259765625 0 387 19.5 c 128,-1,2
 373.740234375 39 373.740234375 39 373.740234375 62 c 2,3,-1
 373.740234375 130 l 2,4,5
 373.740234375 142 373.740234375 142 353.459960938 142 c 2,6,-1
 71.099609375 142 l 2,7,8
 36.7802734375 142 36.7802734375 142 20.400390625 152 c 128,-1,9
 4.01953125 162 4.01953125 162 4.01953125 173 c 0,10,11
 91.380859375 610.5 l 0,12,13
 106.98046875 614 106.98046875 614 122.580078125 614 c 0,14,15
 130.380859375 614 130.380859375 614 144.419921875 612 c 128,-1,16
 158.459960938 610 158.459960938 610 171.719726562 606.5 c 128,-1,17
 184.98046875 603 184.98046875 603 195.119140625 598 c 128,-1,18
 205.259765625 593 205.259765625 593 205.259765625 587 c 256,19,20
 205.259765625 573 205.259765625 573 205.259765625 558.5 c 0,21,-1
 191.219726562 235 l 0,22,23
 189.66015625 232 189.66015625 232 189.66015625 229 c 0,24,25
 189.66015625 224 189.66015625 224 202.140625 224 c 2,26,-1
 353.459960938 224 l 2,27,28
 365.940429688 224 365.940429688 224 369.83984375 226.5 c 128,-1,29
 373.740234375 229 373.740234375 229 373.740234375 235 c 6,30,-1
 373.740234375 536 l 6,31,32
 373.740234375 561 373.740234375 561 380.759765625 576.5 c 128,-1,33
 387.780273438 592 387.780273438 592 398.700195312 601 c 128,-1,34
 409.619140625 610 409.619140625 610 423.66015625 613 c 128,-1,35
 437.700195312 616 437.700195312 616 453.299804688 616 c 0,36,37
 495.419921875 616 495.419921875 616 515.700195312 597 c 128,-1,38
 535.98046875 578 535.98046875 578 535.98046875 550 c 2,39,-1
 535.98046875 70 l 2,40,41
 535.98046875 49 535.98046875 49 528.180664062 35 c 128,-1,42
 520.380859375 21 520.380859375 21 506.33984375 13.5 c 128,-1,43
 492.299804688 6 492.299804688 6 474.359375 3 c 128,-1,44
 456.419921875 0 456.419921875 0 437.700195312 0 c 0,0,1
404.940429688 541 m 256,45,46
 411.180664062 541 411.180664062 541 416.640625 547 c 128,-1,47
 422.099609375 553 422.099609375 553 426 561 c 128,-1,48
 429.900390625 569 429.900390625 569 432.240234375 577.5 c 128,-1,49
 434.580078125 586 434.580078125 586 434.580078125 591 c 0,50,51
 434.580078125 598 434.580078125 598 423.66015625 598 c 0,52,53
 418.98046875 598 418.98046875 598 414.299804688 593.5 c 128,-1,54
 409.619140625 589 409.619140625 589 405.719726562 582.5 c 128,-1,55
 401.819335938 576 401.819335938 576 398.700195312 569.5 c 128,-1,56
 395.580078125 563 395.580078125 563 395.580078125 558 c 0,57,58
 395.580078125 552 395.580078125 552 397.140625 546.5 c 128,-1,59
 398.700195312 541 398.700195312 541 404.940429688 541 c 256,45,46
72.66015625 215 m 0,60,61
 78.900390625 228 78.900390625 228 82.7998046875 235 c 128,-1,62
 86.7001953125 242 86.7001953125 242 85.140625 251 c 0,63,64
 85.140625 259 85.140625 259 77.33984375 259 c 0,65,66
 72.66015625 259 72.66015625 259 67.2001953125 251.5 c 128,-1,67
 61.740234375 244 61.740234375 244 56.2802734375 234 c 128,-1,68
 50.8193359375 224 50.8193359375 224 47.7001953125 214 c 128,-1,69
 44.580078125 204 44.580078125 204 44.580078125 199 c 0,70,71
 44.580078125 188 44.580078125 188 52.380859375 188 c 0,72,73
 63.2998046875 189 63.2998046875 189 72.66015625 215 c 0,60,61
57.0595703125 169 m 0,74,75
 57.0595703125 179 57.0595703125 179 44.580078125 179 c 256,76,77
 32.099609375 179 32.099609375 179 32.099609375 169 c 0,78,79
 32.099609375 167 32.099609375 167 33.66015625 166 c 0,80,81
 39.900390625 162 39.900390625 162 44.580078125 162 c 0,82,83
 47.7001953125 162 47.7001953125 162 52.380859375 164 c 128,-1,84
 57.0595703125 166 57.0595703125 166 57.0595703125 169 c 0,74,75
425.219726562 29 m 0,85,86
 420.540039062 35 420.540039062 35 415.859375 37.5 c 128,-1,87
 411.180664062 40 411.180664062 40 411.180664062 45 c 0,88,89
 411.180664062 49 411.180664062 49 409.619140625 53 c 0,90,91
 409.619140625 61 409.619140625 61 401.819335938 61 c 0,92,93
 392.459960938 61 392.459960938 61 392.459960938 50 c 0,94,95
 392.459960938 42 392.459960938 42 399.48046875 28.5 c 128,-1,96
 406.5 15 406.5 15 415.859375 15 c 0,97,98
 420.540039062 15 420.540039062 15 425.219726562 19.5 c 128,-1,99
 429.900390625 24 429.900390625 24 425.219726562 29 c 0,85,86
EndSplineSet
EndChar

StartChar: five
Encoding: 53 53 23
Width: 540
VWidth: 1024
Flags: W
LayerCount: 2
Fore
SplineSet
110.099609375 -8 m 0,0,1
 74.2197265625 -8 74.2197265625 -8 54.7197265625 -1.5 c 128,-1,2
 35.2197265625 5 35.2197265625 5 25.859375 14.5 c 128,-1,3
 16.5 24 16.5 24 14.16015625 33.5 c 128,-1,4
 11.8193359375 43 11.8193359375 43 11.8193359375 49 c 0,5,6
 11.8193359375 63 11.8193359375 63 20.400390625 71.5 c 128,-1,7
 28.98046875 80 28.98046875 80 43.01953125 83.5 c 128,-1,8
 57.0595703125 87 57.0595703125 87 75 87.5 c 128,-1,9
 92.9404296875 88 92.9404296875 88 110.099609375 88 c 0,10,11
 248.940429688 88 248.940429688 88 307.440429688 115 c 128,-1,12
 365.940429688 142 365.940429688 142 365.940429688 201 c 0,13,14
 365.940429688 257 365.940429688 257 324.599609375 283.5 c 128,-1,15
 283.259765625 310 283.259765625 310 205.259765625 310 c 0,16,17
 175.619140625 310 175.619140625 310 155.33984375 307 c 128,-1,18
 135.059570312 304 135.059570312 304 121.01953125 300.5 c 128,-1,19
 106.98046875 297 106.98046875 297 94.5 294 c 128,-1,20
 82.01953125 291 82.01953125 291 64.859375 291 c 256,21,22
 49.259765625 291 49.259765625 291 39.900390625 300 c 128,-1,23
 30.5400390625 309 30.5400390625 309 25.859375 322 c 128,-1,24
 21.1806640625 335 21.1806640625 335 20.400390625 350 c 128,-1,25
 19.619140625 365 19.619140625 365 19.619140625 375 c 2,26,-1
 19.619140625 582 l 2,27,28
 19.619140625 610 19.619140625 610 40.6806640625 620.5 c 128,-1,29
 61.740234375 631 61.740234375 631 92.9404296875 631 c 2,30,-1
 464.219726562 631 l 2,31,32
 476.700195312 631 476.700195312 631 488.400390625 623 c 128,-1,33
 500.099609375 615 500.099609375 615 500.099609375 601 c 0,34,35
 500.099609375 583 500.099609375 583 488.400390625 566 c 128,-1,36
 476.700195312 549 476.700195312 549 461.099609375 549 c 2,37,-1
 192.780273438 548 l 2,38,39
 184.98046875 548 184.98046875 548 181.859375 543.5 c 128,-1,40
 178.740234375 539 178.740234375 539 178.740234375 534 c 2,41,-1
 178.740234375 409 l 2,42,43
 178.740234375 393 178.740234375 393 183.419921875 390.5 c 128,-1,44
 188.099609375 388 188.099609375 388 199.01953125 388 c 2,45,-1
 238.01953125 389 l 2,46,47
 301.98046875 391 301.98046875 391 355.799804688 380.5 c 128,-1,48
 409.619140625 370 409.619140625 370 447.83984375 346.5 c 128,-1,49
 486.059570312 323 486.059570312 323 507.119140625 287 c 128,-1,50
 528.180664062 251 528.180664062 251 528.180664062 202 c 0,51,52
 528.180664062 162 528.180664062 162 503.219726562 124.5 c 128,-1,53
 478.259765625 87 478.259765625 87 426 57.5 c 128,-1,54
 373.740234375 28 373.740234375 28 295.740234375 10 c 128,-1,55
 217.740234375 -8 217.740234375 -8 110.099609375 -8 c 0,0,1
63.2998046875 413 m 0,56,57
 63.2998046875 432 63.2998046875 432 61.740234375 442.5 c 128,-1,58
 60.1806640625 453 60.1806640625 453 50.8193359375 446 c 0,59,60
 46.140625 443 46.140625 443 43.01953125 431 c 128,-1,61
 39.900390625 419 39.900390625 419 39.900390625 404.5 c 128,-1,62
 39.900390625 390 39.900390625 390 43.01953125 378 c 128,-1,63
 46.140625 366 46.140625 366 50.8193359375 362 c 256,64,65
 55.5 359 55.5 359 57.0595703125 359 c 0,66,67
 63.2998046875 360 63.2998046875 360 63.2998046875 413 c 0,56,57
77.33984375 334 m 0,68,69
 77.33984375 344 77.33984375 344 67.98046875 344 c 0,70,71
 50.8193359375 344 50.8193359375 344 50.8193359375 330 c 0,72,73
 50.8193359375 323 50.8193359375 323 63.2998046875 323 c 0,74,75
 71.099609375 323 71.099609375 323 74.2197265625 327.5 c 128,-1,76
 77.33984375 332 77.33984375 332 77.33984375 334 c 0,68,69
61.740234375 49 m 0,77,78
 60.1806640625 51 60.1806640625 51 60.9599609375 55 c 128,-1,79
 61.740234375 59 61.740234375 59 62.51953125 63 c 128,-1,80
 63.2998046875 67 63.2998046875 67 61.740234375 69.5 c 128,-1,81
 60.1806640625 72 60.1806640625 72 53.9404296875 72 c 0,82,83
 46.140625 72 46.140625 72 43.01953125 63 c 128,-1,84
 39.900390625 54 39.900390625 54 41.4599609375 43 c 256,85,86
 43.01953125 32 43.01953125 32 47.7001953125 22 c 128,-1,87
 52.380859375 12 52.380859375 12 61.740234375 12 c 0,88,89
 64.859375 12 64.859375 12 67.2001953125 23.5 c 128,-1,90
 69.5400390625 35 69.5400390625 35 61.740234375 49 c 0,77,78
EndSplineSet
EndChar

StartChar: six
Encoding: 54 54 24
Width: 540
VWidth: 1024
Flags: W
LayerCount: 2
Fore
SplineSet
272.33984375 -11 m 0,0,1
 189.66015625 -11 189.66015625 -11 131.16015625 9 c 128,-1,2
 72.66015625 29 72.66015625 29 36 62.5 c 128,-1,3
 -0.66015625 96 -0.66015625 96 -17.8193359375 139.5 c 128,-1,4
 -34.98046875 183 -34.98046875 183 -34.98046875 230 c 0,5,6
 -34.98046875 282 -34.98046875 282 -21.7197265625 336 c 128,-1,7
 -8.4599609375 390 -8.4599609375 390 18.83984375 439 c 128,-1,8
 46.140625 488 46.140625 488 89.8193359375 530 c 128,-1,9
 133.5 572 133.5 572 195.900390625 601 c 0,10,11
 241.140625 621 241.140625 621 285.599609375 628 c 128,-1,12
 330.059570312 635 330.059570312 635 364.380859375 635 c 0,13,14
 372.180664062 635 372.180664062 635 384.66015625 633.5 c 128,-1,15
 397.140625 632 397.140625 632 408.059570312 629 c 128,-1,16
 418.98046875 626 418.98046875 626 427.559570312 620.5 c 128,-1,17
 436.140625 615 436.140625 615 436.140625 607 c 0,18,19
 436.140625 593 436.140625 593 428.33984375 581 c 128,-1,20
 420.540039062 569 420.540039062 569 378.419921875 560 c 0,21,22
 336.299804688 551 336.299804688 551 302.759765625 533.5 c 128,-1,23
 269.219726562 516 269.219726562 516 242.700195312 494 c 128,-1,24
 216.180664062 472 216.180664062 472 197.459960938 446 c 128,-1,25
 178.740234375 420 178.740234375 420 163.140625 394 c 0,26,27
 155.33984375 382 155.33984375 382 149.099609375 363 c 128,-1,28
 142.859375 344 142.859375 344 142.859375 333 c 0,29,30
 142.859375 323 142.859375 323 149.099609375 323 c 0,31,32
 153.780273438 323 153.780273438 323 165.48046875 332.5 c 128,-1,33
 177.180664062 342 177.180664062 342 197.459960938 353.5 c 128,-1,34
 217.740234375 365 217.740234375 365 248.16015625 374.5 c 128,-1,35
 278.580078125 384 278.580078125 384 322.259765625 384 c 0,36,37
 445.5 384 445.5 384 510.240234375 331 c 128,-1,38
 574.98046875 278 574.98046875 278 574.98046875 191 c 0,39,40
 574.98046875 149 574.98046875 149 550.799804688 112.5 c 128,-1,41
 526.619140625 76 526.619140625 76 485.280273438 48 c 128,-1,42
 443.940429688 20 443.940429688 20 388.559570312 4.5 c 128,-1,43
 333.180664062 -11 333.180664062 -11 272.33984375 -11 c 0,0,1
264.540039062 82 m 0,44,45
 331.619140625 82 331.619140625 82 372.180664062 109 c 128,-1,46
 412.740234375 136 412.740234375 136 412.740234375 195 c 0,47,48
 412.740234375 212 412.740234375 212 408.059570312 229.5 c 128,-1,49
 403.380859375 247 403.380859375 247 390.900390625 261 c 128,-1,50
 378.419921875 275 378.419921875 275 356.580078125 284 c 128,-1,51
 334.740234375 293 334.740234375 293 300.419921875 293 c 0,52,53
 270.780273438 293 270.780273438 293 239.580078125 282.5 c 128,-1,54
 208.380859375 272 208.380859375 272 184.200195312 256.5 c 128,-1,55
 160.01953125 241 160.01953125 241 145.200195312 221 c 128,-1,56
 130.380859375 201 130.380859375 201 130.380859375 182 c 0,57,58
 130.380859375 140 130.380859375 140 158.459960938 111 c 128,-1,59
 186.540039062 82 186.540039062 82 264.540039062 82 c 0,44,45
63.2998046875 110 m 0,60,61
 58.619140625 121 58.619140625 121 52.380859375 130.5 c 128,-1,62
 46.140625 140 46.140625 140 39.900390625 152 c 0,63,64
 36.7802734375 158 36.7802734375 158 34.4404296875 163 c 128,-1,65
 32.099609375 168 32.099609375 168 25.859375 167 c 0,66,67
 21.1806640625 167 21.1806640625 167 18.0595703125 159 c 0,68,69
 16.5 152 16.5 152 21.9599609375 138.5 c 128,-1,70
 27.419921875 125 27.419921875 125 36 112.5 c 128,-1,71
 44.580078125 100 44.580078125 100 53.16015625 91.5 c 128,-1,72
 61.740234375 83 61.740234375 83 64.859375 83 c 0,73,74
 72.66015625 83 72.66015625 83 72.66015625 88 c 0,75,76
 72.66015625 92 72.66015625 92 69.5400390625 97.5 c 128,-1,77
 66.419921875 103 66.419921875 103 63.2998046875 110 c 0,60,61
EndSplineSet
EndChar

StartChar: seven
Encoding: 55 55 25
Width: 540
VWidth: 1024
Flags: W
LayerCount: 2
Fore
SplineSet
144.419921875 -2 m 0,0,1
 122.580078125 -2 122.580078125 -2 106.98046875 6.5 c 128,-1,2
 91.380859375 15 91.380859375 15 91.380859375 26 c 0,3,4
 91.380859375 35 91.380859375 35 107.759765625 72 c 128,-1,5
 124.140625 109 124.140625 109 147.540039062 160 c 128,-1,6
 170.940429688 211 170.940429688 211 199.799804688 269.5 c 128,-1,7
 228.66015625 328 228.66015625 328 255.180664062 380 c 128,-1,8
 281.700195312 432 281.700195312 432 302.759765625 472 c 128,-1,9
 323.819335938 512 323.819335938 512 331.619140625 526 c 0,10,11
 339.419921875 541 339.419921875 541 320.700195312 542 c 2,12,-1
 113.219726562 542 l 2,13,14
 69.5400390625 542 69.5400390625 542 45.359375 550.5 c 128,-1,15
 21.1806640625 559 21.1806640625 559 21.1806640625 587 c 256,16,17
 21.1806640625 615 21.1806640625 615 47.7001953125 623 c 128,-1,18
 74.2197265625 631 74.2197265625 631 116.33984375 631 c 2,19,-1
 453.299804688 631 l 2,20,21
 479.819335938 631 479.819335938 631 499.319335938 620 c 128,-1,22
 518.819335938 609 518.819335938 609 518.819335938 595 c 0,23,24
 518.819335938 585 518.819335938 585 500.880859375 542 c 128,-1,25
 482.940429688 499 482.940429688 499 454.859375 439.5 c 128,-1,26
 426.780273438 380 426.780273438 380 392.459960938 311 c 128,-1,27
 358.140625 242 358.140625 242 326.16015625 180.5 c 128,-1,28
 294.180664062 119 294.180664062 119 269.219726562 73 c 128,-1,29
 244.259765625 27 244.259765625 27 230.219726562 11 c 0,30,31
 227.099609375 6 227.099609375 6 204.48046875 2 c 128,-1,32
 181.859375 -2 181.859375 -2 144.419921875 -2 c 0,0,1
72.66015625 608 m 0,33,34
 72.66015625 616 72.66015625 616 64.859375 616 c 256,35,36
 57.0595703125 616 57.0595703125 616 46.140625 608.5 c 128,-1,37
 35.2197265625 601 35.2197265625 601 35.2197265625 590 c 0,38,39
 35.2197265625 570 35.2197265625 570 49.259765625 569 c 0,40,41
 53.9404296875 569 53.9404296875 569 58.619140625 574 c 128,-1,42
 63.2998046875 579 63.2998046875 579 66.419921875 585 c 128,-1,43
 69.5400390625 591 69.5400390625 591 71.099609375 597.5 c 128,-1,44
 72.66015625 604 72.66015625 604 72.66015625 608 c 0,33,34
144.419921875 39 m 0,45,46
 147.540039062 49 147.540039062 49 150.66015625 60 c 128,-1,47
 153.780273438 71 153.780273438 71 156.900390625 75 c 0,48,49
 163.140625 80 163.140625 80 160.799804688 85 c 128,-1,50
 158.459960938 90 158.459960938 90 150.66015625 90 c 0,51,52
 145.98046875 90 145.98046875 90 140.51953125 83 c 128,-1,53
 135.059570312 76 135.059570312 76 131.16015625 66 c 128,-1,54
 127.259765625 56 127.259765625 56 124.140625 46.5 c 128,-1,55
 121.01953125 37 121.01953125 37 121.01953125 32 c 0,56,57
 121.01953125 20 121.01953125 20 128.819335938 19 c 256,58,59
 136.619140625 20 136.619140625 20 144.419921875 39 c 0,45,46
EndSplineSet
EndChar

StartChar: eight
Encoding: 56 56 26
Width: 540
VWidth: 1024
Flags: W
LayerCount: 2
Fore
SplineSet
257.51953125 -6 m 0,0,1
 193.559570312 -6 193.559570312 -6 139.740234375 9 c 128,-1,2
 85.919921875 24 85.919921875 24 48.48046875 48 c 128,-1,3
 11.0400390625 72 11.0400390625 72 -10.01953125 103 c 128,-1,4
 -31.080078125 134 -31.080078125 134 -31.080078125 167 c 0,5,6
 -31.080078125 206 -31.080078125 206 -3.7802734375 233.5 c 128,-1,7
 23.51953125 261 23.51953125 261 56.2802734375 280.5 c 128,-1,8
 89.0400390625 300 89.0400390625 300 116.33984375 313 c 128,-1,9
 143.640625 326 143.640625 326 143.640625 333 c 0,10,11
 143.640625 341 143.640625 341 118.680664062 350 c 128,-1,12
 93.7197265625 359 93.7197265625 359 63.2998046875 375.5 c 128,-1,13
 32.880859375 392 32.880859375 392 8.7001953125 417 c 128,-1,14
 -15.48046875 442 -15.48046875 442 -15.48046875 482 c 0,15,16
 -15.48046875 515 -15.48046875 515 7.140625 543.5 c 128,-1,17
 29.759765625 572 29.759765625 572 69.5400390625 593.5 c 128,-1,18
 109.319335938 615 109.319335938 615 160.799804688 627.5 c 128,-1,19
 212.280273438 640 212.280273438 640 268.440429688 640 c 0,20,21
 310.559570312 640 310.559570312 640 358.140625 629 c 128,-1,22
 405.719726562 618 405.719726562 618 446.280273438 598.5 c 128,-1,23
 486.83984375 579 486.83984375 579 513.359375 549 c 128,-1,24
 539.880859375 519 539.880859375 519 539.880859375 480 c 0,25,26
 539.880859375 442 539.880859375 442 517.259765625 419 c 128,-1,27
 494.640625 396 494.640625 396 468.119140625 382.5 c 128,-1,28
 441.599609375 369 441.599609375 369 419.759765625 361.5 c 128,-1,29
 397.919921875 354 397.919921875 354 397.919921875 348 c 0,30,31
 397.919921875 339 397.919921875 339 425.219726562 327 c 128,-1,32
 452.51953125 315 452.51953125 315 485.280273438 296.5 c 128,-1,33
 518.040039062 278 518.040039062 278 544.559570312 248 c 128,-1,34
 571.080078125 218 571.080078125 218 571.080078125 173 c 0,35,36
 571.080078125 139 571.080078125 139 546.900390625 107 c 128,-1,37
 522.719726562 75 522.719726562 75 479.040039062 49.5 c 128,-1,38
 435.359375 24 435.359375 24 379.200195312 9 c 128,-1,39
 323.040039062 -6 323.040039062 -6 257.51953125 -6 c 0,0,1
53.16015625 524 m 0,40,41
 54.7197265625 530 54.7197265625 530 62.51953125 537.5 c 128,-1,42
 70.3193359375 545 70.3193359375 545 79.6806640625 551.5 c 128,-1,43
 89.0400390625 558 89.0400390625 558 97.619140625 563.5 c 128,-1,44
 106.200195312 569 106.200195312 569 110.880859375 572 c 0,45,46
 128.040039062 584 128.040039062 584 129.599609375 592 c 0,47,48
 129.599609375 596 129.599609375 596 123.359375 596 c 0,49,50
 109.319335938 596 109.319335938 596 92.16015625 586.5 c 128,-1,51
 75 577 75 577 60.9599609375 563 c 128,-1,52
 46.919921875 549 46.919921875 549 36.7802734375 535 c 128,-1,53
 26.640625 521 26.640625 521 26.640625 513 c 256,54,55
 26.640625 505 26.640625 505 32.880859375 505 c 0,56,57
 45.359375 505 45.359375 505 53.16015625 524 c 0,40,41
268.440429688 380 m 0,58,59
 288.719726562 380 288.719726562 380 309 388.5 c 128,-1,60
 329.280273438 397 329.280273438 397 344.880859375 411.5 c 128,-1,61
 360.48046875 426 360.48046875 426 371.400390625 444 c 128,-1,62
 382.319335938 462 382.319335938 462 382.319335938 480 c 0,63,64
 382.319335938 516 382.319335938 516 350.33984375 542 c 128,-1,65
 318.359375 568 318.359375 568 266.880859375 568 c 256,66,67
 215.400390625 568 215.400390625 568 178.740234375 545.5 c 128,-1,68
 142.080078125 523 142.080078125 523 142.080078125 484 c 0,69,70
 142.080078125 470 142.080078125 470 149.880859375 452 c 128,-1,71
 157.680664062 434 157.680664062 434 174.059570312 417.5 c 128,-1,72
 190.440429688 401 190.440429688 401 214.619140625 390.5 c 128,-1,73
 238.799804688 380 238.799804688 380 268.440429688 380 c 0,58,59
36 480 m 0,74,75
 36 489 36 489 25.080078125 489 c 0,76,77
 17.2802734375 489 17.2802734375 489 14.9404296875 486 c 128,-1,78
 12.599609375 483 12.599609375 483 12.599609375 480 c 0,79,80
 12.599609375 478 12.599609375 478 14.16015625 476 c 0,81,82
 17.2802734375 472 17.2802734375 472 23.51953125 472 c 0,83,84
 26.640625 472 26.640625 472 31.3193359375 474 c 128,-1,85
 36 476 36 476 36 480 c 0,74,75
260.640625 75 m 0,86,87
 337.080078125 75 337.080078125 75 365.16015625 100.5 c 128,-1,88
 393.240234375 126 393.240234375 126 393.240234375 173 c 0,89,90
 393.240234375 192 393.240234375 192 380.759765625 213 c 128,-1,91
 368.280273438 234 368.280273438 234 350.33984375 251.5 c 128,-1,92
 332.400390625 269 332.400390625 269 311.33984375 280.5 c 128,-1,93
 290.280273438 292 290.280273438 292 273.119140625 292 c 0,94,95
 249.719726562 292 249.719726562 292 225.540039062 280 c 128,-1,96
 201.359375 268 201.359375 268 181.859375 250 c 128,-1,97
 162.359375 232 162.359375 232 150.66015625 210 c 128,-1,98
 138.959960938 188 138.959960938 188 138.959960938 167 c 0,99,100
 138.959960938 151 138.959960938 151 147.540039062 134.5 c 128,-1,101
 156.119140625 118 156.119140625 118 171.719726562 104.5 c 128,-1,102
 187.319335938 91 187.319335938 91 209.940429688 83 c 128,-1,103
 232.559570312 75 232.559570312 75 260.640625 75 c 0,86,87
42.240234375 227 m 256,104,105
 46.919921875 235 46.919921875 235 42.240234375 238.5 c 128,-1,106
 37.5595703125 242 37.5595703125 242 26.640625 234 c 0,107,108
 21.9599609375 231 21.9599609375 231 14.16015625 223.5 c 128,-1,109
 6.359375 216 6.359375 216 -0.66015625 207 c 128,-1,110
 -7.6806640625 198 -7.6806640625 198 -13.140625 188 c 128,-1,111
 -18.599609375 178 -18.599609375 178 -18.599609375 170 c 0,112,113
 -20.16015625 162 -20.16015625 162 -14.7001953125 154 c 128,-1,114
 -9.240234375 146 -9.240234375 146 1.6806640625 146 c 0,115,116
 14.16015625 146 14.16015625 146 12.599609375 159 c 128,-1,117
 11.0400390625 172 11.0400390625 172 14.16015625 183 c 0,118,119
 18.83984375 198 18.83984375 198 28.2001953125 208.5 c 128,-1,120
 37.5595703125 219 37.5595703125 219 42.240234375 227 c 256,104,105
EndSplineSet
EndChar

StartChar: nine
Encoding: 57 57 27
Width: 540
Flags: W
LayerCount: 2
Fore
SplineSet
266.880859375 623 m 0,0,1
 352.680664062 623 352.680664062 623 410.400390625 601.5 c 128,-1,2
 468.119140625 580 468.119140625 580 502.440429688 546 c 128,-1,3
 536.759765625 512 536.759765625 512 551.580078125 470 c 128,-1,4
 566.400390625 428 566.400390625 428 566.400390625 387 c 0,5,6
 566.400390625 336 566.400390625 336 548.459960938 284 c 128,-1,7
 530.51953125 232 530.51953125 232 498.540039062 185 c 128,-1,8
 466.559570312 138 466.559570312 138 422.880859375 99 c 128,-1,9
 379.200195312 60 379.200195312 60 327.719726562 34 c 0,10,11
 285.599609375 13 285.599609375 13 241.140625 2.5 c 128,-1,12
 196.680664062 -8 196.680664062 -8 162.359375 -8 c 0,13,14
 134.280273438 -8 134.280273438 -8 114.780273438 -1.5 c 128,-1,15
 95.2802734375 5 95.2802734375 5 95.2802734375 21 c 0,16,17
 95.2802734375 36 95.2802734375 36 107.759765625 51.5 c 128,-1,18
 120.240234375 67 120.240234375 67 162.359375 76 c 0,19,20
 202.919921875 85 202.919921875 85 234.900390625 100 c 128,-1,21
 266.880859375 115 266.880859375 115 291.83984375 135 c 128,-1,22
 316.799804688 155 316.799804688 155 334.740234375 178.5 c 128,-1,23
 352.680664062 202 352.680664062 202 366.719726562 227 c 0,24,25
 374.51953125 239 374.51953125 239 380.759765625 257.5 c 128,-1,26
 387 276 387 276 387 287 c 0,27,28
 387 297 387 297 380.759765625 297 c 0,29,30
 376.080078125 297 376.080078125 297 365.940429688 289 c 128,-1,31
 355.799804688 281 355.799804688 281 335.51953125 272 c 128,-1,32
 315.240234375 263 315.240234375 263 284.040039062 255 c 128,-1,33
 252.83984375 247 252.83984375 247 206.040039062 247 c 0,34,35
 96.83984375 247 96.83984375 247 35.2197265625 295 c 128,-1,36
 -26.400390625 343 -26.400390625 343 -26.400390625 425 c 0,37,38
 -26.400390625 463 -26.400390625 463 -7.6806640625 499 c 128,-1,39
 11.0400390625 535 11.0400390625 535 48.48046875 562.5 c 128,-1,40
 85.919921875 590 85.919921875 590 140.51953125 606.5 c 128,-1,41
 195.119140625 623 195.119140625 623 266.880859375 623 c 0,0,1
274.680664062 535 m 0,42,43
 209.16015625 535 209.16015625 535 169.380859375 508 c 128,-1,44
 129.599609375 481 129.599609375 481 129.599609375 432 c 0,45,46
 129.599609375 390 129.599609375 390 158.459960938 364.5 c 128,-1,47
 187.319335938 339 187.319335938 339 238.799804688 339 c 0,48,49
 270 339 270 339 298.859375 347 c 128,-1,50
 327.719726562 355 327.719726562 355 349.559570312 368 c 128,-1,51
 371.400390625 381 371.400390625 381 385.440429688 398.5 c 128,-1,52
 399.48046875 416 399.48046875 416 399.48046875 434 c 0,53,54
 399.48046875 455 399.48046875 455 394.01953125 473 c 128,-1,55
 388.559570312 491 388.559570312 491 374.51953125 505 c 128,-1,56
 360.48046875 519 360.48046875 519 336.299804688 527 c 128,-1,57
 312.119140625 535 312.119140625 535 274.680664062 535 c 0,42,43
51.599609375 486 m 0,58,59
 54.7197265625 496 54.7197265625 496 58.619140625 503.5 c 128,-1,60
 62.51953125 511 62.51953125 511 62.51953125 517 c 0,61,62
 62.51953125 524 62.51953125 524 51.599609375 524 c 0,63,64
 46.919921875 524 46.919921875 524 38.33984375 511 c 128,-1,65
 29.759765625 498 29.759765625 498 22.740234375 480 c 128,-1,66
 15.7197265625 462 15.7197265625 462 11.0400390625 444 c 128,-1,67
 6.359375 426 6.359375 426 9.48046875 415 c 0,68,69
 14.16015625 403 14.16015625 403 21.9599609375 403 c 256,70,71
 29.759765625 403 29.759765625 403 33.66015625 410.5 c 128,-1,72
 37.5595703125 418 37.5595703125 418 40.6806640625 426 c 0,73,74
 46.919921875 443 46.919921875 443 46.919921875 457 c 128,-1,75
 46.919921875 471 46.919921875 471 51.599609375 486 c 0,58,59
45.359375 380 m 0,76,77
 45.359375 385 45.359375 385 43.01953125 388.5 c 128,-1,78
 40.6806640625 392 40.6806640625 392 36 392 c 0,79,80
 28.2001953125 392 28.2001953125 392 21.9599609375 389 c 128,-1,81
 15.7197265625 386 15.7197265625 386 15.7197265625 376 c 0,82,83
 15.7197265625 373 15.7197265625 373 19.619140625 370 c 128,-1,84
 23.51953125 367 23.51953125 367 29.759765625 367 c 0,85,86
 39.119140625 367 39.119140625 367 42.240234375 372.5 c 128,-1,87
 45.359375 378 45.359375 378 45.359375 380 c 0,76,77
157.680664062 58 m 2,88,89
 157.680664062 61 157.680664062 61 150.66015625 60 c 128,-1,90
 143.640625 59 143.640625 59 135.83984375 55 c 128,-1,91
 128.040039062 51 128.040039062 51 121.799804688 44 c 128,-1,92
 115.559570312 37 115.559570312 37 115.559570312 28 c 0,93,94
 115.559570312 26 115.559570312 26 117.900390625 20 c 128,-1,95
 120.240234375 14 120.240234375 14 126.48046875 14 c 0,96,97
 131.16015625 14 131.16015625 14 136.619140625 20.5 c 128,-1,98
 142.080078125 27 142.080078125 27 146.759765625 35.5 c 128,-1,99
 151.440429688 44 151.440429688 44 154.559570312 51 c 128,-1,100
 157.680664062 58 157.680664062 58 157.680664062 58 c 2,88,89
EndSplineSet
EndChar

StartChar: colon
Encoding: 58 58 28
Width: 540
VWidth: 1024
Flags: W
LayerCount: 2
Fore
SplineSet
181.099609375 -32.7998046875 m 0,0,1
 181.099609375 20.400390625 181.099609375 20.400390625 207 42.099609375 c 128,-1,2
 232.900390625 63.7998046875 232.900390625 63.7998046875 267.900390625 63.7998046875 c 0,3,4
 305.700195312 63.7998046875 305.700195312 63.7998046875 332.299804688 42.099609375 c 128,-1,5
 358.900390625 20.400390625 358.900390625 20.400390625 358.900390625 -32.7998046875 c 0,6,7
 358.900390625 -84.599609375 358.900390625 -84.599609375 332.299804688 -107 c 128,-1,8
 305.700195312 -129.400390625 305.700195312 -129.400390625 267.900390625 -129.400390625 c 0,9,10
 231.5 -129.400390625 231.5 -129.400390625 206.299804688 -107 c 128,-1,11
 181.099609375 -84.599609375 181.099609375 -84.599609375 181.099609375 -32.7998046875 c 0,0,1
181.099609375 581.799804688 m 0,12,13
 181.099609375 636.400390625 181.099609375 636.400390625 207 657.400390625 c 128,-1,14
 232.900390625 678.400390625 232.900390625 678.400390625 267.900390625 678.400390625 c 0,15,16
 305.700195312 678.400390625 305.700195312 678.400390625 332.299804688 656.700195312 c 128,-1,17
 358.900390625 635 358.900390625 635 358.900390625 581.799804688 c 0,18,19
 358.900390625 530 358.900390625 530 332.299804688 506.900390625 c 128,-1,20
 305.700195312 483.799804688 305.700195312 483.799804688 267.900390625 483.799804688 c 0,21,22
 231.5 483.799804688 231.5 483.799804688 206.299804688 506.900390625 c 128,-1,23
 181.099609375 530 181.099609375 530 181.099609375 581.799804688 c 0,12,13
EndSplineSet
EndChar

StartChar: semicolon
Encoding: 59 59 29
Width: 540
VWidth: 1024
Flags: W
LayerCount: 2
Fore
SplineSet
370.099609375 65 m 1,0,1
 357.5 14.599609375 357.5 14.599609375 337.900390625 -44.2001953125 c 128,-1,2
 318.299804688 -103 318.299804688 -103 294.5 -161.099609375 c 128,-1,3
 270.700195312 -219.200195312 270.700195312 -219.200195312 246.900390625 -271 c 1,4,-1
 153.099609375 -271 l 1,5,6
 162.900390625 -230.400390625 162.900390625 -230.400390625 173.400390625 -184.900390625 c 128,-1,7
 183.900390625 -139.400390625 183.900390625 -139.400390625 194.400390625 -92.5 c 128,-1,8
 204.900390625 -45.599609375 204.900390625 -45.599609375 212.599609375 -1.5 c 128,-1,9
 220.299804688 42.599609375 220.299804688 42.599609375 225.900390625 80.400390625 c 1,10,-1
 360.299804688 80.400390625 l 1,11,-1
 370.099609375 65 l 1,0,1
209.099609375 605.400390625 m 0,12,13
 209.099609375 660 209.099609375 660 235 681 c 128,-1,14
 260.900390625 702 260.900390625 702 295.900390625 702 c 0,15,16
 333.700195312 702 333.700195312 702 360.299804688 680.299804688 c 128,-1,17
 386.900390625 658.599609375 386.900390625 658.599609375 386.900390625 605.400390625 c 0,18,19
 386.900390625 553.599609375 386.900390625 553.599609375 360.299804688 530.5 c 128,-1,20
 333.700195312 507.400390625 333.700195312 507.400390625 295.900390625 507.400390625 c 0,21,22
 259.5 507.400390625 259.5 507.400390625 234.299804688 530.5 c 128,-1,23
 209.099609375 553.599609375 209.099609375 553.599609375 209.099609375 605.400390625 c 0,12,13
EndSplineSet
EndChar

StartChar: less
Encoding: 60 60 30
Width: 540
VWidth: 1024
Flags: W
LayerCount: 2
Fore
SplineSet
511.5 119 m 1,0,-1
 28.5 331 l 1,1,-1
 28.5 382 l 1,2,-1
 511.5 623 l 1,3,-1
 511.5 543 l 1,4,-1
 124.5 360 l 1,5,-1
 511.5 199 l 1,6,-1
 511.5 119 l 1,0,-1
EndSplineSet
EndChar

StartChar: equal
Encoding: 61 61 31
Width: 540
VWidth: 1024
Flags: W
LayerCount: 2
Fore
SplineSet
35.5 426 m 1,0,-1
 35.5 499 l 1,1,-1
 504.5 499 l 1,2,-1
 504.5 426 l 1,3,-1
 35.5 426 l 1,0,-1
35.5 222 m 1,4,-1
 35.5 295 l 1,5,-1
 504.5 295 l 1,6,-1
 504.5 222 l 1,7,-1
 35.5 222 l 1,4,-1
EndSplineSet
EndChar

StartChar: greater
Encoding: 62 62 32
Width: 540
VWidth: 1024
Flags: W
LayerCount: 2
Fore
SplineSet
28.5 199 m 1,0,-1
 414.5 359 l 1,1,-1
 28.5 543 l 1,2,-1
 28.5 623 l 1,3,-1
 511.5 382 l 1,4,-1
 511.5 331 l 1,5,-1
 28.5 119 l 1,6,-1
 28.5 199 l 1,0,-1
EndSplineSet
EndChar

StartChar: question
Encoding: 63 63 33
Width: 540
VWidth: 1024
Flags: W
LayerCount: 2
Fore
SplineSet
198 204 m 6,0,1
 198 243 198 243 206 271 c 132,-1,2
 214 299 214 299 233 324.5 c 132,-1,3
 252 350 252 350 284 378 c 4,4,5
 324 412 324 412 346 434.5 c 132,-1,6
 368 457 368 457 377.5 478.5 c 132,-1,7
 387 500 387 500 387 530 c 4,8,9
 387 579 387 579 355 606 c 132,-1,10
 323 633 323 633 263 633 c 4,11,12
 213 633 213 633 174 620 c 132,-1,13
 135 607 135 607 99 590 c 5,14,-1
 67 662 l 5,15,16
 108 684 108 684 158 698 c 132,-1,17
 208 712 208 712 269 712 c 4,18,19
 366 712 366 712 419.5 663.5 c 132,-1,20
 473 615 473 615 473 532 c 4,21,22
 473 486 473 486 458 454 c 132,-1,23
 443 422 443 422 416 395 c 132,-1,24
 389 368 389 368 352 337 c 4,25,26
 318 308 318 308 300 286.5 c 132,-1,27
 282 265 282 265 276 244 c 132,-1,28
 270 223 270 223 270 194 c 6,29,-1
 270 176 l 5,30,-1
 198 176 l 5,31,-1
 198 204 l 6,0,1
175 26 m 4,32,33
 175 64 175 64 193 79 c 132,-1,34
 211 94 211 94 238 94 c 4,35,36
 264 94 264 94 282.5 78.5 c 132,-1,37
 301 63 301 63 301 26 c 4,38,39
 301 -11 301 -11 282.5 -27.5 c 132,-1,40
 264 -44 264 -44 238 -44 c 4,41,42
 210 -44 210 -44 192.5 -27.5 c 132,-1,43
 175 -11 175 -11 175 26 c 4,32,33
EndSplineSet
EndChar

StartChar: at
Encoding: 64 64 34
Width: 540
VWidth: 1024
Flags: W
LayerCount: 2
Fore
SplineSet
253.349609375 -9 m 0,0,1
 202.049804688 -9 202.049804688 -9 158.849609375 14.400390625 c 128,-1,2
 115.650390625 37.7998046875 115.650390625 37.7998046875 84.599609375 80.400390625 c 128,-1,3
 53.5498046875 123 53.5498046875 123 36.4501953125 183.599609375 c 128,-1,4
 19.349609375 244.200195312 19.349609375 244.200195312 19.349609375 317.400390625 c 0,5,6
 19.349609375 401.400390625 19.349609375 401.400390625 39.150390625 472.799804688 c 128,-1,7
 58.9501953125 544.200195312 58.9501953125 544.200195312 94.5 597.599609375 c 128,-1,8
 130.049804688 651 130.049804688 651 178.200195312 681 c 128,-1,9
 226.349609375 711 226.349609375 711 282.150390625 711 c 256,10,11
 337.950195312 711 337.950195312 711 382.5 685.799804688 c 128,-1,12
 427.049804688 660.599609375 427.049804688 660.599609375 457.650390625 616.200195312 c 128,-1,13
 488.25 571.799804688 488.25 571.799804688 504.450195312 513.599609375 c 128,-1,14
 520.650390625 455.400390625 520.650390625 455.400390625 520.650390625 389.400390625 c 0,15,16
 520.650390625 341.400390625 520.650390625 341.400390625 511.200195312 300 c 128,-1,17
 501.75 258.599609375 501.75 258.599609375 485.099609375 227.400390625 c 128,-1,18
 468.450195312 196.200195312 468.450195312 196.200195312 446.400390625 178.200195312 c 128,-1,19
 424.349609375 160.200195312 424.349609375 160.200195312 399.150390625 160.200195312 c 0,20,21
 379.349609375 160.200195312 379.349609375 160.200195312 367.650390625 170.400390625 c 128,-1,22
 355.950195312 180.599609375 355.950195312 180.599609375 349.200195312 192.599609375 c 128,-1,23
 342.450195312 204.599609375 342.450195312 204.599609375 337.950195312 214.799804688 c 128,-1,24
 333.450195312 225 333.450195312 225 329.849609375 225 c 256,25,26
 326.25 225 326.25 225 318.150390625 214.200195312 c 128,-1,27
 310.049804688 203.400390625 310.049804688 203.400390625 297.900390625 192 c 128,-1,28
 285.75 180.599609375 285.75 180.599609375 270 169.799804688 c 128,-1,29
 254.25 159 254.25 159 235.349609375 159 c 256,30,31
 215.549804688 159 215.549804688 159 198.900390625 171 c 128,-1,32
 182.25 183 182.25 183 170.549804688 204 c 128,-1,33
 158.849609375 225 158.849609375 225 151.650390625 252.599609375 c 128,-1,34
 144.450195312 280.200195312 144.450195312 280.200195312 144.450195312 312.599609375 c 0,35,36
 144.450195312 354.599609375 144.450195312 354.599609375 155.25 393.599609375 c 128,-1,37
 166.049804688 432.599609375 166.049804688 432.599609375 183.150390625 462.599609375 c 128,-1,38
 200.25 492.599609375 200.25 492.599609375 222.75 510.599609375 c 128,-1,39
 245.25 528.599609375 245.25 528.599609375 269.549804688 528.599609375 c 0,40,41
 281.25 528.599609375 281.25 528.599609375 288.450195312 523.799804688 c 128,-1,42
 295.650390625 519 295.650390625 519 300.599609375 514.200195312 c 128,-1,43
 305.549804688 509.400390625 305.549804688 509.400390625 308.25 505.200195312 c 128,-1,44
 310.950195312 501 310.950195312 501 313.650390625 501 c 256,45,46
 316.349609375 501 316.349609375 501 319.049804688 506.400390625 c 128,-1,47
 321.75 511.799804688 321.75 511.799804688 325.349609375 517.799804688 c 128,-1,48
 328.950195312 523.799804688 328.950195312 523.799804688 334.799804688 529.799804688 c 128,-1,49
 340.650390625 535.799804688 340.650390625 535.799804688 349.650390625 535.799804688 c 0,50,51
 369.450195312 535.799804688 369.450195312 535.799804688 376.650390625 512.400390625 c 128,-1,52
 383.849609375 489 383.849609375 489 385.200195312 457.799804688 c 128,-1,53
 386.549804688 426.599609375 386.549804688 426.599609375 384.75 394.799804688 c 128,-1,54
 382.950195312 363 382.950195312 363 382.950195312 348.599609375 c 0,55,56
 382.950195312 333 382.950195312 333 385.650390625 316.200195312 c 128,-1,57
 388.349609375 299.400390625 388.349609375 299.400390625 392.849609375 285 c 128,-1,58
 397.349609375 270.599609375 397.349609375 270.599609375 402.75 262.200195312 c 128,-1,59
 408.150390625 253.799804688 408.150390625 253.799804688 414.450195312 253.799804688 c 0,60,61
 425.25 253.799804688 425.25 253.799804688 434.700195312 283.200195312 c 128,-1,62
 444.150390625 312.599609375 444.150390625 312.599609375 444.150390625 361.799804688 c 0,63,64
 444.150390625 420.599609375 444.150390625 420.599609375 436.049804688 467.400390625 c 128,-1,65
 427.950195312 514.200195312 427.950195312 514.200195312 409.950195312 547.200195312 c 128,-1,66
 391.950195312 580.200195312 391.950195312 580.200195312 362.25 597.599609375 c 128,-1,67
 332.549804688 615 332.549804688 615 290.25 615 c 256,68,69
 247.950195312 615 247.950195312 615 212.400390625 593.400390625 c 128,-1,70
 176.849609375 571.799804688 176.849609375 571.799804688 151.200195312 534 c 128,-1,71
 125.549804688 496.200195312 125.549804688 496.200195312 111.150390625 444.599609375 c 128,-1,72
 96.75 393 96.75 393 96.75 333 c 0,73,74
 96.75 279 96.75 279 109.349609375 233.400390625 c 128,-1,75
 121.950195312 187.799804688 121.950195312 187.799804688 144 154.799804688 c 128,-1,76
 166.049804688 121.799804688 166.049804688 121.799804688 195.75 103.200195312 c 128,-1,77
 225.450195312 84.599609375 225.450195312 84.599609375 258.75 84.599609375 c 0,78,79
 283.049804688 84.599609375 283.049804688 84.599609375 307.349609375 92.400390625 c 128,-1,80
 331.650390625 100.200195312 331.650390625 100.200195312 353.700195312 110.400390625 c 128,-1,81
 375.75 120.599609375 375.75 120.599609375 395.549804688 128.400390625 c 128,-1,82
 415.349609375 136.200195312 415.349609375 136.200195312 430.650390625 136.200195312 c 0,83,84
 456.75 136.200195312 456.75 136.200195312 456.75 109.799804688 c 0,85,86
 456.75 89.400390625 456.75 89.400390625 438.75 67.7998046875 c 128,-1,87
 420.75 46.2001953125 420.75 46.2001953125 391.5 28.7998046875 c 128,-1,88
 362.25 11.400390625 362.25 11.400390625 325.799804688 1.2001953125 c 128,-1,89
 289.349609375 -9 289.349609375 -9 253.349609375 -9 c 0,0,1
177.75 378.599609375 m 0,90,91
 181.349609375 378.599609375 181.349609375 378.599609375 185.849609375 391.200195312 c 128,-1,92
 190.349609375 403.799804688 190.349609375 403.799804688 192.150390625 406.200195312 c 0,93,94
 199.349609375 423 199.349609375 423 208.799804688 438 c 128,-1,95
 218.25 453 218.25 453 229.049804688 466.200195312 c 0,96,97
 233.549804688 472.200195312 233.549804688 472.200195312 228.150390625 472.200195312 c 0,98,99
 221.849609375 472.200195312 221.849609375 472.200195312 211.950195312 462 c 128,-1,100
 202.049804688 451.799804688 202.049804688 451.799804688 193.5 438 c 128,-1,101
 184.950195312 424.200195312 184.950195312 424.200195312 179.099609375 409.799804688 c 128,-1,102
 173.25 395.400390625 173.25 395.400390625 173.25 387 c 0,103,104
 173.25 384.599609375 173.25 384.599609375 174.599609375 381.599609375 c 128,-1,105
 175.950195312 378.599609375 175.950195312 378.599609375 177.75 378.599609375 c 0,90,91
256.950195312 259.799804688 m 0,106,107
 265.950195312 259.799804688 265.950195312 259.799804688 275.849609375 271.200195312 c 128,-1,108
 285.75 282.599609375 285.75 282.599609375 294.299804688 299.400390625 c 128,-1,109
 302.849609375 316.200195312 302.849609375 316.200195312 307.799804688 338.400390625 c 128,-1,110
 312.75 360.599609375 312.75 360.599609375 312.75 383.400390625 c 0,111,112
 312.75 435 312.75 435 283.049804688 435 c 0,113,114
 271.349609375 435 271.349609375 435 259.200195312 426 c 128,-1,115
 247.049804688 417 247.049804688 417 237.599609375 402.599609375 c 128,-1,116
 228.150390625 388.200195312 228.150390625 388.200195312 222.299804688 369.599609375 c 128,-1,117
 216.450195312 351 216.450195312 351 216.450195312 331.799804688 c 0,118,119
 216.450195312 300.599609375 216.450195312 300.599609375 225.900390625 280.200195312 c 128,-1,120
 235.349609375 259.799804688 235.349609375 259.799804688 256.950195312 259.799804688 c 0,106,107
175.950195312 347.400390625 m 0,121,122
 175.950195312 355.799804688 175.950195312 355.799804688 171.450195312 358.200195312 c 0,123,124
 168.75 359.400390625 168.75 359.400390625 165.599609375 355.200195312 c 128,-1,125
 162.450195312 351 162.450195312 351 162.450195312 347.400390625 c 0,126,127
 162.450195312 342.599609375 162.450195312 342.599609375 164.700195312 338.400390625 c 128,-1,128
 166.950195312 334.200195312 166.950195312 334.200195312 169.650390625 334.200195312 c 256,129,130
 172.349609375 334.200195312 172.349609375 334.200195312 174.150390625 339 c 128,-1,131
 175.950195312 343.799804688 175.950195312 343.799804688 175.950195312 347.400390625 c 0,121,122
EndSplineSet
EndChar

StartChar: A
Encoding: 65 65 35
Width: 540
GlyphClass: 2
Flags: W
LayerCount: 2
Fore
SplineSet
277.080078125 621 m 4,0,1
 314.83984375 621 314.83984375 621 339.620117188 611 c 132,-1,2
 364.400390625 601 364.400390625 601 373.83984375 587 c 4,3,4
 380.919921875 575 380.919921875 575 394.490234375 534 c 132,-1,5
 408.059570312 493 408.059570312 493 423.990234375 437 c 132,-1,6
 439.919921875 381 439.919921875 381 457.030273438 318 c 132,-1,7
 474.139648438 255 474.139648438 255 488.299804688 199 c 132,-1,8
 502.459960938 143 502.459960938 143 511.309570312 101.5 c 132,-1,9
 520.16015625 60 520.16015625 60 520.16015625 48 c 4,10,11
 520.16015625 28 520.16015625 28 495.379882812 12.5 c 132,-1,12
 470.599609375 -3 470.599609375 -3 442.280273438 -3 c 260,13,14
 413.959960938 -3 413.959960938 -3 403.33984375 11 c 4,15,16
 398.620117188 17 398.620117188 17 391.540039062 32 c 132,-1,17
 384.459960938 47 384.459960938 47 377.379882812 67 c 132,-1,18
 370.299804688 87 370.299804688 87 363.809570312 109 c 132,-1,19
 357.3203125 131 357.3203125 131 352.599609375 152 c 4,20,21
 347.879882812 172 347.879882812 172 339.030273438 176.5 c 132,-1,22
 330.1796875 181 330.1796875 181 318.379882812 181 c 4,23,24
 284.16015625 181 284.16015625 181 258.200195312 181.5 c 132,-1,25
 232.240234375 182 232.240234375 182 219.259765625 182 c 4,26,27
 195.66015625 182 195.66015625 182 184.450195312 177.5 c 132,-1,28
 173.240234375 173 173.240234375 173 169.700195312 162 c 6,29,-1
 139.01953125 62 l 6,30,31
 129.580078125 33 129.580078125 33 108.9296875 15.5 c 132,-1,32
 88.2802734375 -2 88.2802734375 -2 62.3203125 -2 c 4,33,34
 19.83984375 -2 19.83984375 -2 19.83984375 48 c 4,35,36
 19.83984375 65 19.83984375 65 24.5595703125 95.5 c 132,-1,37
 29.2802734375 126 29.2802734375 126 36.9501953125 164.5 c 132,-1,38
 44.6201171875 203 44.6201171875 203 55.830078125 246.5 c 132,-1,39
 67.0400390625 290 67.0400390625 290 79.4296875 334.5 c 132,-1,40
 91.8203125 379 91.8203125 379 104.799804688 421 c 132,-1,41
 117.780273438 463 117.780273438 463 130.759765625 497 c 4,42,43
 144.919921875 535 144.919921875 535 159.669921875 559 c 132,-1,44
 174.419921875 583 174.419921875 583 190.940429688 597 c 132,-1,45
 207.459960938 611 207.459960938 611 228.110351562 616 c 132,-1,46
 248.759765625 621 248.759765625 621 277.080078125 621 c 4,0,1
205.099609375 561 m 4,47,48
 218.080078125 574 218.080078125 574 228.700195312 585.5 c 132,-1,49
 239.3203125 597 239.3203125 597 231.059570312 598 c 4,50,51
 212.1796875 601 212.1796875 601 193.299804688 579 c 4,52,53
 180.3203125 562 180.3203125 562 174.419921875 543 c 132,-1,54
 168.51953125 524 168.51953125 524 177.959960938 522 c 4,55,56
 180.3203125 522 180.3203125 522 182.6796875 525.5 c 132,-1,57
 185.040039062 529 185.040039062 529 187.400390625 535 c 132,-1,58
 189.759765625 541 189.759765625 541 193.889648438 548 c 132,-1,59
 198.01953125 555 198.01953125 555 205.099609375 561 c 4,47,48
223.98046875 377 m 4,60,61
 211 320 211 320 206.870117188 298.5 c 132,-1,62
 202.740234375 277 202.740234375 277 213.360351562 277 c 6,63,-1
 317.200195312 277 l 6,64,65
 326.639648438 277 326.639648438 277 321.919921875 296.5 c 132,-1,66
 317.200195312 316 317.200195312 316 307.759765625 357 c 4,67,68
 305.400390625 368 305.400390625 368 301.860351562 393.5 c 132,-1,69
 298.3203125 419 298.3203125 419 293.009765625 445 c 132,-1,70
 287.700195312 471 287.700195312 471 281.799804688 491.5 c 132,-1,71
 275.900390625 512 275.900390625 512 268.8203125 512 c 4,72,73
 262.919921875 512 262.919921875 512 255.83984375 494 c 132,-1,74
 248.759765625 476 248.759765625 476 242.26953125 452.5 c 132,-1,75
 235.780273438 429 235.780273438 429 231.059570312 407 c 132,-1,76
 226.33984375 385 226.33984375 385 223.98046875 377 c 4,60,61
57.599609375 63 m 4,77,78
 59.9599609375 75 59.9599609375 75 57.599609375 82 c 132,-1,79
 55.240234375 89 55.240234375 89 50.51953125 90 c 4,80,81
 48.16015625 90 48.16015625 90 45.2099609375 87.5 c 132,-1,82
 42.259765625 85 42.259765625 85 39.900390625 77 c 4,83,84
 35.1796875 57 35.1796875 57 38.7197265625 38.5 c 132,-1,85
 42.259765625 20 42.259765625 20 51.7001953125 18 c 4,86,87
 63.5 16 63.5 16 56.419921875 33 c 4,88,89
 54.0595703125 39 54.0595703125 39 54.650390625 46.5 c 132,-1,90
 55.240234375 54 55.240234375 54 57.599609375 63 c 4,77,78
417.5 64 m 4,91,92
 409.240234375 78 409.240234375 78 406.879882812 83 c 132,-1,93
 404.51953125 88 404.51953125 88 402.16015625 88 c 4,94,95
 398.620117188 88 398.620117188 88 396.259765625 78 c 4,96,97
 396.259765625 74 396.259765625 74 399.209960938 63.5 c 132,-1,98
 402.16015625 53 402.16015625 53 406.879882812 42.5 c 132,-1,99
 411.599609375 32 411.599609375 32 418.08984375 24 c 132,-1,100
 424.580078125 16 424.580078125 16 430.48046875 16 c 4,101,102
 434.01953125 16 434.01953125 16 434.01953125 21 c 132,-1,103
 434.01953125 26 434.01953125 26 431.0703125 34 c 132,-1,104
 428.120117188 42 428.120117188 42 424.580078125 50 c 132,-1,105
 421.040039062 58 421.040039062 58 417.5 64 c 4,91,92
EndSplineSet
EndChar

StartChar: B
Encoding: 66 66 36
Width: 540
GlyphClass: 2
Flags: W
LayerCount: 2
Fore
SplineSet
75.5 0 m 6,0,1
 47.5 0 47.5 0 37 22 c 132,-1,2
 26.5 44 26.5 44 26.5 103 c 6,3,-1
 26.5 531 l 6,4,5
 26.5 574 26.5 574 39.5 595 c 132,-1,6
 52.5 616 52.5 616 86.5 616 c 4,7,8
 105.5 616 105.5 616 144.5 617.5 c 132,-1,9
 183.5 619 183.5 619 353.5 619 c 4,10,11
 386.5 619 386.5 619 413.5 607 c 132,-1,12
 440.5 595 440.5 595 460 574 c 132,-1,13
 479.5 553 479.5 553 490.5 524 c 132,-1,14
 501.5 495 501.5 495 501.5 461 c 4,15,16
 501.5 421 501.5 421 490.5 394 c 132,-1,17
 479.5 367 479.5 367 462.5 350.5 c 132,-1,18
 445.5 334 445.5 334 426.5 325.5 c 132,-1,19
 407.5 317 407.5 317 390.5 313.5 c 132,-1,20
 373.5 310 373.5 310 362.5 308.5 c 132,-1,21
 351.5 307 351.5 307 351.5 305 c 260,22,23
 351.5 303 351.5 303 363.5 303 c 132,-1,24
 375.5 303 375.5 303 393.5 301.5 c 132,-1,25
 411.5 300 411.5 300 432.5 293.5 c 132,-1,26
 453.5 287 453.5 287 471.5 272 c 132,-1,27
 489.5 257 489.5 257 501.5 230.5 c 132,-1,28
 513.5 204 513.5 204 513.5 162 c 4,29,30
 513.5 122 513.5 122 496.5 91.5 c 132,-1,31
 479.5 61 479.5 61 452 41 c 132,-1,32
 424.5 21 424.5 21 391 10.5 c 132,-1,33
 357.5 0 357.5 0 324.5 0 c 6,34,-1
 75.5 0 l 6,0,1
62.5 535 m 4,35,36
 61.5 537 61.5 537 60.5 539 c 4,37,38
 57.5 544 57.5 544 57.5 552 c 4,39,40
 57.5 565 57.5 565 68 577.5 c 132,-1,41
 78.5 590 78.5 590 91.5 589 c 4,42,43
 97.5 589 97.5 589 100.5 592.5 c 132,-1,44
 103.5 596 103.5 596 103.5 598 c 4,45,46
 103.5 601 103.5 601 99 603 c 132,-1,47
 94.5 605 94.5 605 89.5 605 c 4,48,49
 69.5 605 69.5 605 55 587.5 c 132,-1,50
 40.5 570 40.5 570 40.5 545 c 4,51,52
 40.5 534 40.5 534 43.5 526.5 c 132,-1,53
 46.5 519 46.5 519 51.5 519 c 4,54,55
 54.5 519 54.5 519 58.5 523.5 c 4,56,57
 64.5 531 64.5 531 62.5 535 c 4,35,36
308.5 356 m 6,58,59
 342.5 356 342.5 356 365 384.5 c 132,-1,60
 387.5 413 387.5 413 387.5 456 c 4,61,62
 387.5 486 387.5 486 373.5 506 c 132,-1,63
 359.5 526 359.5 526 327.5 526 c 6,64,-1
 155.5 526 l 6,65,66
 138.5 526 138.5 526 136.5 514 c 132,-1,67
 134.5 502 134.5 502 134.5 492 c 6,68,-1
 134.5 388 l 6,69,70
 134.5 374 134.5 374 140 365 c 132,-1,71
 145.5 356 145.5 356 153.5 356 c 6,72,-1
 308.5 356 l 6,58,59
315.5 91 m 6,73,74
 351.5 91 351.5 91 375.5 109.5 c 132,-1,75
 399.5 128 399.5 128 399.5 173 c 4,76,77
 399.5 217 399.5 217 373 233 c 132,-1,78
 346.5 249 346.5 249 303.5 249 c 6,79,-1
 153.5 249 l 6,80,81
 134.5 249 134.5 249 134.5 209 c 6,82,-1
 134.5 127 l 6,83,84
 134.5 103 134.5 103 139 97 c 132,-1,85
 143.5 91 143.5 91 162.5 91 c 6,86,-1
 315.5 91 l 6,73,74
52.5 73 m 4,87,88
 54.5 73 54.5 73 56 83 c 132,-1,89
 57.5 93 57.5 93 58 106 c 132,-1,90
 58.5 119 58.5 119 58.5 131.5 c 132,-1,91
 58.5 144 58.5 144 58.5 148 c 4,92,93
 58.5 177 58.5 177 56 183.5 c 132,-1,94
 53.5 190 53.5 190 50.5 190 c 4,95,96
 48.5 190 48.5 190 46 183.5 c 132,-1,97
 43.5 177 43.5 177 43.5 148 c 4,98,99
 43.5 105 43.5 105 45 89 c 132,-1,100
 46.5 73 46.5 73 52.5 73 c 4,87,88
52.5 59 m 4,101,102
 44.5 59 44.5 59 44.5 48 c 4,103,104
 44.5 40 44.5 40 47.5 37.5 c 132,-1,105
 50.5 35 50.5 35 53.5 35 c 4,106,107
 59.5 35 59.5 35 59.5 48 c 4,108,109
 59.5 55 59.5 55 58.5 57 c 132,-1,110
 57.5 59 57.5 59 52.5 59 c 4,101,102
EndSplineSet
EndChar

StartChar: C
Encoding: 67 67 37
Width: 540
GlyphClass: 2
Flags: W
LayerCount: 2
Fore
SplineSet
272.099609375 603.049804688 m 0,0,1
 245.5 603.049804688 245.5 603.049804688 229.399414062 619.299804688 c 0,2,3
 213.299804688 635.549804688 213.299804688 635.549804688 213.299804688 662.849609375 c 0,4,5
 213.299804688 687.549804688 213.299804688 687.549804688 227.299804688 709 c 0,6,7
 241.299804688 730.450195312 241.299804688 730.450195312 272.099609375 730.450195312 c 0,8,9
 304.299804688 730.450195312 304.299804688 730.450195312 321.099609375 710.299804688 c 0,10,11
 337.899414062 690.150390625 337.899414062 690.150390625 337.899414062 662.849609375 c 0,12,13
 337.899414062 632.950195312 337.899414062 632.950195312 319 618 c 0,14,15
 300.099609375 603.049804688 300.099609375 603.049804688 272.099609375 603.049804688 c 0,0,1
246.899414062 670.650390625 m 0,16,17
 248.299804688 684.950195312 248.299804688 684.950195312 253.899414062 696.650390625 c 0,18,19
 259.5 708.349609375 259.5 708.349609375 252.5 708.349609375 c 0,20,21
 242.700195312 708.349609375 242.700195312 708.349609375 236.399414062 689.5 c 0,22,23
 230.099609375 670.650390625 230.099609375 670.650390625 230.099609375 656.349609375 c 0,24,25
 230.099609375 643.349609375 230.099609375 643.349609375 237.099609375 643.349609375 c 0,26,27
 242.700195312 643.349609375 242.700195312 643.349609375 244.099609375 653.099609375 c 0,28,29
 245.5 662.849609375 245.5 662.849609375 246.899414062 670.650390625 c 0,16,17
EndSplineSet
Refer: 69 99 S 1 0 0 1 0 0 2
EndChar

StartChar: D
Encoding: 68 68 38
Width: 540
GlyphClass: 2
Flags: W
LayerCount: 2
Fore
SplineSet
120.893554688 0 m 6,0,1
 106.114257812 -1.1064453125 106.114257812 -1.1064453125 84.66796875 4 c 4,2,3
 67.8681640625 8 67.8681640625 8 54.2177734375 18 c 4,4,5
 36.3681640625 31 36.3681640625 31 33.2177734375 45 c 4,6,7
 25.8681640625 88 25.8681640625 88 25.3427734375 88 c 6,8,-1
 25.3427734375 516 l 6,9,10
 25.8681640625 541 25.8681640625 541 35.318359375 562.5 c 4,11,12
 44.7685546875 582 44.7685546875 582 61.568359375 594.5 c 132,-1,13
 78.3681640625 607 78.3681640625 607 99.8935546875 612.5 c 4,14,15
 125.63671875 618.749023438 125.63671875 618.749023438 146.092773438 618 c 6,16,-1
 282.592773438 613 l 6,17,18
 332.467773438 611 332.467773438 611 369.743164062 593.5 c 4,19,20
 412.268554688 574 412.268554688 574 443.768554688 539 c 132,-1,21
 475.268554688 504 475.268554688 504 495.217773438 449.5 c 132,-1,22
 515.16796875 395 515.16796875 395 514.643554688 326 c 4,23,24
 515.16796875 257 515.16796875 257 494.693359375 192.5 c 132,-1,25
 474.217773438 128 474.217773438 128 441.143554688 89.5 c 4,26,27
 414.368164062 59 414.368164062 59 362.393554688 34.5 c 4,28,29
 320.836914062 14.9619140625 320.836914062 14.9619140625 267.893554688 11 c 6,30,-1
 120.893554688 0 l 6,0,1
219.592773438 96 m 6,31,32
 290.467773438 96 290.467773438 96 314.092773438 112.5 c 4,33,34
 338.768554688 129 338.768554688 129 355.568359375 159.5 c 132,-1,35
 372.368164062 190 372.368164062 190 382.868164062 233 c 132,-1,36
 393.368164062 276 393.368164062 276 392.842773438 329 c 4,37,38
 393.368164062 419 393.368164062 419 361.342773438 467 c 4,39,40
 325.118164062 520 325.118164062 520 279.443359375 520 c 6,41,-1
 263.693359375 520 l 6,42,43
 152.91796875 520 152.91796875 520 151.342773438 512.5 c 4,44,45
 145.568359375 481 145.568359375 481 145.04296875 480 c 6,46,-1
 145.04296875 132 l 6,47,48
 145.711914062 111.63671875 145.711914062 111.63671875 148.717773438 104 c 4,49,50
 151.868164062 96 151.868164062 96 205.943359375 96 c 6,51,-1
 219.592773438 96 l 6,31,32
57.8935546875 83 m 4,52,53
 62.6181640625 83 62.6181640625 83 63.66796875 93.5 c 132,-1,54
 64.7177734375 104 64.7177734375 104 65.2431640625 117.5 c 4,55,56
 64.7177734375 131 64.7177734375 131 64.7177734375 143.5 c 132,-1,57
 64.7177734375 156 64.7177734375 156 64.193359375 161 c 4,58,59
 64.7177734375 216 64.7177734375 216 57.8935546875 216 c 4,60,61
 54.2177734375 216 54.2177734375 216 51.5927734375 203.5 c 4,62,63
 47.91796875 191 47.91796875 191 48.443359375 161 c 4,64,65
 47.91796875 116 47.91796875 116 48.9677734375 99.5 c 132,-1,66
 50.0185546875 83 50.0185546875 83 57.8935546875 83 c 4,52,53
56.8427734375 69 m 4,67,68
 50.0185546875 69 50.0185546875 69 49.4931640625 58 c 4,69,70
 50.0185546875 40 50.0185546875 40 57.8935546875 40 c 4,71,72
 60.5185546875 40 60.5185546875 40 63.1435546875 46 c 4,73,74
 64.7177734375 52 64.7177734375 52 65.2431640625 58 c 4,75,76
 64.7177734375 69 64.7177734375 69 56.8427734375 69 c 4,67,68
EndSplineSet
EndChar

StartChar: E
Encoding: 69 69 39
Width: 540
GlyphClass: 2
Flags: W
LayerCount: 2
Fore
SplineSet
355.5 20 m 6,0,1
 189 20 189 20 100.5 94 c 4,2,3
 13 168 13 168 12.5 311 c 260,4,5
 13 454 13 454 99.5 528 c 132,-1,6
 186 602 186 602 355.5 602 c 6,7,-1
 527.5 602 l 5,8,-1
 527.5 531 l 5,9,-1
 343.5 531 l 6,10,11
 109 531 109 531 86.5 347 c 5,12,-1
 527.5 347 l 5,13,-1
 527.5 276 l 5,14,-1
 86.5 276 l 5,15,16
 97 185 97 185 162.5 138 c 4,17,18
 229 91 229 91 343.5 91 c 6,19,-1
 527.5 91 l 5,20,-1
 527.5 20 l 5,21,-1
 355.5 20 l 6,0,1
EndSplineSet
EndChar

StartChar: F
Encoding: 70 70 40
Width: 540
GlyphClass: 2
Flags: W
LayerCount: 2
Fore
SplineSet
93 0 m 0,0,1
 66 0 66 0 48.5 9.5 c 128,-1,2
 31 19 31 19 31 49 c 2,3,-1
 31 543 l 2,4,5
 31 582 31 582 59.5 599.5 c 0,6,7
 88.2099609375 617.12890625 88.2099609375 617.12890625 133 617 c 2,8,-1
 480 616 l 2,9,10
 491 616 491 616 500 604.5 c 128,-1,11
 509 593 509 593 509 579 c 0,12,13
 509 572 509 572 507.5 561.5 c 128,-1,14
 506 551 506 551 503 541.5 c 128,-1,15
 500 532 500 532 495.5 525.5 c 128,-1,16
 490.986328125 518.98046875 490.986328125 518.98046875 485 519 c 2,17,-1
 171 520 l 2,18,19
 145 520 145 520 145 494 c 2,20,-1
 145 345 l 2,21,22
 145 335 145 335 151.5 330.5 c 128,-1,23
 158.150390625 325.895507812 158.150390625 325.895507812 168 326 c 2,24,-1
 451 329 l 2,25,26
 459 329 459 329 465 324 c 128,-1,27
 471 319 471 319 476 310.5 c 128,-1,28
 481 302 481 302 483.5 293 c 128,-1,29
 486 284 486 284 486 276 c 0,30,31
 486 236.40234375 486 236.40234375 448 236 c 2,32,-1
 165 233 l 2,33,34
 157 233 157 233 151 227 c 128,-1,35
 145 221 145 221 145 213 c 2,36,-1
 145 48 l 2,37,38
 145 32 145 32 140.5 22.5 c 128,-1,39
 136 13 136 13 128.5 8 c 128,-1,40
 121 3 121 3 111.5 1.5 c 128,-1,41
 102 0 102 0 93 0 c 0,0,1
81 26 m 0,42,43
 80 31 80 31 71.5 42 c 128,-1,44
 63 53 63 53 61 78 c 0,45,46
 59 91 59 91 55.5 94 c 128,-1,47
 52 97 52 97 50 97 c 256,48,49
 48 97 48 97 46.5 91 c 128,-1,50
 45 85 45 85 47 75 c 0,51,52
 47 70 47 70 49 60.5 c 128,-1,53
 51 51 51 51 54.5 41.5 c 128,-1,54
 58 32 58 32 63 25 c 128,-1,55
 68 18 68 18 75 19 c 0,56,57
 81 19 81 19 81 26 c 0,42,43
EndSplineSet
EndChar

StartChar: G
Encoding: 71 71 41
Width: 540
GlyphClass: 2
Flags: W
LayerCount: 2
Fore
SplineSet
440.268554688 650.599609375 m 0,0,1
 413.668945312 650.599609375 413.668945312 650.599609375 397.568359375 666.849609375 c 128,-1,2
 381.46875 683.099609375 381.46875 683.099609375 381.46875 710.399414062 c 0,3,4
 381.46875 735.099609375 381.46875 735.099609375 395.46875 756.549804688 c 128,-1,5
 409.46875 778 409.46875 778 440.268554688 778 c 0,6,7
 472.46875 778 472.46875 778 489.268554688 757.849609375 c 128,-1,8
 506.068359375 737.700195312 506.068359375 737.700195312 506.068359375 710.399414062 c 0,9,10
 506.068359375 680.5 506.068359375 680.5 487.168945312 665.549804688 c 128,-1,11
 468.268554688 650.599609375 468.268554688 650.599609375 440.268554688 650.599609375 c 0,0,1
415.068359375 718.200195312 m 0,12,13
 416.46875 732.5 416.46875 732.5 422.068359375 744.200195312 c 128,-1,14
 427.668945312 755.899414062 427.668945312 755.899414062 420.668945312 755.899414062 c 0,15,16
 410.869140625 755.899414062 410.869140625 755.899414062 404.568359375 737.049804688 c 128,-1,17
 398.268554688 718.200195312 398.268554688 718.200195312 398.268554688 703.899414062 c 0,18,19
 398.268554688 690.899414062 398.268554688 690.899414062 405.268554688 690.899414062 c 0,20,21
 410.869140625 690.899414062 410.869140625 690.899414062 412.268554688 700.649414062 c 128,-1,22
 413.668945312 710.399414062 413.668945312 710.399414062 415.068359375 718.200195312 c 0,12,13
283.0546875 -5 m 0,23,24
 196.268554688 -5 196.268554688 -5 152.0546875 28 c 0,25,26
 108.268554688 61 108.268554688 61 82.0546875 111 c 0,27,28
 66.142578125 142.1953125 66.142578125 142.1953125 45.0546875 219 c 0,29,30
 36.2685546875 251 36.2685546875 251 34.0546875 328 c 0,31,32
 32.634765625 361.112304688 32.634765625 361.112304688 47.5546875 437.5 c 0,33,34
 57.2685546875 487 57.2685546875 487 86.0546875 532.5 c 0,35,36
 112.268554688 574 112.268554688 574 156.5546875 599.5 c 0,37,38
 200.268554688 625 200.268554688 625 284.0546875 625 c 0,39,40
 315.268554688 625 315.268554688 625 343.5546875 616.5 c 0,41,42
 371.268554688 608 371.268554688 608 394.0546875 589.5 c 0,43,44
 417.268554688 569 417.268554688 569 429.0546875 540.5 c 0,45,46
 443.268554688 506 443.268554688 506 442.0546875 466 c 0,47,48
 441.268554688 450 441.268554688 450 435.5546875 440.5 c 0,49,50
 429.268554688 431 429.268554688 431 419.5546875 425.5 c 0,51,52
 409.268554688 420 409.268554688 420 400.0546875 418.5 c 0,53,54
 389.268554688 417 389.268554688 417 384.0546875 417 c 0,55,56
 369.268554688 417 369.268554688 417 357.5546875 427 c 0,57,58
 345.268554688 437 345.268554688 437 345.0546875 466 c 0,59,60
 345.268554688 511 345.268554688 511 324.5546875 529 c 0,61,62
 303.268554688 547 303.268554688 547 269.0546875 547 c 0,63,64
 234.268554688 547 234.268554688 547 216.5546875 530.5 c 0,65,66
 198.268554688 514 198.268554688 514 184.0546875 483.5 c 0,67,68
 168.268554688 449 168.268554688 449 162.0546875 410 c 0,69,70
 153.268554688 360 153.268554688 360 154.0546875 314 c 0,71,72
 154.268554688 285 154.268554688 285 157.5546875 245 c 0,73,74
 160.268554688 210 160.268554688 210 173.0546875 169 c 0,75,76
 184.268554688 133 184.268554688 133 207.0546875 107.5 c 0,77,78
 228.268554688 82 228.268554688 82 285.0546875 82 c 0,79,80
 313.268554688 82 313.268554688 82 330.5546875 96.5 c 0,81,82
 347.268554688 111 347.268554688 111 354.5546875 132 c 0,83,84
 361.268554688 153 361.268554688 153 363.5546875 175.5 c 0,85,86
 365.268554688 198 365.268554688 198 364.0546875 214 c 256,87,88
 363.268554688 230 363.268554688 230 350.5546875 231.5 c 0,89,90
 338.268554688 233 338.268554688 233 315.0546875 233 c 2,91,-1
 264.0546875 233 l 2,92,93
 257.268554688 233 257.268554688 233 253.0546875 239 c 0,94,95
 247.268554688 245 247.268554688 245 235.0546875 253.5 c 0,96,97
 222.268554688 262 222.268554688 262 220.0546875 271 c 0,98,99
 217.268554688 284 217.268554688 284 218.0546875 286 c 0,100,101
 233.268554688 300 233.268554688 300 248.0546875 314.5 c 0,102,103
 259.456054688 327.208984375 259.456054688 327.208984375 282.0546875 327 c 2,104,-1
 390.0546875 326 l 2,105,106
 422.268554688 326 422.268554688 326 446.0546875 306 c 0,107,108
 471.268554688 286 471.268554688 286 471.0546875 249 c 0,109,110
 471.268554688 206 471.268554688 206 461.5546875 161 c 0,111,112
 450.268554688 112 450.268554688 112 430.0546875 79 c 0,113,114
 407.268554688 42 407.268554688 42 372.0546875 18.5 c 0,115,116
 335.268554688 -5 335.268554688 -5 283.0546875 -5 c 0,23,24
168.0546875 58 m 128,-1,118
 168.5546875 64 168.5546875 64 148.0546875 84 c 0,119,120
 138.5546875 93 138.5546875 93 130.0546875 106.5 c 0,121,122
 120.5546875 120 120.5546875 120 113.5546875 133 c 128,-1,123
 106.5546875 146 106.5546875 146 101.5546875 157.5 c 128,-1,124
 96.5546875 169 96.5546875 169 97.0546875 173 c 0,125,126
 96.5546875 178 96.5546875 178 94.0546875 179.5 c 0,127,128
 90.5546875 181 90.5546875 181 90.0546875 181 c 0,129,130
 82.5546875 181 82.5546875 181 82.0546875 170 c 256,131,132
 82.5546875 159 82.5546875 159 91.0546875 139 c 0,133,134
 100.5546875 119 100.5546875 119 112.5546875 99.5 c 128,-1,135
 124.5546875 80 124.5546875 80 138.5546875 66 c 128,-1,136
 152.5546875 52 152.5546875 52 162.0546875 52 c 0,137,117
 167.5546875 52 167.5546875 52 168.0546875 58 c 128,-1,118
191.0546875 45 m 0,138,139
 190.5546875 52 190.5546875 52 184.0546875 52 c 0,140,141
 180.5546875 52 180.5546875 52 178.5546875 49 c 128,-1,142
 176.5546875 46 176.5546875 46 177.0546875 44 c 0,143,144
 176.5546875 39 176.5546875 39 179.5546875 38 c 128,-1,145
 182.5546875 37 182.5546875 37 184.0546875 37 c 0,146,147
 191.5546875 37 191.5546875 37 191.0546875 45 c 0,138,139
EndSplineSet
EndChar

StartChar: H
Encoding: 72 72 42
Width: 540
GlyphClass: 2
Flags: W
LayerCount: 2
Fore
SplineSet
139.995117188 17 m 1028,0,-1
450.294921875 0 m 4,1,2
 432.10546875 0 432.10546875 0 421.405273438 9.5 c 132,-1,3
 410.705078125 19 410.705078125 19 405.35546875 32.5 c 132,-1,4
 400.004882812 46 400.004882812 46 398.400390625 62.5 c 132,-1,5
 396.794921875 79 396.794921875 79 396.794921875 92 c 6,6,-1
 396.794921875 237 l 6,7,8
 396.794921875 250 396.794921875 250 394.120117188 256.5 c 132,-1,9
 391.4453125 263 391.4453125 263 382.884765625 263 c 6,10,-1
 162.46484375 263 l 6,11,12
 151.764648438 263 151.764648438 263 147.485351562 260 c 132,-1,13
 143.205078125 257 143.205078125 257 143.205078125 247 c 6,14,-1
 143.205078125 105 l 6,15,16
 143.205078125 91 143.205078125 91 141.065429688 72.5 c 132,-1,17
 138.924804688 54 138.924804688 54 132.504882812 38 c 132,-1,18
 126.084960938 22 126.084960938 22 115.384765625 11 c 132,-1,19
 104.684570312 0 104.684570312 0 87.5654296875 0 c 4,20,21
 68.3046875 0 68.3046875 0 55.46484375 8.5 c 132,-1,22
 42.625 17 42.625 17 35.669921875 31 c 132,-1,23
 28.71484375 45 28.71484375 45 26.0400390625 64 c 132,-1,24
 23.365234375 83 23.365234375 83 23.365234375 105 c 6,25,-1
 23.365234375 546 l 6,26,27
 23.365234375 552 23.365234375 552 26.0400390625 563.5 c 132,-1,28
 28.71484375 575 28.71484375 575 35.134765625 587 c 132,-1,29
 41.5546875 599 41.5546875 599 53.3251953125 607.5 c 132,-1,30
 65.0947265625 616 65.0947265625 616 84.35546875 616 c 4,31,32
 100.405273438 616 100.405273438 616 111.639648438 609 c 132,-1,33
 122.875 602 122.875 602 129.830078125 591 c 132,-1,34
 136.78515625 580 136.78515625 580 139.995117188 567.5 c 132,-1,35
 143.205078125 555 143.205078125 555 143.205078125 544 c 6,36,-1
 143.205078125 369 l 6,37,38
 143.205078125 361 143.205078125 361 145.879882812 355 c 132,-1,39
 148.538085938 349.038085938 148.538085938 349.038085938 157.115234375 349 c 6,40,-1
 385.025390625 348 l 6,41,42
 390.375 348 390.375 348 393.584960938 350.5 c 132,-1,43
 396.794921875 353 396.794921875 353 396.794921875 367 c 6,44,-1
 396.794921875 540 l 6,45,46
 396.794921875 578 396.794921875 578 409.634765625 597 c 132,-1,47
 422.474609375 616 422.474609375 616 444.9453125 616 c 4,48,49
 456.71484375 616 456.71484375 616 469.01953125 612 c 132,-1,50
 481.325195312 608 481.325195312 608 492.025390625 598.5 c 132,-1,51
 502.724609375 589 502.724609375 589 509.6796875 574 c 132,-1,52
 516.634765625 559 516.634765625 559 516.634765625 537 c 6,53,-1
 516.634765625 91 l 6,54,55
 516.634765625 77 516.634765625 77 512.889648438 61 c 132,-1,56
 509.14453125 45 509.14453125 45 501.120117188 31.5 c 132,-1,57
 493.094726562 18 493.094726562 18 480.254882812 9 c 132,-1,58
 467.415039062 0 467.415039062 0 450.294921875 0 c 4,1,2
41.5546875 555 m 4,59,60
 44.7646484375 555 44.7646484375 555 49.580078125 559.5 c 132,-1,61
 54.39453125 564 54.39453125 564 59.2099609375 570.5 c 132,-1,62
 64.025390625 577 64.025390625 577 68.3046875 583.5 c 132,-1,63
 72.5849609375 590 72.5849609375 590 73.6552734375 593 c 260,64,65
 74.724609375 596 74.724609375 596 74.1904296875 600.5 c 132,-1,66
 73.6552734375 605 73.6552734375 605 70.4453125 604 c 4,67,68
 62.955078125 603 62.955078125 603 57.60546875 597.5 c 132,-1,69
 52.2548828125 592 52.2548828125 592 47.974609375 585 c 132,-1,70
 43.6953125 578 43.6953125 578 41.5546875 572 c 132,-1,71
 39.4150390625 566 39.4150390625 566 39.4150390625 563 c 4,72,73
 39.4150390625 561 39.4150390625 561 39.4150390625 558.5 c 132,-1,74
 39.4150390625 556 39.4150390625 556 41.5546875 555 c 4,59,60
436.384765625 575 m 4,75,76
 437.455078125 583 437.455078125 583 443.33984375 591 c 132,-1,77
 449.224609375 599 449.224609375 599 442.8046875 600 c 4,78,79
 434.245117188 601 434.245117188 601 425.150390625 591.5 c 4,80,81
 414.985351562 581 414.985351562 581 413.915039062 568 c 4,82,83
 412.844726562 553 412.844726562 553 419.264648438 552 c 4,84,85
 427.825195312 551 427.825195312 551 431.5703125 561 c 132,-1,86
 435.315429688 571 435.315429688 571 436.384765625 575 c 4,75,76
68.3046875 30 m 4,87,88
 68.3046875 35 68.3046875 35 64.025390625 39 c 4,89,90
 58.6748046875 44 58.6748046875 44 56.53515625 59.5 c 132,-1,91
 54.39453125 75 54.39453125 75 54.39453125 86 c 4,92,93
 54.39453125 103 54.39453125 103 46.9052734375 103 c 4,94,95
 42.625 103 42.625 103 41.5546875 96 c 132,-1,96
 40.4853515625 89 40.4853515625 89 40.4853515625 86 c 4,97,98
 40.4853515625 82 40.4853515625 82 41.5546875 72 c 132,-1,99
 42.625 62 42.625 62 44.7646484375 52 c 132,-1,100
 46.9052734375 42 46.9052734375 42 51.1845703125 34.5 c 132,-1,101
 55.46484375 27 55.46484375 27 61.884765625 27 c 260,102,103
 68.3046875 27 68.3046875 27 68.3046875 30 c 4,87,88
437.455078125 26 m 4,104,105
 431.03515625 32 431.03515625 32 426.219726562 50 c 132,-1,106
 421.405273438 68 421.405273438 68 421.405273438 77 c 4,107,108
 421.405273438 81 421.405273438 81 419.264648438 81 c 4,109,110
 416.0546875 81 416.0546875 81 413.915039062 73.5 c 132,-1,111
 411.775390625 66 411.775390625 66 411.775390625 58 c 4,112,113
 411.775390625 46 411.775390625 46 417.125 31.5 c 132,-1,114
 422.474609375 17 422.474609375 17 437.455078125 17 c 4,115,116
 440.665039062 17 440.665039062 17 440.129882812 20.5 c 132,-1,117
 439.594726562 24 439.594726562 24 437.455078125 26 c 4,104,105
EndSplineSet
EndChar

StartChar: I
Encoding: 73 73 43
Width: 540
GlyphClass: 2
Flags: W
LayerCount: 2
Fore
SplineSet
51 448 m 1,0,-1
 234 790 l 1,1,-1
 284 790 l 1,2,-1
 480 448 l 1,3,-1
 402 448 l 1,4,-1
 260 697 l 1,5,-1
 129 448 l 1,6,-1
 51 448 l 1,0,-1
40 0 m 1,7,-1
 40 60 l 1,8,-1
 231 75 l 1,9,-1
 231 526 l 1,10,-1
 321 526 l 1,11,-1
 321 75 l 1,12,-1
 500 60 l 1,13,-1
 500 0 l 1,14,-1
 40 0 l 1,7,-1
EndSplineSet
EndChar

StartChar: J
Encoding: 74 74 44
Width: 540
GlyphClass: 2
Flags: W
LayerCount: 2
Fore
SplineSet
223 4 m 0,0,1
 260.5 2 260.5 2 287.5 22.5 c 0,2,3
 307.418945312 39.099609375 307.418945312 39.099609375 318 67.5 c 0,4,5
 327.5 93 327.5 93 329 130 c 128,-1,6
 330.5 167 330.5 167 330.5 206 c 2,7,-1
 330.5 541 l 1,8,-1
 490.5 541 l 2,9,10
 512.5 541 512.5 541 520.5 552 c 128,-1,11
 528.5 563 528.5 563 528.5 580 c 256,12,13
 528.5 597 528.5 597 522 607 c 128,-1,14
 515.5 617 515.5 617 490.5 617 c 2,15,-1
 44.5 617 l 2,16,17
 26.5 617 26.5 617 19 608.5 c 128,-1,18
 11.5 600 11.5 600 11.5 586 c 0,19,20
 11.5 566 11.5 566 18 553.5 c 128,-1,21
 24.5 541 24.5 541 40.5 541 c 2,22,-1
 227.5 541 l 1,23,-1
 227.5 156 l 2,24,25
 227.5 119 227.5 119 225 96 c 128,-1,26
 222.5 73 222.5 73 211.5 73 c 2,27,-1
 203.5 73 l 1,28,-1
 120.5 71 l 0,29,30
 111.5 56 111.5 56 112.5 4 c 0,31,-1
 223 4 l 0,0,1
508.5 587 m 0,32,33
 508.5 592 508.5 592 507 598.5 c 128,-1,34
 505.5 605 505.5 605 507.5 605 c 0,35,36
 512.5 605 512.5 605 516 597.5 c 128,-1,37
 519.5 590 519.5 590 519.5 579 c 0,38,39
 519.5 572 519.5 572 517 564.5 c 128,-1,40
 514.5 557 514.5 557 509.5 557 c 256,41,42
 504.5 557 504.5 557 506.5 567.5 c 128,-1,43
 508.5 578 508.5 578 508.5 587 c 0,32,33
282.053710938 33.8388671875 m 0,44,-1
 255.5 42 l 0,45,46
 248.5 45 248.5 45 237.680664062 52.5595703125 c 0,47,48
 230.5 58 230.5 58 226.821289062 63.1533203125 c 0,49,50
 223.5 69 223.5 69 225.337890625 71.267578125 c 0,51,52
 227.5 77 227.5 77 237.341796875 72.251953125 c 0,53,54
 251.5 66 251.5 66 251.822265625 65.6904296875 c 0,55,56
 265.5 60 265.5 60 267.5 60 c 0,57,58
 280.5 55 l 0,59,60
 290.5 55 290.5 55 295.138671875 47.486328125 c 0,61,62
 298.5 42 298.5 42 297.861328125 35.599609375 c 0,63,64
 297.5 32 297.5 32 290.825195312 32.7421875 c 0,65,66
 284.5 33 284.5 33 282.053710938 33.8388671875 c 0,44,-1
EndSplineSet
EndChar

StartChar: K
Encoding: 75 75 45
Width: 540
GlyphClass: 2
Flags: W
LayerCount: 2
Fore
SplineSet
166.200195312 597.75 m 0,0,1
 139.600585938 597.75 139.600585938 597.75 123.5 614 c 128,-1,2
 107.400390625 630.25 107.400390625 630.25 107.400390625 657.549804688 c 0,3,4
 107.400390625 682.25 107.400390625 682.25 121.400390625 703.700195312 c 128,-1,5
 135.400390625 725.150390625 135.400390625 725.150390625 166.200195312 725.150390625 c 0,6,7
 198.400390625 725.150390625 198.400390625 725.150390625 215.200195312 705 c 128,-1,8
 232 684.850585938 232 684.850585938 232 657.549804688 c 0,9,10
 232 627.650390625 232 627.650390625 213.100585938 612.700195312 c 128,-1,11
 194.200195312 597.75 194.200195312 597.75 166.200195312 597.75 c 0,0,1
141 665.350585938 m 0,12,13
 142.400390625 679.650390625 142.400390625 679.650390625 148 691.350585938 c 128,-1,14
 153.600585938 703.049804688 153.600585938 703.049804688 146.600585938 703.049804688 c 0,15,16
 136.80078125 703.049804688 136.80078125 703.049804688 130.5 684.200195312 c 128,-1,17
 124.200195312 665.350585938 124.200195312 665.350585938 124.200195312 651.049804688 c 0,18,19
 124.200195312 638.049804688 124.200195312 638.049804688 131.200195312 638.049804688 c 0,20,21
 136.80078125 638.049804688 136.80078125 638.049804688 138.200195312 647.799804688 c 128,-1,22
 139.600585938 657.549804688 139.600585938 657.549804688 141 665.350585938 c 0,12,13
136.5 0 m 0,23,24
 115.5 0 115.5 0 105.5 11 c 128,-1,25
 95.5 22 95.5 22 92 38.5 c 128,-1,26
 88.5 55 88.5 55 88.5 73 c 128,-1,27
 88.5 91 88.5 91 88.5 105 c 2,28,-1
 88.5 204 l 1,29,-1
 87.5 402 l 1,30,-1
 87.5 428 l 2,31,32
 87.5 455 87.5 455 89.5 476 c 128,-1,33
 91.5 497 91.5 497 97.5 512 c 128,-1,34
 103.5 527 103.5 527 115 535 c 128,-1,35
 126.5 543 126.5 543 146.5 543 c 0,36,37
 169.5 543 169.5 543 187 524.5 c 128,-1,38
 204.5 506 204.5 506 204.5 476 c 0,39,40
 204.5 471 204.5 471 204 456 c 128,-1,41
 203.5 441 203.5 441 203.5 421 c 2,42,-1
 203.5 429 l 1,43,-1
 203.5 410 l 2,44,45
 203.5 391 203.5 391 205 379 c 128,-1,46
 206.5 367 206.5 367 208.5 367 c 0,47,48
 212.5 367 212.5 367 224 385.5 c 128,-1,49
 235.5 404 235.5 404 251 431.5 c 128,-1,50
 266.5 459 266.5 459 284.5 491.5 c 128,-1,51
 302.5 524 302.5 524 320.5 551.5 c 128,-1,52
 338.5 579 338.5 579 355 597.5 c 128,-1,53
 371.5 616 371.5 616 382.5 616 c 0,54,55
 391.5 616 391.5 616 402.5 613 c 128,-1,56
 413.5 610 413.5 610 422.5 604 c 128,-1,57
 431.5 598 431.5 598 437.5 589 c 128,-1,58
 443.5 580 443.5 580 443.5 567 c 0,59,60
 443.5 559 443.5 559 432.5 537.5 c 128,-1,61
 421.5 516 421.5 516 405.5 489 c 128,-1,62
 389.5 462 389.5 462 370.5 432 c 128,-1,63
 351.5 402 351.5 402 335.5 376.5 c 128,-1,64
 319.5 351 319.5 351 308.5 333.5 c 128,-1,65
 297.5 316 297.5 316 297.5 313 c 0,66,67
 297.5 309 297.5 309 309 290 c 128,-1,68
 320.5 271 320.5 271 337.5 245 c 128,-1,69
 354.5 219 354.5 219 375 188.5 c 128,-1,70
 395.5 158 395.5 158 412.5 130 c 128,-1,71
 429.5 102 429.5 102 441 80 c 128,-1,72
 452.5 58 452.5 58 452.5 48 c 0,73,74
 452.5 35 452.5 35 444 26 c 128,-1,75
 435.5 17 435.5 17 423.5 11 c 128,-1,76
 411.5 5 411.5 5 399.5 2 c 128,-1,77
 387.5 -1 387.5 -1 379.5 -1 c 0,78,79
 365.5 -1 365.5 -1 350.5 17.5 c 128,-1,80
 335.5 36 335.5 36 323.5 57 c 0,81,82
 319.5 64 319.5 64 311 80.5 c 128,-1,83
 302.5 97 302.5 97 291 118 c 128,-1,84
 279.5 139 279.5 139 267 161.5 c 128,-1,85
 254.5 184 254.5 184 243 203 c 128,-1,86
 231.5 222 231.5 222 223 234 c 128,-1,87
 214.5 246 214.5 246 210.5 246 c 0,88,89
 202.5 246 202.5 246 202.5 234.5 c 128,-1,90
 202.5 223 202.5 223 202.5 215 c 2,91,-1
 202.5 164 l 1,92,-1
 203.5 125 l 1,93,-1
 203.5 102 l 2,94,95
 203.5 51 203.5 51 187.5 25.5 c 128,-1,96
 171.5 0 171.5 0 136.5 0 c 0,23,24
106.5 488 m 0,97,98
 111.5 487 111.5 487 116 491 c 128,-1,99
 120.5 495 120.5 495 124 500.5 c 128,-1,100
 127.5 506 127.5 506 130.5 512.5 c 128,-1,101
 133.5 519 133.5 519 134.5 523 c 0,102,103
 135.5 526 135.5 526 132.5 528.5 c 128,-1,104
 129.5 531 129.5 531 126.5 531 c 0,105,106
 122.5 531 122.5 531 118.5 526 c 128,-1,107
 114.5 521 114.5 521 111 514.5 c 128,-1,108
 107.5 508 107.5 508 105.5 501.5 c 128,-1,109
 103.5 495 103.5 495 103.5 492 c 0,110,111
 103.5 488 103.5 488 106.5 488 c 0,97,98
356.5 558 m 0,112,113
 359.5 558 359.5 558 365.5 562.5 c 128,-1,114
 371.5 567 371.5 567 377.5 573 c 128,-1,115
 383.5 579 383.5 579 387.5 585.5 c 128,-1,116
 391.5 592 391.5 592 390.5 596 c 0,117,118
 390.5 600 390.5 600 386.5 600 c 0,119,120
 383.5 601 383.5 601 377 596.5 c 128,-1,121
 370.5 592 370.5 592 364 585.5 c 128,-1,122
 357.5 579 357.5 579 353 573 c 128,-1,123
 348.5 567 348.5 567 349.5 564 c 0,124,125
 351.5 559 351.5 559 356.5 558 c 0,112,113
121.5 70 m 0,126,127
 121.5 74 121.5 74 121.5 84.5 c 128,-1,128
 121.5 95 121.5 95 120.5 106 c 128,-1,129
 119.5 117 119.5 117 117.5 125.5 c 128,-1,130
 115.5 134 115.5 134 111.5 134 c 0,131,132
 108.5 134 108.5 134 106 129 c 128,-1,133
 103.5 124 103.5 124 102.5 117 c 128,-1,134
 101.5 110 101.5 110 101 103.5 c 128,-1,135
 100.5 97 100.5 97 100.5 95 c 0,136,137
 100.5 91 100.5 91 100.5 82.5 c 128,-1,138
 100.5 74 100.5 74 102 65 c 128,-1,139
 103.5 56 103.5 56 106.5 49.5 c 128,-1,140
 109.5 43 109.5 43 115.5 43 c 0,141,142
 117.5 43 117.5 43 119 47 c 128,-1,143
 120.5 51 120.5 51 121 55.5 c 128,-1,144
 121.5 60 121.5 60 121.5 64.5 c 128,-1,145
 121.5 69 121.5 69 121.5 70 c 0,126,127
382.5 21 m 0,146,147
 382.5 24 382.5 24 379.5 30.5 c 128,-1,148
 376.5 37 376.5 37 372 43 c 128,-1,149
 367.5 49 367.5 49 362.5 54 c 128,-1,150
 357.5 59 357.5 59 354.5 59 c 0,151,152
 352.5 59 352.5 59 351.5 55.5 c 128,-1,153
 350.5 52 350.5 52 350.5 50 c 0,154,155
 350.5 47 350.5 47 353 41 c 128,-1,156
 355.5 35 355.5 35 359 29 c 128,-1,157
 362.5 23 362.5 23 367.5 19 c 128,-1,158
 372.5 15 372.5 15 376.5 15 c 0,159,160
 382.5 15 382.5 15 382.5 21 c 0,146,147
131.5 25 m 0,161,162
 133.5 29 133.5 29 130.5 32.5 c 128,-1,163
 127.5 36 127.5 36 123.5 36 c 0,164,165
 118.5 36 118.5 36 116 32.5 c 128,-1,166
 113.5 29 113.5 29 115.5 25 c 0,167,168
 117.5 17 117.5 17 123.5 17 c 256,169,170
 129.5 17 129.5 17 131.5 25 c 0,161,162
EndSplineSet
EndChar

StartChar: L
Encoding: 76 76 46
Width: 540
GlyphClass: 2
Flags: W
LayerCount: 2
Fore
SplineSet
33 28 m 0,0,1
 33 35 33 35 34.5 40.5 c 128,-1,2
 36 46 36 46 39 53.5 c 128,-1,3
 42 61 42 61 46.5 71 c 128,-1,4
 51 81 51 81 57 96 c 256,5,6
 63 111 63 111 67 123.5 c 128,-1,7
 71 136 71 136 73.5 150 c 128,-1,8
 76 164 76 164 77.5 180.5 c 128,-1,9
 79 197 79 197 79 218 c 2,10,-1
 79 251 l 1,11,-1
 59 251 l 2,12,13
 40 251 40 251 30.5 260 c 128,-1,14
 21 269 21 269 21 281 c 0,15,16
 21 292 21 292 27.5 306 c 128,-1,17
 34 320 34 320 52 320 c 2,18,-1
 77 320 l 1,19,-1
 77 387 l 2,20,21
 77 433 77 433 84.5 475 c 128,-1,22
 92 517 92 517 110.5 549.5 c 128,-1,23
 129 582 129 582 160.5 601 c 128,-1,24
 192 620 192 620 240 620 c 0,25,26
 263 620 263 620 284.5 612.5 c 128,-1,27
 306 605 306 605 323 590.5 c 128,-1,28
 340 576 340 576 350.5 555 c 128,-1,29
 361 534 361 534 361 508 c 0,30,31
 361 464 361 464 338 464 c 0,32,33
 321 464 321 464 304 494 c 0,34,35
 293 513 293 513 278 527.5 c 128,-1,36
 263 542 263 542 245 542 c 0,37,38
 221 542 221 542 206.5 530 c 128,-1,39
 192 518 192 518 184 496.5 c 128,-1,40
 176 475 176 475 173 445 c 128,-1,41
 170 415 170 415 170 379 c 2,42,-1
 170 322 l 1,43,-1
 256 322 l 6,44,45
 280 322 280 322 293.5 318.5 c 132,-1,46
 307 315 307 315 314 309.5 c 132,-1,47
 321 304 321 304 323 296.5 c 132,-1,48
 325 289 325 289 325 280 c 4,49,50
 325 274 325 274 323.5 268.5 c 132,-1,51
 322 263 322 263 316.5 259.5 c 132,-1,52
 311 256 311 256 300 253.5 c 132,-1,53
 289 251 289 251 270 251 c 6,54,-1
 170 251 l 1,55,-1
 170 186 l 2,56,57
 170 139 170 139 160 115.5 c 128,-1,58
 150 92 150 92 144 79 c 0,59,60
 140 71 140 71 145 71.5 c 128,-1,61
 150 72 150 72 160 74 c 0,62,63
 166 75 166 75 171.5 76 c 128,-1,64
 177 77 177 77 184 77.5 c 128,-1,65
 191 78 191 78 201 78 c 0,66,67
 214 78 214 78 227 78 c 2,68,-1
 443 78 l 2,69,70
 485 78 485 78 502 70.5 c 128,-1,71
 519 63 519 63 519 43 c 0,72,73
 519 17 519 17 506.5 8 c 128,-1,74
 494 -1 494 -1 466 1 c 0,75,76
 414 3 414 3 282 1.5 c 128,-1,77
 150 0 150 0 93 0 c 0,78,79
 67 0 67 0 50 7 c 128,-1,80
 33 14 33 14 33 28 c 0,0,1
112 460 m 0,81,82
 114 460 114 460 118 471 c 128,-1,83
 122 482 122 482 128.5 498 c 128,-1,84
 135 514 135 514 145 531.5 c 128,-1,85
 155 549 155 549 170 562 c 0,86,87
 183 574 183 574 184.5 579.5 c 128,-1,88
 186 585 186 585 183 585 c 0,89,90
 175 585 175 585 165 579.5 c 128,-1,91
 155 574 155 574 141 560 c 0,92,93
 133 552 133 552 126.5 540 c 128,-1,94
 120 528 120 528 115.5 515 c 128,-1,95
 111 502 111 502 109 490 c 128,-1,96
 107 478 107 478 107 469 c 256,97,98
 107 460 107 460 112 460 c 0,81,82
112 432 m 0,99,100
 112 436 112 436 109 438 c 128,-1,101
 106 440 106 440 103 440 c 0,102,103
 99 440 99 440 95 434 c 0,104,105
 94 431 94 431 93 428 c 0,106,107
 93 419 93 419 103 419 c 0,108,109
 112 419 112 419 112 432 c 0,99,100
EndSplineSet
EndChar

StartChar: M
Encoding: 77 77 47
Width: 540
GlyphClass: 2
Flags: W
LayerCount: 2
Fore
SplineSet
292.08984375 595.75 m 0,0,1
 254.490234375 595.75 254.490234375 595.75 227.69921875 623.469726562 c 128,-1,2
 200.91015625 651.190429688 200.91015625 651.190429688 200.91015625 694.75 c 0,3,4
 200.91015625 718.509765625 200.91015625 718.509765625 208.900390625 739.794921875 c 128,-1,5
 216.890625 761.080078125 216.890625 761.080078125 230.990234375 776.424804688 c 128,-1,6
 245.08984375 791.76953125 245.08984375 791.76953125 264.830078125 801.174804688 c 128,-1,7
 284.5703125 810.580078125 284.5703125 810.580078125 308.0703125 810.580078125 c 0,8,9
 326.869140625 810.580078125 326.869140625 810.580078125 342.849609375 802.165039062 c 128,-1,10
 358.830078125 793.75 358.830078125 793.75 370.109375 778.900390625 c 128,-1,11
 381.390625 764.049804688 381.390625 764.049804688 387.5 745.240234375 c 128,-1,12
 393.609375 726.4296875 393.609375 726.4296875 393.609375 705.639648438 c 0,13,14
 393.609375 678.91015625 393.609375 678.91015625 385.619140625 658.615234375 c 128,-1,15
 377.630859375 638.3203125 377.630859375 638.3203125 363.529296875 624.459960938 c 128,-1,16
 349.4296875 610.599609375 349.4296875 610.599609375 331.099609375 603.174804688 c 128,-1,17
 312.76953125 595.75 312.76953125 595.75 292.08984375 595.75 c 0,0,1
257.310546875 767.01953125 m 0,18,19
 263.890625 773.950195312 263.890625 773.950195312 265.30078125 778.900390625 c 128,-1,20
 266.7109375 783.849609375 266.7109375 783.849609375 264.830078125 783.849609375 c 0,21,22
 257.310546875 783.849609375 257.310546875 783.849609375 248.849609375 776.424804688 c 128,-1,23
 240.390625 769 240.390625 769 233.33984375 758.60546875 c 128,-1,24
 226.291015625 748.209960938 226.291015625 748.209960938 221.58984375 736.330078125 c 128,-1,25
 216.890625 724.450195312 216.890625 724.450195312 216.890625 714.549804688 c 0,26,27
 216.890625 712.5703125 216.890625 712.5703125 218.30078125 706.629882812 c 128,-1,28
 219.7109375 700.690429688 219.7109375 700.690429688 222.529296875 700.690429688 c 0,29,30
 226.291015625 700.690429688 226.291015625 700.690429688 231.9296875 722.469726562 c 0,31,32
 234.75 736.330078125 234.75 736.330078125 242.26953125 747.71484375 c 128,-1,33
 249.791015625 759.099609375 249.791015625 759.099609375 257.310546875 767.01953125 c 0,18,19
295.849609375 652.1796875 m 0,34,35
 307.130859375 652.1796875 307.130859375 652.1796875 322.640625 666.040039062 c 128,-1,36
 338.150390625 679.900390625 338.150390625 679.900390625 338.150390625 705.639648438 c 0,37,38
 338.150390625 725.440429688 338.150390625 725.440429688 328.279296875 738.8046875 c 128,-1,39
 318.41015625 752.169921875 318.41015625 752.169921875 302.4296875 752.169921875 c 256,40,41
 286.44921875 752.169921875 286.44921875 752.169921875 273.291015625 738.8046875 c 128,-1,42
 260.130859375 725.440429688 260.130859375 725.440429688 260.130859375 701.6796875 c 256,43,44
 260.130859375 677.919921875 260.130859375 677.919921875 270.470703125 665.049804688 c 128,-1,45
 280.810546875 652.1796875 280.810546875 652.1796875 295.849609375 652.1796875 c 0,34,35
58.970703125 2.740234375 m 0,46,47
 44.869140625 2.740234375 44.869140625 2.740234375 36.41015625 8.1845703125 c 128,-1,48
 27.94921875 13.6298828125 27.94921875 13.6298828125 23.720703125 22.5400390625 c 128,-1,49
 19.490234375 31.4501953125 19.490234375 31.4501953125 18.080078125 42.8349609375 c 128,-1,50
 16.669921875 54.2197265625 16.669921875 54.2197265625 16.669921875 67.08984375 c 2,51,-1
 16.669921875 493.780273438 l 2,52,53
 16.669921875 504.669921875 16.669921875 504.669921875 17.140625 517.540039062 c 128,-1,54
 17.609375 530.41015625 17.609375 530.41015625 21.369140625 541.299804688 c 128,-1,55
 25.130859375 552.190429688 25.130859375 552.190429688 33.58984375 559.615234375 c 128,-1,56
 42.05078125 567.040039062 42.05078125 567.040039062 57.08984375 567.040039062 c 0,57,58
 75.890625 567.040039062 75.890625 567.040039062 85.291015625 552.684570312 c 128,-1,59
 94.689453125 538.330078125 94.689453125 538.330078125 98.919921875 520.509765625 c 128,-1,60
 103.150390625 502.690429688 103.150390625 502.690429688 104.08984375 488.334960938 c 128,-1,61
 105.029296875 473.98046875 105.029296875 473.98046875 106.91015625 473.98046875 c 256,62,63
 108.791015625 473.98046875 108.791015625 473.98046875 112.55078125 489.325195312 c 128,-1,64
 116.310546875 504.669921875 116.310546875 504.669921875 126.1796875 522.490234375 c 128,-1,65
 136.05078125 540.309570312 136.05078125 540.309570312 153.91015625 555.655273438 c 128,-1,66
 171.76953125 571 171.76953125 571 202.791015625 571 c 0,67,68
 229.109375 571 229.109375 571 246.029296875 556.150390625 c 128,-1,69
 262.94921875 541.299804688 262.94921875 541.299804688 273.291015625 522.985351562 c 128,-1,70
 283.630859375 504.669921875 283.630859375 504.669921875 289.26953125 489.8203125 c 128,-1,71
 294.91015625 474.969726562 294.91015625 474.969726562 297.73046875 474.969726562 c 256,72,73
 300.55078125 474.969726562 300.55078125 474.969726562 305.720703125 489.8203125 c 128,-1,74
 310.890625 504.669921875 310.890625 504.669921875 321.23046875 522.985351562 c 128,-1,75
 331.5703125 541.299804688 331.5703125 541.299804688 349.900390625 556.150390625 c 128,-1,76
 368.23046875 571 368.23046875 571 398.310546875 571 c 0,77,78
 436.849609375 571 436.849609375 571 461.291015625 551.200195312 c 128,-1,79
 485.73046875 531.400390625 485.73046875 531.400390625 499.359375 496.254882812 c 128,-1,80
 512.990234375 461.110351562 512.990234375 461.110351562 518.16015625 413.094726562 c 128,-1,81
 523.330078125 365.080078125 523.330078125 365.080078125 523.330078125 309.639648438 c 2,82,-1
 523.330078125 29.4697265625 l 2,83,84
 523.330078125 15.6103515625 523.330078125 15.6103515625 505.470703125 9.1748046875 c 128,-1,85
 487.609375 2.740234375 487.609375 2.740234375 468.810546875 2.740234375 c 256,86,87
 450.009765625 2.740234375 450.009765625 2.740234375 439.669921875 8.1845703125 c 128,-1,88
 429.330078125 13.6298828125 429.330078125 13.6298828125 429.330078125 28.48046875 c 2,89,-1
 429.330078125 300.73046875 l 2,90,91
 429.330078125 312.610351562 429.330078125 312.610351562 429.330078125 340.825195312 c 128,-1,92
 429.330078125 369.040039062 429.330078125 369.040039062 425.099609375 398.740234375 c 128,-1,93
 420.869140625 428.440429688 420.869140625 428.440429688 411 450.71484375 c 128,-1,94
 401.130859375 472.990234375 401.130859375 472.990234375 381.390625 472.990234375 c 0,95,96
 364.470703125 472.990234375 364.470703125 472.990234375 353.66015625 459.129882812 c 128,-1,97
 342.849609375 445.26953125 342.849609375 445.26953125 336.26953125 421.014648438 c 128,-1,98
 329.689453125 396.759765625 329.689453125 396.759765625 326.400390625 362.60546875 c 128,-1,99
 323.109375 328.450195312 323.109375 328.450195312 321.23046875 286.870117188 c 0,100,101
 318.41015625 238.360351562 318.41015625 238.360351562 317.470703125 211.629882812 c 128,-1,102
 316.529296875 184.900390625 316.529296875 184.900390625 317 142.825195312 c 128,-1,103
 317.470703125 100.75 317.470703125 100.75 317.939453125 71.544921875 c 128,-1,104
 318.41015625 42.33984375 318.41015625 42.33984375 318.41015625 33.4296875 c 0,105,106
 318.41015625 19.5703125 318.41015625 19.5703125 302.900390625 11.1552734375 c 128,-1,107
 287.390625 2.740234375 287.390625 2.740234375 264.830078125 2.740234375 c 256,108,109
 242.26953125 2.740234375 242.26953125 2.740234375 232.869140625 9.669921875 c 128,-1,110
 223.470703125 16.599609375 223.470703125 16.599609375 223.470703125 40.3603515625 c 2,111,-1
 223.470703125 300.73046875 l 2,112,113
 223.470703125 311.620117188 223.470703125 311.620117188 223.470703125 340.330078125 c 128,-1,114
 223.470703125 369.040039062 223.470703125 369.040039062 219.7109375 398.740234375 c 128,-1,115
 215.94921875 428.440429688 215.94921875 428.440429688 206.55078125 451.209960938 c 128,-1,116
 197.150390625 473.98046875 197.150390625 473.98046875 178.349609375 473.98046875 c 0,117,118
 161.4296875 473.98046875 161.4296875 473.98046875 149.6796875 458.634765625 c 128,-1,119
 137.9296875 443.290039062 137.9296875 443.290039062 130.41015625 419.530273438 c 128,-1,120
 122.890625 395.76953125 122.890625 395.76953125 118.66015625 366.0703125 c 128,-1,121
 114.4296875 336.370117188 114.4296875 336.370117188 112.55078125 308.650390625 c 128,-1,122
 110.669921875 280.9296875 110.669921875 280.9296875 110.19921875 257.169921875 c 128,-1,123
 109.73046875 233.41015625 109.73046875 233.41015625 109.73046875 221.530273438 c 2,124,-1
 109.73046875 47.2900390625 l 2,125,126
 109.73046875 28.48046875 109.73046875 28.48046875 94.689453125 15.6103515625 c 128,-1,127
 79.650390625 2.740234375 79.650390625 2.740234375 58.970703125 2.740234375 c 0,46,47
39.23046875 473.98046875 m 0,128,129
 44.869140625 474.969726562 44.869140625 474.969726562 45.33984375 485.365234375 c 128,-1,130
 45.810546875 495.759765625 45.810546875 495.759765625 45.810546875 503.6796875 c 0,131,132
 45.810546875 510.610351562 45.810546875 510.610351562 47.689453125 519.025390625 c 128,-1,133
 49.5703125 527.440429688 49.5703125 527.440429688 50.98046875 534.370117188 c 128,-1,134
 52.390625 541.299804688 52.390625 541.299804688 52.390625 546.25 c 128,-1,135
 52.390625 551.200195312 52.390625 551.200195312 48.630859375 551.200195312 c 0,136,137
 42.05078125 551.200195312 42.05078125 551.200195312 37.8203125 544.764648438 c 128,-1,138
 33.58984375 538.330078125 33.58984375 538.330078125 31.7109375 529.419921875 c 128,-1,139
 29.830078125 520.509765625 29.830078125 520.509765625 28.890625 512.58984375 c 128,-1,140
 27.94921875 504.669921875 27.94921875 504.669921875 27.94921875 501.700195312 c 0,141,142
 27.94921875 493.780273438 27.94921875 493.780273438 29.830078125 483.384765625 c 128,-1,143
 31.7109375 472.990234375 31.7109375 472.990234375 39.23046875 473.98046875 c 0,128,129
256.369140625 25.509765625 m 0,144,145
 256.369140625 35.41015625 256.369140625 35.41015625 250.259765625 38.875 c 128,-1,146
 244.150390625 42.33984375 244.150390625 42.33984375 244.150390625 53.23046875 c 0,147,148
 244.150390625 55.2099609375 244.150390625 55.2099609375 244.150390625 60.6552734375 c 128,-1,149
 244.150390625 66.099609375 244.150390625 66.099609375 243.6796875 71.544921875 c 128,-1,150
 243.2109375 76.990234375 243.2109375 76.990234375 241.330078125 81.4453125 c 128,-1,151
 239.44921875 85.900390625 239.44921875 85.900390625 236.630859375 85.900390625 c 0,152,153
 234.75 85.900390625 234.75 85.900390625 233.810546875 81.4453125 c 128,-1,154
 232.869140625 76.990234375 232.869140625 76.990234375 232.400390625 71.0498046875 c 128,-1,155
 231.9296875 65.1103515625 231.9296875 65.1103515625 231.9296875 59.6650390625 c 128,-1,156
 231.9296875 54.2197265625 231.9296875 54.2197265625 231.9296875 52.240234375 c 0,157,158
 231.9296875 40.3603515625 231.9296875 40.3603515625 235.220703125 26.9951171875 c 128,-1,159
 238.509765625 13.6298828125 238.509765625 13.6298828125 247.91015625 13.6298828125 c 0,160,161
 256.369140625 13.6298828125 256.369140625 13.6298828125 256.369140625 25.509765625 c 0,144,145
459.41015625 26.5 m 0,162,163
 459.41015625 36.400390625 459.41015625 36.400390625 454.240234375 43.8251953125 c 128,-1,164
 449.0703125 51.25 449.0703125 51.25 449.0703125 62.1396484375 c 0,165,166
 449.0703125 66.099609375 449.0703125 66.099609375 448.599609375 76 c 128,-1,167
 448.130859375 85.900390625 448.130859375 85.900390625 442.490234375 85.900390625 c 0,168,169
 437.791015625 85.900390625 437.791015625 85.900390625 437.3203125 75.009765625 c 128,-1,170
 436.849609375 64.1201171875 436.849609375 64.1201171875 436.849609375 61.150390625 c 256,171,172
 436.849609375 58.1796875 436.849609375 58.1796875 437.3203125 50.259765625 c 128,-1,173
 437.791015625 42.33984375 437.791015625 42.33984375 439.669921875 34.9150390625 c 128,-1,174
 441.55078125 27.490234375 441.55078125 27.490234375 444.369140625 21.5498046875 c 128,-1,175
 447.189453125 15.6103515625 447.189453125 15.6103515625 451.890625 15.6103515625 c 0,176,177
 455.650390625 15.6103515625 455.650390625 15.6103515625 457.529296875 20.0654296875 c 128,-1,178
 459.41015625 24.51953125 459.41015625 24.51953125 459.41015625 26.5 c 0,162,163
57.08984375 26.5 m 0,179,180
 57.08984375 37.3896484375 57.08984375 37.3896484375 52.859375 38.3798828125 c 128,-1,181
 48.630859375 39.3701171875 48.630859375 39.3701171875 43.9296875 46.2998046875 c 0,182,183
 42.990234375 48.2802734375 42.990234375 48.2802734375 42.51953125 53.724609375 c 128,-1,184
 42.05078125 59.169921875 42.05078125 59.169921875 42.05078125 64.615234375 c 128,-1,185
 42.05078125 70.0595703125 42.05078125 70.0595703125 40.640625 74.5146484375 c 128,-1,186
 39.23046875 78.9697265625 39.23046875 78.9697265625 36.41015625 78.9697265625 c 0,187,188
 31.7109375 78.9697265625 31.7109375 78.9697265625 31.240234375 69.5654296875 c 128,-1,189
 30.76953125 60.16015625 30.76953125 60.16015625 30.76953125 53.23046875 c 0,190,191
 30.76953125 49.26953125 30.76953125 49.26953125 31.7109375 43.330078125 c 128,-1,192
 32.650390625 37.3896484375 32.650390625 37.3896484375 35 31.4501953125 c 128,-1,193
 37.349609375 25.509765625 37.349609375 25.509765625 40.640625 21.0546875 c 128,-1,194
 43.9296875 16.599609375 43.9296875 16.599609375 48.630859375 16.599609375 c 0,195,196
 57.08984375 16.599609375 57.08984375 16.599609375 57.08984375 26.5 c 0,179,180
EndSplineSet
EndChar

StartChar: N
Encoding: 78 78 48
Width: 540
GlyphClass: 2
Flags: W
LayerCount: 2
Fore
SplineSet
260.5 576 m 4,0,1
 220.5 576 220.5 576 192 604 c 132,-1,2
 163.5 632 163.5 632 163.5 676 c 4,3,4
 163.5 700 163.5 700 172 721.5 c 132,-1,5
 180.5 743 180.5 743 195.5 758.5 c 132,-1,6
 210.5 774 210.5 774 231.5 783.5 c 132,-1,7
 252.5 793 252.5 793 277.5 793 c 4,8,9
 297.5 793 297.5 793 314.5 784.5 c 132,-1,10
 331.5 776 331.5 776 343.5 761 c 132,-1,11
 355.5 746 355.5 746 362 727 c 132,-1,12
 368.5 708 368.5 708 368.5 687 c 4,13,14
 368.5 660 368.5 660 360 639.5 c 132,-1,15
 351.5 619 351.5 619 336.5 605 c 132,-1,16
 321.5 591 321.5 591 302 583.5 c 132,-1,17
 282.5 576 282.5 576 260.5 576 c 4,0,1
223.5 749 m 4,18,19
 230.5 756 230.5 756 232 761 c 132,-1,20
 233.5 766 233.5 766 231.5 766 c 4,21,22
 223.5 766 223.5 766 214.5 758.5 c 132,-1,23
 205.5 751 205.5 751 198 740.5 c 132,-1,24
 190.5 730 190.5 730 185.5 718 c 132,-1,25
 180.5 706 180.5 706 180.5 696 c 4,26,27
 180.5 694 180.5 694 182 688 c 132,-1,28
 183.5 682 183.5 682 186.5 682 c 4,29,30
 190.5 682 190.5 682 196.5 704 c 4,31,32
 199.5 718 199.5 718 207.5 729.5 c 132,-1,33
 215.5 741 215.5 741 223.5 749 c 4,18,19
264.5 633 m 4,34,35
 276.5 633 276.5 633 293 647 c 132,-1,36
 309.5 661 309.5 661 309.5 687 c 4,37,38
 309.5 707 309.5 707 299 720.5 c 132,-1,39
 288.5 734 288.5 734 271.5 734 c 260,40,41
 254.5 734 254.5 734 240.5 720.5 c 132,-1,42
 226.5 707 226.5 707 226.5 683 c 260,43,44
 226.5 659 226.5 659 237.5 646 c 132,-1,45
 248.5 633 248.5 633 264.5 633 c 4,34,35
47.5 0 m 1,46,-1
 47.5 511 l 1,47,-1
 119.5 511 l 1,48,-1
 132.5 432 l 1,49,-1
 137.5 432 l 1,50,51
 154 463 154 463 179 482.5 c 128,-1,52
 204 502 204 502 238.5 511.5 c 0,53,54
 272 521 272 521 312.5 521 c 0,55,56
 394 521 394 521 443 475.5 c 0,57,58
 492.5 429.536132812 492.5 429.536132812 492.5 333 c 2,59,-1
 492.5 0 l 1,60,-1
 402.5 0 l 1,61,-1
 402.5 317 l 2,62,63
 401.984375 385.017578125 401.984375 385.017578125 375 416.5 c 128,-1,64
 348 448 348 448 286.5 448 c 0,65,66
 195 448 195 448 171 396 c 0,67,68
 137.5 318.848632812 137.5 318.848632812 137.5 250 c 2,69,-1
 137.5 0 l 1,70,-1
 47.5 0 l 1,46,-1
EndSplineSet
EndChar

StartChar: O
Encoding: 79 79 49
Width: 540
GlyphClass: 2
Flags: W
LayerCount: 2
Fore
SplineSet
152.204101562 381.428710938 m 0,0,1
 140.09765625 386.329101562 140.09765625 386.329101562 132.182617188 396.12890625 c 128,-1,2
 124.267578125 405.930664062 124.267578125 405.930664062 121.939453125 416.8203125 c 128,-1,3
 119.611328125 427.709960938 119.611328125 427.709960938 122.87109375 439.145507812 c 0,4,5
 127.060546875 451.66796875 127.060546875 451.66796875 135.442382812 457.658203125 c 0,6,7
 140.09765625 460.379882812 140.09765625 460.379882812 147.08203125 463.103515625 c 0,8,9
 154.06640625 464.736328125 154.06640625 464.736328125 166.637695312 466.915039062 c 128,-1,10
 179.208984375 469.091796875 179.208984375 469.091796875 197.833007812 469.091796875 c 0,11,12
 253.704101562 469.091796875 253.704101562 469.091796875 282.571289062 469.63671875 c 0,13,14
 349.618164062 469.091796875 349.618164062 469.091796875 372.897460938 468.00390625 c 128,-1,15
 396.177734375 466.915039062 396.177734375 466.915039062 407.818359375 460.924804688 c 0,16,17
 419.458007812 456.024414062 419.458007812 456.024414062 422.250976562 445.678710938 c 0,18,19
 425.044921875 436.421875 425.044921875 436.421875 425.044921875 419.54296875 c 0,20,21
 425.044921875 405.930664062 425.044921875 405.930664062 419.923828125 398.307617188 c 128,-1,22
 414.801757812 390.684570312 414.801757812 390.684570312 401.764648438 385.240234375 c 128,-1,23
 388.728515625 379.794921875 388.728515625 379.794921875 366.379882812 378.16015625 c 0,24,25
 344.03125 375.438476562 344.03125 375.438476562 282.571289062 375.983398438 c 0,26,27
 209.9375 375.438476562 209.9375 375.438476562 183.3984375 377.616210938 c 128,-1,28
 156.859375 379.794921875 156.859375 379.794921875 152.204101562 381.428710938 c 0,0,1
159.653320312 447.857421875 m 0,29,30
 159.653320312 449.491210938 159.653320312 449.491210938 157.325195312 451.66796875 c 0,31,32
 155.928710938 452.7578125 155.928710938 452.7578125 151.272460938 450.034179688 c 128,-1,33
 146.616210938 447.3125 146.616210938 447.3125 144.2890625 436.966796875 c 0,34,35
 141.959960938 427.709960938 141.959960938 427.709960938 141.959960938 419.54296875 c 256,36,37
 141.959960938 412.46484375 141.959960938 412.46484375 143.822265625 411.919921875 c 0,38,39
 146.616210938 412.46484375 146.616210938 412.46484375 151.272460938 426.077148438 c 0,40,41
 156.859375 440.779296875 156.859375 440.779296875 156.859375 441.322265625 c 0,42,43
 159.653320312 444.045898438 159.653320312 444.045898438 159.653320312 447.857421875 c 0,29,30
150.340820312 206.098632812 m 0,44,45
 132.6484375 209.91015625 132.6484375 209.91015625 123.801757812 225.15625 c 128,-1,46
 114.955078125 240.40234375 114.955078125 240.40234375 121.473632812 256.192382812 c 0,47,48
 126.129882812 266.5390625 126.129882812 266.5390625 133.11328125 271.439453125 c 0,49,50
 140.09765625 277.428710938 140.09765625 277.428710938 154.53125 279.606445312 c 0,51,52
 176.415039062 282.873046875 176.415039062 282.873046875 192.245117188 282.873046875 c 0,53,54
 251.841796875 282.873046875 251.841796875 282.873046875 301.661132812 283.41796875 c 128,-1,55
 351.48046875 283.962890625 351.48046875 283.962890625 375.2265625 281.78515625 c 128,-1,56
 398.971679688 279.606445312 398.971679688 279.606445312 412.008789062 276.33984375 c 128,-1,57
 425.044921875 273.072265625 425.044921875 273.072265625 430.166992188 265.44921875 c 128,-1,58
 435.2890625 257.826171875 435.2890625 257.826171875 435.2890625 246.391601562 c 0,59,60
 435.2890625 231.69140625 435.2890625 231.69140625 429.700195312 222.434570312 c 0,61,62
 424.11328125 212.088867188 424.11328125 212.088867188 409.680664062 207.1875 c 0,63,64
 395.247070312 201.198242188 395.247070312 201.198242188 371.03515625 199.020507812 c 0,65,66
 336.581054688 195.75390625 336.581054688 195.75390625 283.502929688 196.297851562 c 0,67,68
 210.869140625 196.841796875 210.869140625 196.841796875 184.329101562 200.110351562 c 128,-1,69
 157.791015625 203.376953125 157.791015625 203.376953125 150.340820312 206.098632812 c 0,44,45
153.134765625 259.458984375 m 0,70,71
 153.134765625 262.182617188 153.134765625 262.182617188 150.340820312 262.727539062 c 256,72,73
 147.546875 262.182617188 147.546875 262.182617188 146.616210938 261.637695312 c 0,74,75
 144.75390625 260.00390625 144.75390625 260.00390625 141.959960938 255.6484375 c 128,-1,76
 139.166992188 251.291992188 139.166992188 251.291992188 139.166992188 243.125 c 0,77,78
 139.166992188 233.868164062 139.166992188 233.868164062 140.563476562 232.234375 c 0,79,80
 141.959960938 231.69140625 141.959960938 231.69140625 146.616210938 236.591796875 c 0,81,82
 150.340820312 240.40234375 150.340820312 240.40234375 151.73828125 247.48046875 c 0,83,84
 153.134765625 253.470703125 153.134765625 253.470703125 153.134765625 259.458984375 c 0,70,71
267.672851562 -1.35546875 m 0,85,86
 200.625976562 -1.35546875 200.625976562 -1.35546875 150.806640625 28.591796875 c 128,-1,87
 100.987304688 58.5400390625 100.987304688 58.5400390625 68.3955078125 105.91015625 c 128,-1,88
 35.8037109375 153.282226562 35.8037109375 153.282226562 19.5068359375 212.088867188 c 128,-1,89
 3.2109375 270.89453125 3.2109375 270.89453125 3.2109375 329.700195312 c 0,90,91
 3.2109375 401.57421875 3.2109375 401.57421875 21.8359375 462.55859375 c 128,-1,92
 40.4599609375 523.541992188 40.4599609375 523.541992188 75.3798828125 567.647460938 c 128,-1,93
 110.299804688 611.751953125 110.299804688 611.751953125 160.583984375 636.797851562 c 128,-1,94
 210.869140625 661.845703125 210.869140625 661.845703125 273.259765625 661.845703125 c 0,95,96
 330.994140625 661.845703125 330.994140625 661.845703125 379.416015625 637.342773438 c 128,-1,97
 427.837890625 612.840820312 427.837890625 612.840820312 462.758789062 569.825195312 c 128,-1,98
 497.678710938 526.809570312 497.678710938 526.809570312 517.233398438 467.458984375 c 128,-1,99
 536.7890625 408.108398438 536.7890625 408.108398438 536.7890625 339.501953125 c 0,100,101
 536.7890625 269.805664062 536.7890625 269.805664062 516.768554688 207.732421875 c 128,-1,102
 496.747070312 145.66015625 496.747070312 145.66015625 460.896484375 99.376953125 c 128,-1,103
 425.044921875 53.0947265625 425.044921875 53.0947265625 375.69140625 25.869140625 c 128,-1,104
 326.337890625 -1.35546875 326.337890625 -1.35546875 267.672851562 -1.35546875 c 0,85,86
269.53515625 82.4970703125 m 0,105,106
 363.5859375 82.4970703125 363.5859375 82.4970703125 411.54296875 151.6484375 c 128,-1,107
 459.5 220.80078125 459.5 220.80078125 459.5 339.501953125 c 0,108,109
 459.5 387.416992188 459.5 387.416992188 446.928710938 431.522460938 c 128,-1,110
 434.357421875 475.626953125 434.357421875 475.626953125 410.146484375 509.384765625 c 128,-1,111
 385.935546875 543.14453125 385.935546875 543.14453125 351.48046875 563.291015625 c 128,-1,112
 317.026367188 583.4375 317.026367188 583.4375 273.259765625 583.4375 c 0,113,114
 231.35546875 583.4375 231.35546875 583.4375 196.435546875 563.834960938 c 128,-1,115
 161.515625 544.233398438 161.515625 544.233398438 136.373046875 511.563476562 c 128,-1,116
 111.23046875 478.893554688 111.23046875 478.893554688 97.2626953125 435.333984375 c 128,-1,117
 83.294921875 391.7734375 83.294921875 391.7734375 83.294921875 342.768554688 c 256,118,119
 83.294921875 293.763671875 83.294921875 293.763671875 95.8662109375 246.936523438 c 128,-1,120
 108.4375 200.110351562 108.4375 200.110351562 132.182617188 163.62890625 c 128,-1,121
 155.928710938 127.146484375 155.928710938 127.146484375 190.3828125 104.822265625 c 128,-1,122
 224.837890625 82.4970703125 224.837890625 82.4970703125 269.53515625 82.4970703125 c 0,105,106
EndSplineSet
EndChar

StartChar: P
Encoding: 80 80 50
Width: 540
GlyphClass: 2
Flags: W
LayerCount: 2
Fore
SplineSet
79.9375 -14 m 0,0,1
 59.9375 -14 59.9375 -14 42.9375 1 c 128,-1,2
 25.9375 16 25.9375 16 25.9375 69 c 2,3,-1
 25.9375 526 l 2,4,5
 25.9375 547 25.9375 547 34.4375 564 c 128,-1,6
 42.9375 581 42.9375 581 57.4375 592.5 c 128,-1,7
 71.9375 604 71.9375 604 90.4375 610 c 128,-1,8
 108.9375 616 108.9375 616 128.9375 616 c 2,9,-1
 310.9375 616 l 2,10,11
 341.9375 616 341.9375 616 377.4375 604 c 128,-1,12
 412.9375 592 412.9375 592 442.9375 566 c 128,-1,13
 472.9375 540 472.9375 540 492.9375 498 c 0,14,15
 518.9375 444 518.9375 444 512.9375 397 c 256,16,17
 511.9375 391 511.9375 391 493.4375 356.5 c 0,18,19
 460.9375 296 460.9375 296 444.9375 278.5 c 0,20,21
 415.9375 247 415.9375 247 381.9375 230.5 c 128,-1,22
 347.9375 214 347.9375 214 317.9375 214 c 2,23,-1
 165.9375 214 l 2,24,25
 156.9375 214 156.9375 214 148.4375 210 c 128,-1,26
 139.9375 206 139.9375 206 139.9375 132 c 2,27,-1
 139.9375 65 l 2,28,29
 139.9375 33 139.9375 33 134.4375 21 c 128,-1,30
 128.9375 9 128.9375 9 119.9375 1 c 128,-1,31
 110.9375 -7 110.9375 -7 100.4375 -10.5 c 128,-1,32
 89.9375 -14 89.9375 -14 79.9375 -14 c 0,0,1
306.9375 303 m 2,33,34
 323.9375 303 323.9375 303 339.9375 311 c 0,35,36
 363.9375 323 363.9375 323 369.4375 336.5 c 0,37,38
 386.9375 381 386.9375 381 390.9375 382 c 0,39,40
 398.9375 384 398.9375 384 398.9375 385 c 0,41,42
 398.9375 428 398.9375 428 390.9375 456.5 c 128,-1,43
 382.9375 485 382.9375 485 369.9375 501.5 c 128,-1,44
 356.9375 518 356.9375 518 340.9375 525 c 128,-1,45
 324.9375 532 324.9375 532 309.9375 532 c 2,46,-1
 164.9375 532 l 2,47,48
 139.9375 532 139.9375 532 139.9375 498 c 2,49,-1
 139.9375 326 l 2,50,51
 139.9375 303 139.9375 303 170.9375 303 c 2,52,-1
 306.9375 303 l 2,33,34
65.9375 21 m 256,53,54
 60.9375 26 60.9375 26 57.4375 39 c 128,-1,55
 53.9375 52 53.9375 52 53.9375 78.5 c 128,-1,56
 53.9375 105 53.9375 105 46.9375 105 c 0,57,58
 41.9375 105 41.9375 105 40.4375 96.5 c 128,-1,59
 38.9375 88 38.9375 88 38.9375 76 c 0,60,61
 38.9375 38 38.9375 38 45.9375 22 c 128,-1,62
 52.9375 6 52.9375 6 62.9375 6 c 0,63,64
 64.9375 6 64.9375 6 67.9375 8 c 128,-1,65
 70.9375 10 70.9375 10 70.9375 12 c 0,66,67
 70.9375 16 70.9375 16 65.9375 21 c 256,53,54
EndSplineSet
EndChar

StartChar: Q
Encoding: 81 81 51
Width: 540
GlyphClass: 2
Flags: W
LayerCount: 2
Fore
SplineSet
221.612304688 647 m 4,0,1
 195.012695312 647 195.012695312 647 178.912109375 663.25 c 4,2,3
 162.8125 679.5 162.8125 679.5 162.8125 706.799804688 c 4,4,5
 162.8125 731.5 162.8125 731.5 176.8125 752.950195312 c 4,6,7
 190.8125 774.400390625 190.8125 774.400390625 221.612304688 774.400390625 c 4,8,9
 253.8125 774.400390625 253.8125 774.400390625 270.612304688 754.25 c 4,10,11
 287.412109375 734.100585938 287.412109375 734.100585938 287.412109375 706.799804688 c 4,12,13
 287.412109375 676.900390625 287.412109375 676.900390625 268.512695312 661.950195312 c 4,14,15
 249.612304688 647 249.612304688 647 221.612304688 647 c 4,0,1
196.412109375 714.600585938 m 4,16,17
 197.8125 728.900390625 197.8125 728.900390625 203.412109375 740.600585938 c 4,18,19
 209.012695312 752.299804688 209.012695312 752.299804688 202.012695312 752.299804688 c 4,20,21
 192.212890625 752.299804688 192.212890625 752.299804688 185.912109375 733.450195312 c 4,22,23
 179.612304688 714.600585938 179.612304688 714.600585938 179.612304688 700.299804688 c 4,24,25
 179.612304688 687.299804688 179.612304688 687.299804688 186.612304688 687.299804688 c 4,26,27
 192.212890625 687.299804688 192.212890625 687.299804688 193.612304688 697.049804688 c 4,28,29
 195.012695312 706.799804688 195.012695312 706.799804688 196.412109375 714.600585938 c 4,16,17
EndSplineSet
Refer: 83 113 N 1 0 0 1 -0.000183885 0 2
EndChar

StartChar: R
Encoding: 82 82 52
Width: 540
GlyphClass: 2
Flags: W
LayerCount: 2
Fore
SplineSet
301 609 m 4,0,1
 274.400390625 609 274.400390625 609 258.299804688 625.25 c 132,-1,2
 242.200195312 641.5 242.200195312 641.5 242.200195312 668.799804688 c 4,3,4
 242.200195312 693.5 242.200195312 693.5 256.200195312 714.950195312 c 132,-1,5
 270.200195312 736.400390625 270.200195312 736.400390625 301 736.400390625 c 4,6,7
 333.200195312 736.400390625 333.200195312 736.400390625 350 716.25 c 132,-1,8
 366.799804688 696.100585938 366.799804688 696.100585938 366.799804688 668.799804688 c 4,9,10
 366.799804688 638.900390625 366.799804688 638.900390625 347.900390625 623.950195312 c 132,-1,11
 329 609 329 609 301 609 c 4,0,1
275.799804688 676.600585938 m 4,12,13
 277.200195312 690.900390625 277.200195312 690.900390625 282.799804688 702.600585938 c 132,-1,14
 288.400390625 714.299804688 288.400390625 714.299804688 281.400390625 714.299804688 c 4,15,16
 271.600585938 714.299804688 271.600585938 714.299804688 265.299804688 695.450195312 c 132,-1,17
 259 676.600585938 259 676.600585938 259 662.299804688 c 4,18,19
 259 649.299804688 259 649.299804688 266 649.299804688 c 4,20,21
 271.600585938 649.299804688 271.600585938 649.299804688 273 659.049804688 c 132,-1,22
 274.400390625 668.799804688 274.400390625 668.799804688 275.799804688 676.600585938 c 4,12,13
15 0 m 1,23,-1
 15 60 l 1,24,-1
 178 75 l 1,25,-1
 178 461 l 1,26,-1
 31 474 l 1,27,-1
 31 536 l 1,28,-1
 250 536 l 1,29,-1
 262 438 l 1,30,-1
 266 438 l 1,31,32
 294 491 294 491 327.5 518.5 c 128,-1,33
 361 546 361 546 416 546 c 0,34,35
 450 546 450 546 476.5 540 c 128,-1,36
 503 534 503 534 525 524 c 1,37,-1
 501 445 l 1,38,39
 485 454 485 454 463 460.5 c 128,-1,40
 441 467 441 467 416 467 c 0,41,42
 373 467 373 467 340 440 c 128,-1,43
 307 413 307 413 288 368 c 128,-1,44
 269 323 269 323 269 269 c 2,45,-1
 269 75 l 1,46,-1
 425 60 l 1,47,-1
 425 0 l 1,48,-1
 15 0 l 1,23,-1
EndSplineSet
EndChar

StartChar: S
Encoding: 83 83 53
Width: 540
GlyphClass: 2
Flags: W
LayerCount: 2
Fore
SplineSet
296 659.599609375 m 0,0,1
 269.400390625 659.599609375 269.400390625 659.599609375 253.299804688 675.849609375 c 0,2,3
 237.200195312 692.099609375 237.200195312 692.099609375 237.200195312 719.399414062 c 0,4,5
 237.200195312 744.099609375 237.200195312 744.099609375 251.200195312 765.549804688 c 0,6,7
 265.200195312 787 265.200195312 787 296 787 c 0,8,9
 328.200195312 787 328.200195312 787 345 766.849609375 c 0,10,11
 361.799804688 746.700195312 361.799804688 746.700195312 361.799804688 719.399414062 c 0,12,13
 361.799804688 689.5 361.799804688 689.5 342.900390625 674.549804688 c 0,14,15
 324 659.599609375 324 659.599609375 296 659.599609375 c 0,0,1
270.799804688 727.200195312 m 0,16,17
 272.200195312 741.5 272.200195312 741.5 277.799804688 753.200195312 c 0,18,19
 283.400390625 764.899414062 283.400390625 764.899414062 276.400390625 764.899414062 c 0,20,21
 266.600585938 764.899414062 266.600585938 764.899414062 260.299804688 746.049804688 c 0,22,23
 254 727.200195312 254 727.200195312 254 712.899414062 c 0,24,25
 254 699.899414062 254 699.899414062 261 699.899414062 c 0,26,27
 266.600585938 699.899414062 266.600585938 699.899414062 268 709.649414062 c 0,28,29
 269.400390625 719.399414062 269.400390625 719.399414062 270.799804688 727.200195312 c 0,16,17
EndSplineSet
Refer: 85 115 N 1 0 0 1 0 0 2
EndChar

StartChar: T
Encoding: 84 84 54
Width: 540
GlyphClass: 2
Flags: W
LayerCount: 2
Fore
SplineSet
285.950195312 0 m 4,0,1
 277.150390625 0 277.150390625 0 267.25 3 c 132,-1,2
 257.349609375 6 257.349609375 6 248.549804688 11 c 132,-1,3
 239.75 16 239.75 16 233.700195312 23.5 c 132,-1,4
 227.650390625 31 227.650390625 31 227.650390625 40 c 6,5,-1
 227.650390625 525 l 5,6,7
 171.549804688 525 171.549804688 525 116.549804688 525 c 4,8,9
 69.25 525 69.25 525 51.099609375 529 c 132,-1,10
 32.9501953125 533 32.9501953125 533 20.2998046875 542.5 c 132,-1,11
 7.650390625 552 7.650390625 552 7.650390625 570 c 4,12,13
 7.650390625 592 7.650390625 592 23.0498046875 604 c 132,-1,14
 38.4501953125 616 38.4501953125 616 61.5498046875 616 c 6,15,-1
 496.049804688 616 l 6,16,17
 513.650390625 616 513.650390625 616 523 602 c 132,-1,18
 532.349609375 588 532.349609375 588 532.349609375 574 c 4,19,20
 532.349609375 556 532.349609375 556 523 546.5 c 132,-1,21
 513.650390625 537 513.650390625 537 499.349609375 532 c 132,-1,22
 485.049804688 527 485.049804688 527 444.900390625 526 c 132,-1,23
 404.75 525 404.75 525 360.75 525 c 6,24,-1
 351.950195312 525 l 5,25,-1
 351.950195312 47 l 6,26,27
 351.950195312 24 351.950195312 24 329.950195312 12 c 132,-1,28
 307.950195312 0 307.950195312 0 285.950195312 0 c 4,0,1
32.9501953125 553 m 260,29,30
 38.4501953125 553 38.4501953125 553 38.4501953125 560 c 4,31,32
 38.4501953125 568 38.4501953125 568 41.75 578.5 c 132,-1,33
 45.0498046875 589 45.0498046875 589 51.650390625 598 c 4,34,35
 54.9501953125 603 54.9501953125 603 46.150390625 603 c 4,36,37
 36.25 603 36.25 603 29.650390625 591.5 c 132,-1,38
 23.0498046875 580 23.0498046875 580 23.0498046875 569 c 4,39,40
 23.0498046875 565 23.0498046875 565 25.25 559 c 132,-1,41
 27.4501953125 553 27.4501953125 553 32.9501953125 553 c 260,29,30
265.049804688 23 m 4,42,43
 274.950195312 23 274.950195312 23 274.950195312 32 c 4,44,45
 274.950195312 36 274.950195312 36 270.549804688 37 c 4,46,47
 263.950195312 39 263.950195312 39 261.200195312 49.5 c 132,-1,48
 258.450195312 60 258.450195312 60 258.450195312 65 c 4,49,50
 258.450195312 67 258.450195312 67 259 73 c 132,-1,51
 259.549804688 79 259.549804688 79 259.549804688 85 c 132,-1,52
 259.549804688 91 259.549804688 91 258.450195312 95.5 c 132,-1,53
 257.349609375 100 257.349609375 100 252.950195312 100 c 260,54,55
 248.549804688 100 248.549804688 100 246.349609375 96 c 132,-1,56
 244.150390625 92 244.150390625 92 243.049804688 86.5 c 132,-1,57
 241.950195312 81 241.950195312 81 241.400390625 75.5 c 132,-1,58
 240.849609375 70 240.849609375 70 240.849609375 68 c 4,59,60
 240.849609375 64 240.849609375 64 241.950195312 56 c 132,-1,61
 243.049804688 48 243.049804688 48 245.799804688 41 c 132,-1,62
 248.549804688 34 248.549804688 34 253.5 28.5 c 132,-1,63
 258.450195312 23 258.450195312 23 265.049804688 23 c 4,42,43
EndSplineSet
EndChar

StartChar: U
Encoding: 85 85 55
Width: 540
GlyphClass: 2
Flags: W
LayerCount: 2
Fore
SplineSet
222.5 -4 m 0,0,1
 177 -4 177 -4 141 12.5 c 0,2,3
 91 35 91 35 79.5 58.5 c 0,4,5
 46 125 46 125 41 129.5 c 0,6,7
 28 143 28 143 27.5 221 c 2,8,-1
 27.5 530 l 2,9,10
 28 536 28 536 29.5 555 c 0,11,12
 31 570 31 570 37.5 583.5 c 0,13,14
 43 597 43 597 54 606.5 c 128,-1,15
 65 616 65 616 80.5 616 c 0,16,17
 124 616 124 616 127.5 599 c 0,18,19
 141 530 141 530 141.5 528 c 2,20,-1
 141.5 228 l 2,21,22
 141 204 141 204 141.5 179.5 c 0,23,24
 141 155 141 155 149 135.5 c 128,-1,25
 157 116 157 116 174 103.5 c 128,-1,26
 191 91 191 91 270.5 91 c 128,-1,27
 350 91 350 91 366.5 110 c 0,28,29
 384 129 384 129 391 157.5 c 128,-1,30
 398 186 398 186 399 220 c 0,31,32
 399 237 399 237 399.5 284 c 2,33,-1
 399.5 531 l 2,34,35
 400 544 400 544 401.5 556 c 0,36,37
 404 571 404 571 409 584.5 c 128,-1,38
 414 598 414 598 424 608 c 128,-1,39
 434 618 434 618 449.5 618 c 0,40,41
 491 618 491 618 496.5 597.5 c 4,42,43
 512 534 512 534 512.5 532 c 6,44,-1
 512.5 246 l 2,45,46
 511.938879457 188.765704584 511.938879457 188.765704584 500 143 c 0,47,48
 488 97 488 97 462 64.5 c 128,-1,49
 436 32 436 32 399.5 14 c 0,50,51
 362 -4 362 -4 222.5 -4 c 0,0,1
427.5 556 m 0,52,53
 428 560 428 560 430.5 568 c 0,54,55
 434 576 434 576 440.5 584 c 0,56,57
 448 595 448 595 449 599 c 128,-1,58
 450 603 450 603 440.5 603 c 0,59,60
 436 603 436 603 431 598 c 128,-1,61
 426 593 426 593 423.5 588 c 0,62,63
 422 583 422 583 418 575 c 0,64,65
 413 565 413 565 413.5 558 c 0,66,67
 414 553 414 553 414.5 548.5 c 0,68,69
 416 544 416 544 420.5 544 c 256,70,71
 426 544 426 544 426.5 547.5 c 128,-1,72
 427 551 427 551 427.5 556 c 0,52,53
69.5 570 m 0,73,74
 74 579 74 579 79 585 c 0,75,76
 85 592 85 592 84.5 598 c 0,77,78
 84 603 84 603 81.5 603 c 256,79,80
 78 603 78 603 72.5 600.5 c 0,81,82
 66 598 66 598 61.5 590 c 0,83,84
 46 569 46 569 44.5 552 c 0,85,86
 42 535 42 535 48.5 535 c 0,87,88
 54 535 54 535 59 545.5 c 0,89,90
 63 556 63 556 69.5 570 c 0,73,74
138.5 48 m 0,91,92
 138 51 138 51 131 57 c 128,-1,93
 124 63 124 63 115.5 72 c 0,94,95
 108 80 108 80 97 93.5 c 0,96,97
 91 100 91 100 79.5 122 c 0,98,99
 74 132 74 132 70 136 c 128,-1,100
 66 140 66 140 63.5 140 c 0,101,102
 60 140 60 140 59.5 133 c 0,103,104
 60 125 60 125 67.5 109.5 c 0,105,106
 76 94 76 94 86.5 79 c 0,107,108
 98 64 98 64 110 53 c 128,-1,109
 122 42 122 42 132.5 42 c 0,110,111
 140 42 140 42 138.5 48 c 0,91,92
161.5 39 m 0,112,113
 162 40 162 40 159 43 c 128,-1,114
 156 46 156 46 153.5 46 c 0,115,116
 148 45 148 45 146.5 42 c 0,117,118
 144 39 144 39 144.5 37 c 0,119,120
 146 34 146 34 146.5 31.5 c 0,121,122
 148 29 148 29 152.5 30 c 0,123,124
 157 30 157 30 161.5 39 c 0,112,113
EndSplineSet
EndChar

StartChar: V
Encoding: 86 86 56
Width: 540
GlyphClass: 2
Flags: W
LayerCount: 2
Fore
SplineSet
284.5 641 m 4,0,1
 257.900390625 641 257.900390625 641 241.799804688 657.25 c 4,2,3
 225.700195312 673.5 225.700195312 673.5 225.700195312 700.799804688 c 4,4,5
 225.700195312 725.5 225.700195312 725.5 239.700195312 746.950195312 c 4,6,7
 253.700195312 768.400390625 253.700195312 768.400390625 284.5 768.400390625 c 4,8,9
 316.700195312 768.400390625 316.700195312 768.400390625 333.5 748.25 c 4,10,11
 350.299804688 728.100585938 350.299804688 728.100585938 350.299804688 700.799804688 c 4,12,13
 350.299804688 670.900390625 350.299804688 670.900390625 331.400390625 655.950195312 c 4,14,15
 312.5 641 312.5 641 284.5 641 c 4,0,1
259.299804688 708.600585938 m 4,16,17
 260.700195312 722.900390625 260.700195312 722.900390625 266.299804688 734.600585938 c 4,18,19
 271.900390625 746.299804688 271.900390625 746.299804688 264.900390625 746.299804688 c 4,20,21
 255.100585938 746.299804688 255.100585938 746.299804688 248.799804688 727.450195312 c 4,22,23
 242.5 708.600585938 242.5 708.600585938 242.5 694.299804688 c 4,24,25
 242.5 681.299804688 242.5 681.299804688 249.5 681.299804688 c 4,26,27
 255.100585938 681.299804688 255.100585938 681.299804688 256.5 691.049804688 c 4,28,29
 257.900390625 700.799804688 257.900390625 700.799804688 259.299804688 708.600585938 c 4,16,17
EndSplineSet
Refer: 88 118 N 1 0 0 1 0 0 2
EndChar

StartChar: W
Encoding: 87 87 57
Width: 540
GlyphClass: 2
Flags: W
LayerCount: 2
Fore
SplineSet
543 538 m 1,0,-1
 5 538 l 1,1,-1
 5 617 l 1,2,-1
 543 617 l 1,3,-1
 543 538 l 1,0,-1
373 0 m 0,4,5
 350 0 350 0 333.5 6 c 128,-1,6
 317 12 317 12 305.5 23.5 c 128,-1,7
 294 35 294 35 286 51 c 0,8,9
 274 75 274 75 271 87 c 0,10,11
 270 91 270 91 269 97 c 128,-1,12
 268 103 268 103 266.5 109 c 128,-1,13
 265 115 265 115 263.5 119 c 128,-1,14
 262 123 262 123 260 123 c 256,15,16
 258 123 258 123 256 115.5 c 128,-1,17
 254 108 254 108 250 97 c 0,18,19
 240 71 240 71 231 52.5 c 128,-1,20
 222 34 222 34 210.5 22.5 c 128,-1,21
 199 11 199 11 185 5.5 c 128,-1,22
 171 0 171 0 151 0 c 0,23,24
 111 0 111 0 81.5 13.5 c 128,-1,25
 52 27 52 27 33 51.5 c 128,-1,26
 14 76 14 76 5 109.5 c 128,-1,27
 -4 143 -4 143 -4 183 c 2,28,-1
 -4 522 l 2,29,30
 -4 532 -4 532 -1 545.5 c 128,-1,31
 2 559 2 559 9 571 c 128,-1,32
 16 583 16 583 27.5 591.5 c 128,-1,33
 39 600 39 600 57 600 c 0,34,35
 86 600 86 600 97 579.5 c 128,-1,36
 107.903320312 559.1796875 107.903320312 559.1796875 108 527 c 2,37,-1
 109 193 l 2,38,39
 109 183 109 183 111 166.5 c 128,-1,40
 113 150 113 150 117.5 134 c 128,-1,41
 122 118 122 118 131 106.5 c 128,-1,42
 140 95 140 95 153 95 c 0,43,44
 176 95 176 95 189.5 129 c 128,-1,45
 203 163 203 163 210 219 c 128,-1,46
 217 275 217 275 218.5 285.5 c 128,-1,47
 220 296 220 296 220 372 c 4,48,49
 220 436 220 436 230 460.5 c 132,-1,50
 240 485 240 485 270 485 c 4,51,52
 284 485 284 485 293 480 c 132,-1,53
 302 475 302 475 308 459 c 132,-1,54
 314 443 314 443 316.5 413 c 132,-1,55
 319 383 319 383 319 333 c 4,56,57
 319 271 l 0,58,-1
 320.5 236.5 l 0,59,60
 322 202 322 202 324.5 181.5 c 128,-1,61
 327 161 327 161 332 146 c 0,62,63
 341 117 341 117 351 105.5 c 128,-1,64
 361 94 361 94 374 94 c 0,65,66
 433 94 433 94 433 239 c 2,67,-1
 433 539 l 2,68,69
 433 550 433 550 435 561 c 128,-1,70
 437 572 437 572 442.5 580.5 c 128,-1,71
 448 589 448 589 458 594.5 c 128,-1,72
 468 600 468 600 483 600 c 0,73,74
 515 600 515 600 529.5 582.5 c 128,-1,75
 544 565 544 565 544 539 c 2,76,-1
 544 220 l 2,77,78
 544 178 544 178 532.5 138.5 c 128,-1,79
 521 99 521 99 499.5 68 c 128,-1,80
 478 37 478 37 446 18.5 c 128,-1,81
 414 0 414 0 373 0 c 0,4,5
21 515 m 0,82,83
 28 515 28 515 30.5 522 c 128,-1,84
 33 529 33 529 34 534 c 0,85,86
 36 548 36 548 45 557.5 c 0,87,88
 60 573 60 573 60 579 c 0,89,90
 60 581 60 581 58 584 c 128,-1,91
 56 587 56 587 53 587 c 0,92,93
 47 587 47 587 40 580.5 c 128,-1,94
 33 574 33 574 27 565 c 128,-1,95
 21 556 21 556 17.5 545.5 c 128,-1,96
 14 535 14 535 14 527 c 0,97,98
 14 523 14 523 15 519 c 128,-1,99
 16 515 16 515 21 515 c 0,82,83
466 533 m 0,100,101
 466 543 466 543 469 551 c 128,-1,102
 472 559 472 559 476 566 c 0,103,104
 481 574 481 574 480 579 c 128,-1,105
 479 584 479 584 476 584 c 0,106,107
 471 584 471 584 464.5 580.5 c 128,-1,108
 458 577 458 577 454 567 c 0,109,110
 449 551 449 551 450.5 536 c 128,-1,111
 452 521 452 521 460 521 c 0,112,113
 462 521 462 521 464 524.5 c 128,-1,114
 466 528 466 528 466 533 c 0,100,101
247 421 m 4,115,116
 247 422 247 422 249 431.5 c 132,-1,117
 251 441 251 441 254 447 c 4,118,119
 261 460 261 460 263 465 c 132,-1,120
 265 470 265 470 262 470 c 4,121,122
 260 470 260 470 254.5 468 c 132,-1,123
 249 466 249 466 244 459 c 4,124,125
 233 444 233 444 233.5 427 c 132,-1,126
 234 410 234 410 242 410 c 4,127,128
 247 410 247 410 247 421 c 4,115,116
98 37 m 0,129,130
 97 42 97 42 84 51 c 128,-1,131
 71 60 71 60 65 67 c 0,132,133
 54 78 54 78 49.5 89 c 128,-1,134
 45 100 45 100 40 99 c 0,135,136
 36 99 36 99 36.5 92 c 128,-1,137
 37 85 37 85 41.5 75 c 128,-1,138
 46 65 46 65 55 54 c 128,-1,139
 64 43 64 43 77 34 c 0,140,141
 86 27 86 27 93 29 c 0,142,143
 98 29 98 29 98 37 c 0,129,130
364 22 m 0,144,145
 364 26 364 26 360.5 27 c 128,-1,146
 357 28 357 28 354 28 c 0,147,148
 349 29 349 29 339 38 c 128,-1,149
 329 47 329 47 323 57 c 0,150,151
 313 72 313 72 305 74 c 0,152,153
 302 74 302 74 302 69 c 0,154,155
 302 67 302 67 305.5 59 c 128,-1,156
 309 51 309 51 316 42 c 128,-1,157
 323 33 323 33 332.5 25.5 c 128,-1,158
 342 18 342 18 353 17 c 0,159,160
 357 17 357 17 360 17 c 128,-1,161
 363 17 363 17 364 22 c 0,144,145
EndSplineSet
EndChar

StartChar: X
Encoding: 88 88 58
Width: 540
GlyphClass: 2
Flags: W
LayerCount: 2
Fore
SplineSet
60.595703125 -3 m 4,0,1
 42.2958984375 -3 42.2958984375 -3 28.265625 7.5 c 132,-1,2
 14.2353515625 18 14.2353515625 18 14.2353515625 29 c 4,3,4
 14.2353515625 36 14.2353515625 36 19.1162109375 43 c 6,5,-1
 176.49609375 265 l 6,6,7
 196.015625 293 196.015625 293 196.015625 304 c 4,8,9
 196.015625 310 196.015625 310 191.135742188 318.5 c 132,-1,10
 186.255859375 327 186.255859375 327 180.15625 335 c 6,11,-1
 43.515625 526 l 6,12,13
 37.416015625 535 37.416015625 535 31.92578125 547 c 132,-1,14
 26.435546875 559 26.435546875 559 26.435546875 574 c 4,15,16
 26.435546875 588 26.435546875 588 44.1259765625 602 c 132,-1,17
 61.8154296875 616 61.8154296875 616 94.755859375 616 c 4,18,19
 102.076171875 616 102.076171875 616 108.786132812 614 c 132,-1,20
 115.49609375 612 115.49609375 612 122.815429688 606 c 132,-1,21
 130.135742188 600 130.135742188 600 138.67578125 589.5 c 132,-1,22
 147.215820312 579 147.215820312 579 159.416015625 562 c 6,23,-1
 254.576171875 430 l 6,24,25
 261.895507812 420 261.895507812 420 266.166015625 414 c 132,-1,26
 270.435546875 408 270.435546875 408 272.875976562 408 c 260,27,28
 275.315429688 408 275.315429688 408 289.956054688 430 c 6,29,-1
 405.85546875 602 l 6,30,31
 410.735351562 610 410.735351562 610 419.275390625 613 c 132,-1,32
 427.815429688 616 427.815429688 616 436.35546875 616 c 260,33,34
 444.895507812 616 444.895507812 616 458.92578125 613 c 132,-1,35
 472.956054688 610 472.956054688 610 485.15625 603 c 132,-1,36
 497.35546875 596 497.35546875 596 502.845703125 586 c 132,-1,37
 508.3359375 576 508.3359375 576 498.576171875 561 c 6,38,-1
 360.715820312 353 l 6,39,40
 341.196289062 324 341.196289062 324 341.196289062 316 c 4,41,42
 341.196289062 312 341.196289062 312 349.125976562 301.5 c 132,-1,43
 357.055664062 291 357.055664062 291 374.135742188 265 c 6,44,-1
 524.196289062 43 l 6,45,46
 527.85546875 39 527.85546875 39 522.975585938 31.5 c 132,-1,47
 518.095703125 24 518.095703125 24 507.116210938 17 c 132,-1,48
 496.135742188 10 496.135742188 10 480.275390625 5 c 132,-1,49
 464.416015625 0 464.416015625 0 446.116210938 0 c 4,50,51
 440.015625 0 440.015625 0 430.866210938 2 c 132,-1,52
 421.715820312 4 421.715820312 4 416.8359375 11 c 6,53,-1
 291.17578125 189 l 6,54,55
 285.076171875 198 285.076171875 198 279.5859375 205.5 c 132,-1,56
 274.095703125 213 274.095703125 213 269.215820312 213 c 260,57,58
 264.3359375 213 264.3359375 213 260.065429688 207 c 132,-1,59
 255.795898438 201 255.795898438 201 244.815429688 186 c 6,60,-1
 131.35546875 34 l 6,61,62
 115.49609375 13 115.49609375 13 98.416015625 5 c 132,-1,63
 81.3359375 -3 81.3359375 -3 60.595703125 -3 c 4,0,1
429.036132812 576 m 4,64,65
 429.036132812 582 429.036132812 582 442.456054688 593 c 260,66,67
 455.875976562 604 455.875976562 604 448.555664062 604 c 4,68,69
 442.456054688 604 442.456054688 604 435.135742188 601.5 c 132,-1,70
 427.815429688 599 427.815429688 599 421.715820312 591 c 4,71,72
 414.395507812 580 414.395507812 580 416.225585938 575.5 c 132,-1,73
 418.055664062 571 418.055664062 571 421.715820312 571 c 4,74,75
 429.036132812 571 429.036132812 571 429.036132812 576 c 4,64,65
64.255859375 563 m 4,76,77
 64.255859375 575 64.255859375 575 70.9658203125 579.5 c 132,-1,78
 77.67578125 584 77.67578125 584 76.4560546875 588 c 4,79,80
 74.015625 596 74.015625 596 65.4755859375 596 c 4,81,82
 60.595703125 596 60.595703125 596 55.7158203125 590.5 c 132,-1,83
 50.8359375 585 50.8359375 585 48.3955078125 577 c 132,-1,84
 45.9560546875 569 45.9560546875 569 46.5654296875 560 c 132,-1,85
 47.17578125 551 47.17578125 551 52.0556640625 544 c 4,86,87
 56.935546875 538 56.935546875 538 61.8154296875 539 c 4,88,89
 67.916015625 541 67.916015625 541 66.0859375 549.5 c 132,-1,90
 64.255859375 558 64.255859375 558 64.255859375 563 c 4,76,77
454.65625 13 m 4,91,92
 458.315429688 18 458.315429688 18 441.235351562 27 c 4,93,94
 437.576171875 29 437.576171875 29 432.696289062 34.5 c 132,-1,95
 427.815429688 40 427.815429688 40 424.15625 46 c 132,-1,96
 420.49609375 52 420.49609375 52 416.8359375 57 c 132,-1,97
 413.17578125 62 413.17578125 62 410.735351562 62 c 4,98,99
 404.635742188 62 404.635742188 62 404.635742188 56 c 4,100,101
 404.635742188 52 404.635742188 52 407.685546875 45 c 132,-1,102
 410.735351562 38 410.735351562 38 416.225585938 30.5 c 132,-1,103
 421.715820312 23 421.715820312 23 428.42578125 17 c 132,-1,104
 435.135742188 11 435.135742188 11 442.456054688 10 c 4,105,106
 446.116210938 10 446.116210938 10 450.385742188 10 c 132,-1,107
 454.65625 10 454.65625 10 454.65625 13 c 4,91,92
49.6162109375 20 m 4,108,109
 47.17578125 24 47.17578125 24 41.685546875 30 c 132,-1,110
 36.1962890625 36 36.1962890625 36 38.6357421875 41 c 4,111,112
 41.076171875 49 41.076171875 49 38.025390625 49 c 132,-1,113
 34.9755859375 49 34.9755859375 49 31.3154296875 43 c 4,114,115
 26.435546875 35 26.435546875 35 30.7060546875 25 c 132,-1,116
 34.9755859375 15 34.9755859375 15 41.076171875 13 c 4,117,118
 45.9560546875 11 45.9560546875 11 49.6162109375 12.5 c 132,-1,119
 53.275390625 14 53.275390625 14 49.6162109375 20 c 4,108,109
258.206054688 641 m 0,120,121
 231.606445312 641 231.606445312 641 215.505859375 657.25 c 128,-1,122
 199.40625 673.5 199.40625 673.5 199.40625 700.799804688 c 0,123,124
 199.40625 725.5 199.40625 725.5 213.40625 746.950195312 c 128,-1,125
 227.40625 768.400390625 227.40625 768.400390625 258.206054688 768.400390625 c 0,126,127
 290.40625 768.400390625 290.40625 768.400390625 307.206054688 748.25 c 128,-1,128
 324.005859375 728.100585938 324.005859375 728.100585938 324.005859375 700.799804688 c 0,129,130
 324.005859375 670.900390625 324.005859375 670.900390625 305.106445312 655.950195312 c 128,-1,131
 286.206054688 641 286.206054688 641 258.206054688 641 c 0,120,121
233.005859375 708.600585938 m 0,132,133
 234.40625 722.900390625 234.40625 722.900390625 240.005859375 734.600585938 c 128,-1,134
 245.606445312 746.299804688 245.606445312 746.299804688 238.606445312 746.299804688 c 0,135,136
 228.806640625 746.299804688 228.806640625 746.299804688 222.505859375 727.450195312 c 128,-1,137
 216.206054688 708.600585938 216.206054688 708.600585938 216.206054688 694.299804688 c 0,138,139
 216.206054688 681.299804688 216.206054688 681.299804688 223.206054688 681.299804688 c 0,140,141
 228.806640625 681.299804688 228.806640625 681.299804688 230.206054688 691.049804688 c 128,-1,142
 231.606445312 700.799804688 231.606445312 700.799804688 233.005859375 708.600585938 c 0,132,133
EndSplineSet
EndChar

StartChar: Y
Encoding: 89 89 59
Width: 540
GlyphClass: 2
Flags: W
LayerCount: 2
Fore
SplineSet
269.014648438 0 m 0,0,1
 242.651367188 0 242.651367188 0 229.514648438 16.5 c 0,2,3
 216.014648438 32.5673828125 216.014648438 32.5673828125 216.014648438 52 c 2,4,-1
 216.014648438 191 l 2,5,6
 215.651367188 206 215.651367188 206 214.514648438 214.5 c 0,7,8
 212.651367188 225 212.651367188 225 209.514648438 236 c 0,9,10
 205.651367188 247 205.651367188 247 200.014648438 260.5 c 0,11,12
 186.651367188 290 186.651367188 290 185.014648438 294 c 2,13,-1
 37.0146484375 556 l 2,14,15
 33.6513671875 562 33.6513671875 562 36.5146484375 573.5 c 0,16,17
 38.6513671875 584 38.6513671875 584 46.5146484375 593.5 c 0,18,19
 53.6513671875 603 53.6513671875 603 66.0146484375 609.5 c 0,20,21
 77.6513671875 616 77.6513671875 616 94.0146484375 616 c 0,22,23
 105.651367188 616 105.651367188 616 111.514648438 611.5 c 0,24,25
 119.016601562 605.71875 119.016601562 605.71875 125.014648438 595 c 2,26,-1
 247.014648438 377 l 2,27,28
 251.651367188 367 251.651367188 367 258.514648438 354 c 0,29,30
 264.651367188 342 264.651367188 342 271.014648438 342 c 256,31,32
 285.651367188 342 285.651367188 342 283.014648438 351.5 c 0,33,34
 282.546875 353.431640625 282.546875 353.431640625 296.014648438 377 c 2,35,-1
 428.014648438 608 l 6,36,37
 434.651367188 619 434.651367188 619 443.014648438 621.5 c 4,38,39
 452.651367188 624 452.651367188 624 460.014648438 624 c 4,40,41
 472.651367188 624 472.651367188 624 482.514648438 617 c 4,42,43
 491.651367188 610 491.651367188 610 497.514648438 600 c 4,44,45
 502.651367188 590 502.651367188 590 504.514648438 579 c 4,46,47
 505.6953125 566.540039062 505.6953125 566.540039062 502.014648438 560 c 6,48,-1
 345.014648438 281 l 2,49,50
 342.651367188 275 342.651367188 275 334.014648438 255.5 c 0,51,52
 329.651367188 245 329.651367188 245 328.514648438 234 c 0,53,54
 326.651367188 210 326.651367188 210 326.514648438 209.5 c 0,55,56
 326.014648438 209.209960938 326.014648438 209.209960938 326.014648438 174 c 2,57,-1
 326.014648438 52 l 2,58,59
 325.651367188 36 325.651367188 36 320.514648438 27 c 0,60,61
 314.651367188 17 314.651367188 17 306.514648438 11 c 0,62,63
 297.651367188 5 297.651367188 5 288.014648438 2.5 c 0,64,65
 277.651367188 0 277.651367188 0 269.014648438 0 c 0,0,1
68.0146484375 551 m 0,66,67
 65.6513671875 559 65.6513671875 559 66.5146484375 564.5 c 0,68,69
 66.6513671875 570 66.6513671875 570 66.0146484375 575 c 256,70,71
 64.6513671875 580 64.6513671875 580 63.0146484375 584 c 0,72,73
 60.6513671875 588 60.6513671875 588 59.0146484375 587 c 0,74,75
 47.6513671875 582 47.6513671875 582 49.5146484375 568 c 0,76,77
 50.6513671875 554 50.6513671875 554 54.0146484375 546 c 0,78,79
 59.6513671875 534 59.6513671875 534 66.0146484375 537 c 0,80,81
 69.6513671875 539 69.6513671875 539 70.0146484375 543 c 0,82,83
 69.6513671875 547 69.6513671875 547 68.0146484375 551 c 0,66,67
253.014648438 33 m 0,84,85
 251.014648438 37 251.014648438 37 247.514648438 47 c 128,-1,86
 244.014648438 57 244.014648438 57 242.014648438 74 c 0,87,88
 241.014648438 97 241.014648438 97 237.014648438 97 c 0,89,90
 236.014648438 97 236.014648438 97 234.014648438 93.5 c 128,-1,91
 232.014648438 90 232.014648438 90 231.014648438 81 c 0,92,93
 229.014648438 49 229.014648438 49 236.514648438 35 c 128,-1,94
 244.014648438 21 244.014648438 21 253.014648438 21 c 0,95,96
 257.014648438 21 257.014648438 21 256.014648438 24.5 c 128,-1,97
 255.014648438 28 255.014648438 28 253.014648438 33 c 0,84,85
EndSplineSet
EndChar

StartChar: Z
Encoding: 90 90 60
Width: 540
GlyphClass: 2
Flags: W
LayerCount: 2
Fore
SplineSet
286.5 575 m 0,0,1
 246.5 575 246.5 575 218 603 c 0,2,3
 189.5 631 189.5 631 189.5 675 c 0,4,5
 189.5 699 189.5 699 198 720.5 c 0,6,7
 206.5 742 206.5 742 221.5 757.5 c 0,8,9
 236.5 773 236.5 773 257.5 782.5 c 0,10,11
 278.5 792 278.5 792 303.5 792 c 0,12,13
 323.5 792 323.5 792 340.5 783.5 c 0,14,15
 357.5 775 357.5 775 369.5 760 c 0,16,17
 381.5 745 381.5 745 388 726 c 0,18,19
 394.5 707 394.5 707 394.5 686 c 0,20,21
 394.5 659 394.5 659 386 638.5 c 0,22,23
 377.5 618 377.5 618 362.5 604 c 0,24,25
 347.5 590 347.5 590 328 582.5 c 0,26,27
 308.5 575 308.5 575 286.5 575 c 0,0,1
249.5 748 m 0,28,29
 256.5 755 256.5 755 258 760 c 0,30,31
 259.5 765 259.5 765 257.5 765 c 0,32,33
 249.5 765 249.5 765 240.5 757.5 c 0,34,35
 231.5 750 231.5 750 224 739.5 c 0,36,37
 216.5 729 216.5 729 211.5 717 c 0,38,39
 206.5 705 206.5 705 206.5 695 c 0,40,41
 206.5 693 206.5 693 208 687 c 0,42,43
 209.5 681 209.5 681 212.5 681 c 0,44,45
 216.5 681 216.5 681 222.5 703 c 0,46,47
 225.5 717 225.5 717 233.5 728.5 c 0,48,49
 241.5 740 241.5 740 249.5 748 c 0,28,29
290.5 632 m 0,50,51
 302.5 632 302.5 632 319 646 c 0,52,53
 335.5 660 335.5 660 335.5 686 c 0,54,55
 335.5 706 335.5 706 325 719.5 c 0,56,57
 314.5 733 314.5 733 297.5 733 c 256,58,59
 280.5 733 280.5 733 266.5 719.5 c 0,60,61
 252.5 706 252.5 706 252.5 682 c 256,62,63
 252.5 658 252.5 658 263.5 645 c 0,64,65
 274.5 632 274.5 632 290.5 632 c 0,50,51
EndSplineSet
Refer: 92 122 N 1 0 0 1 0 0 2
EndChar

StartChar: bracketleft
Encoding: 91 91 61
Width: 540
Flags: W
LayerCount: 2
Fore
SplineSet
174.930664062 -70 m 0,0,1
 171.930664062 -67 171.930664062 -67 170.430664062 -56.5 c 128,-1,2
 168.930664062 -46 168.930664062 -46 167.930664062 -12.5 c 128,-1,3
 166.930664062 21 166.930664062 21 166.930664062 86.5 c 128,-1,4
 166.930664062 152 166.930664062 152 166.930664062 266 c 0,5,6
 166.930664062 347 166.930664062 347 166.930664062 405 c 128,-1,7
 166.930664062 463 166.930664062 463 166.930664062 503.5 c 128,-1,8
 166.930664062 544 166.930664062 544 167.930664062 570 c 128,-1,9
 168.930664062 596 168.930664062 596 170.930664062 611.5 c 128,-1,10
 172.930664062 627 172.930664062 627 175.930664062 635 c 128,-1,11
 178.930664062 643 178.930664062 643 183.930664062 649 c 0,12,13
 187.930664062 654 187.930664062 654 199.430664062 657 c 128,-1,14
 210.930664062 660 210.930664062 660 226.430664062 661.5 c 128,-1,15
 241.930664062 663 241.930664062 663 261.430664062 663.5 c 128,-1,16
 280.930664062 664 280.930664062 664 300.930664062 664 c 0,17,18
 341.930664062 664 341.930664062 664 362.430664062 650 c 128,-1,19
 382.930664062 636 382.930664062 636 363.930664062 616 c 0,20,21
 358.930664062 610 358.930664062 610 344.930664062 606 c 128,-1,22
 330.930664062 602 330.930664062 602 300.930664062 602 c 0,23,24
 286.930664062 602 286.930664062 602 279.430664062 600 c 128,-1,25
 271.930664062 598 271.930664062 598 268.930664062 593 c 128,-1,26
 265.930664062 588 265.930664062 588 265.930664062 579.5 c 128,-1,27
 265.930664062 571 265.930664062 571 265.930664062 557 c 2,28,-1
 265.930664062 -20 l 1,29,-1
 283.930664062 -20 l 2,30,31
 326.930664062 -20 326.930664062 -20 341.430664062 -27.5 c 128,-1,32
 355.930664062 -35 355.930664062 -35 355.930664062 -56 c 0,33,34
 355.930664062 -66 355.930664062 -66 352.430664062 -71.5 c 128,-1,35
 348.930664062 -77 348.930664062 -77 338.430664062 -79.5 c 128,-1,36
 327.930664062 -82 327.930664062 -82 309.930664062 -82.5 c 128,-1,37
 291.930664062 -83 291.930664062 -83 261.930664062 -83 c 0,38,39
 234.930664062 -83 234.930664062 -83 219.430664062 -83 c 128,-1,40
 203.930664062 -83 203.930664062 -83 194.930664062 -81.5 c 128,-1,41
 185.930664062 -80 185.930664062 -80 181.930664062 -77.5 c 128,-1,42
 177.930664062 -75 177.930664062 -75 174.930664062 -70 c 0,0,1
211.930664062 616 m 256,43,44
 213.930664062 624 213.930664062 624 222.930664062 630 c 128,-1,45
 231.930664062 636 231.930664062 636 237.930664062 636 c 0,46,47
 246.930664062 636 246.930664062 636 246.930664062 643 c 0,48,49
 246.930664062 644 246.930664062 644 245.430664062 644 c 128,-1,50
 243.930664062 644 243.930664062 644 237.930664062 644 c 0,51,52
 222.930664062 644 222.930664062 644 208.930664062 634 c 128,-1,53
 194.930664062 624 194.930664062 624 194.930664062 610 c 0,54,55
 194.930664062 598 194.930664062 598 198.930664062 598 c 256,56,57
 202.930664062 598 202.930664062 598 206.430664062 603 c 128,-1,58
 209.930664062 608 209.930664062 608 211.930664062 616 c 256,43,44
EndSplineSet
EndChar

StartChar: backslash
Encoding: 92 92 62
Width: 540
Flags: W
LayerCount: 2
Fore
SplineSet
156.5 666 m 0,0,1
 163.5 666 163.5 666 181.5 630.5 c 128,-1,2
 199.5 595 199.5 595 223 541 c 128,-1,3
 246.5 487 246.5 487 272.5 422.5 c 128,-1,4
 298.5 358 298.5 358 321.5 299.5 c 128,-1,5
 344.5 241 344.5 241 361 197.5 c 128,-1,6
 377.5 154 377.5 154 383.5 142 c 0,7,8
 389.5 129 389.5 129 401 101.5 c 128,-1,9
 412.5 74 412.5 74 424 44.5 c 128,-1,10
 435.5 15 435.5 15 444 -10.5 c 128,-1,11
 452.5 -36 452.5 -36 452.5 -44 c 0,12,13
 452.5 -51 452.5 -51 447.5 -57 c 128,-1,14
 442.5 -63 442.5 -63 435 -67.5 c 128,-1,15
 427.5 -72 427.5 -72 419 -74.5 c 128,-1,16
 410.5 -77 410.5 -77 403.5 -77 c 0,17,18
 389.5 -77 389.5 -77 378 -67.5 c 128,-1,19
 366.5 -58 366.5 -58 359.5 -47 c 0,20,21
 353.5 -37 353.5 -37 338.5 -3 c 128,-1,22
 323.5 31 323.5 31 303.5 79.5 c 128,-1,23
 283.5 128 283.5 128 259.5 187 c 128,-1,24
 235.5 246 235.5 246 211.5 306 c 128,-1,25
 187.5 366 187.5 366 165 423 c 128,-1,26
 142.5 480 142.5 480 125.5 525 c 128,-1,27
 108.5 570 108.5 570 98 598.5 c 128,-1,28
 87.5 627 87.5 627 87.5 630 c 0,29,30
 87.5 639 87.5 639 96.5 646 c 128,-1,31
 105.5 653 105.5 653 117.5 657.5 c 128,-1,32
 129.5 662 129.5 662 141 664 c 128,-1,33
 152.5 666 152.5 666 156.5 666 c 0,0,1
131.5 626 m 0,34,35
 129.5 631 129.5 631 122 629 c 128,-1,36
 114.5 627 114.5 627 114.5 620 c 0,37,38
 114.5 614 114.5 614 119.5 599.5 c 128,-1,39
 124.5 585 124.5 585 131 569.5 c 128,-1,40
 137.5 554 137.5 554 144 540.5 c 128,-1,41
 150.5 527 150.5 527 152.5 523 c 0,42,43
 155.5 518 155.5 518 160.5 518 c 128,-1,44
 165.5 518 165.5 518 167.5 519 c 0,45,46
 172.5 520 172.5 520 169 532.5 c 128,-1,47
 165.5 545 165.5 545 158.5 561.5 c 128,-1,48
 151.5 578 151.5 578 143.5 596 c 128,-1,49
 135.5 614 135.5 614 131.5 626 c 0,34,35
EndSplineSet
EndChar

StartChar: bracketright
Encoding: 93 93 63
Width: 540
Flags: W
LayerCount: 2
Fore
SplineSet
199.75 -80 m 0,0,1
 184.75 -80 184.75 -80 174.25 -71.5 c 128,-1,2
 163.75 -63 163.75 -63 163.75 -55 c 0,3,4
 163.75 -33 163.75 -33 177.25 -25 c 128,-1,5
 190.75 -17 190.75 -17 210.75 -17 c 0,6,7
 234.75 -17 234.75 -17 248.25 -15 c 128,-1,8
 261.75 -13 261.75 -13 268.25 -8.5 c 128,-1,9
 274.75 -4 274.75 -4 276.25 3.5 c 128,-1,10
 277.75 11 277.75 11 277.75 21 c 2,11,-1
 277.75 551 l 2,12,13
 277.75 580 277.75 580 265.75 590 c 128,-1,14
 253.75 600 253.75 600 242.75 600 c 256,15,16
 231.75 600 231.75 600 219.75 598 c 128,-1,17
 207.75 596 207.75 596 196.75 596 c 0,18,19
 182.75 596 182.75 596 173.25 603 c 128,-1,20
 163.75 610 163.75 610 163.75 633 c 0,21,22
 163.75 645 163.75 645 180.25 653.5 c 128,-1,23
 196.75 662 196.75 662 225.75 662 c 0,24,25
 250.75 662 250.75 662 274.75 662 c 128,-1,26
 298.75 662 298.75 662 318.25 660.5 c 128,-1,27
 337.75 659 337.75 659 350.75 656 c 128,-1,28
 363.75 653 363.75 653 366.75 647 c 0,29,30
 369.75 642 369.75 642 370.25 625.5 c 128,-1,31
 370.75 609 370.75 609 370.75 570.5 c 128,-1,32
 370.75 532 370.75 532 371.25 466 c 128,-1,33
 371.75 400 371.75 400 372.75 295 c 0,34,35
 374.75 193 374.75 193 375.75 127.5 c 128,-1,36
 376.75 62 376.75 62 375.75 21 c 0,37,38
 375.75 -7 375.75 -7 371.75 -25 c 128,-1,39
 367.75 -43 367.75 -43 361.75 -54 c 128,-1,40
 355.75 -65 355.75 -65 347.25 -70 c 128,-1,41
 338.75 -75 338.75 -75 328.75 -76 c 0,42,43
 310.75 -78 310.75 -78 289.25 -79 c 128,-1,44
 267.75 -80 267.75 -80 248.75 -80 c 128,-1,45
 229.75 -80 229.75 -80 215.75 -80 c 128,-1,46
 201.75 -80 201.75 -80 199.75 -80 c 0,0,1
194.75 644 m 256,47,48
 190.75 649 190.75 649 183.75 645 c 128,-1,49
 176.75 641 176.75 641 176.75 633 c 0,50,51
 176.75 623 176.75 623 180.75 623 c 256,52,53
 184.75 623 184.75 623 184.75 630 c 0,54,55
 185.75 634 185.75 634 192.25 636.5 c 128,-1,56
 198.75 639 198.75 639 194.75 644 c 256,47,48
EndSplineSet
EndChar

StartChar: asciicircum
Encoding: 94 94 64
Width: 540
Flags: W
LayerCount: 2
Fore
SplineSet
22 267 m 1,0,-1
 234 719 l 1,1,-1
 284 719 l 1,2,-1
 518 267 l 1,3,-1
 440 267 l 1,4,-1
 260 626 l 1,5,-1
 100 267 l 1,6,-1
 22 267 l 1,0,-1
EndSplineSet
EndChar

StartChar: underscore
Encoding: 95 95 65
Width: 540
Flags: W
LayerCount: 2
Fore
SplineSet
494 -154 m 1,0,-1
 46 -154 l 1,1,-1
 46 -90 l 1,2,-1
 494 -90 l 1,3,-1
 494 -154 l 1,0,-1
EndSplineSet
EndChar

StartChar: grave
Encoding: 96 96 66
Width: 540
Flags: W
LayerCount: 2
Fore
SplineSet
274.5 766 m 1,0,1
 285.5 744 285.5 744 302 716.5 c 128,-1,2
 318.5 689 318.5 689 337 663 c 128,-1,3
 355.5 637 355.5 637 370.5 618 c 1,4,-1
 370.5 606 l 1,5,-1
 311.5 606 l 1,6,7
 294.5 620 294.5 620 273.5 639.5 c 128,-1,8
 252.5 659 252.5 659 232 680.5 c 128,-1,9
 211.5 702 211.5 702 195 722 c 128,-1,10
 178.5 742 178.5 742 169.5 756 c 1,11,-1
 169.5 766 l 1,12,-1
 274.5 766 l 1,0,1
EndSplineSet
EndChar

StartChar: a
Encoding: 97 97 67
Width: 540
GlyphClass: 2
Flags: W
LayerCount: 2
Fore
SplineSet
102.26953125 77 m 4,0,1
 91.208984375 93 91.208984375 93 82.9150390625 108.5 c 132,-1,2
 74.62109375 124 74.62109375 124 72.77734375 139 c 4,3,4
 70.0126953125 153 70.0126953125 153 64.4833984375 152 c 4,5,6
 57.1103515625 152 57.1103515625 152 59.875 134 c 4,7,8
 60.796875 125 60.796875 125 64.9443359375 112 c 132,-1,9
 69.0908203125 99 69.0908203125 99 74.62109375 88 c 132,-1,10
 80.150390625 77 80.150390625 77 87.5234375 69.5 c 132,-1,11
 94.8955078125 62 94.8955078125 62 103.190429688 63 c 4,12,13
 110.563476562 65 110.563476562 65 102.26953125 77 c 4,0,1
205.02734375 -1 m 4,14,15
 148.348632812 -1 148.348632812 -1 105.494140625 30.5 c 4,16,17
 61.71875 62 61.71875 62 37.7568359375 123.5 c 132,-1,18
 13.794921875 185 13.794921875 185 13.333984375 274 c 4,19,20
 13.794921875 368 13.794921875 368 43.7470703125 433.5 c 4,21,22
 74.62109375 499 74.62109375 499 124.387695312 534 c 132,-1,23
 174.153320312 569 174.153320312 569 232.67578125 569 c 4,24,25
 264.470703125 569 264.470703125 569 293.961914062 555 c 132,-1,26
 323.452148438 541 323.452148438 541 348.3359375 509.5 c 132,-1,27
 373.21875 478 373.21875 478 386.583007812 426 c 5,28,-1
 389.34765625 426 l 5,29,-1
 410.543945312 509 l 5,30,-1
 493.48828125 509 l 5,31,32
 483.810546875 456 483.810546875 456 472.751953125 420 c 132,-1,33
 461.692382812 384 461.692382812 384 452.4765625 326.5 c 132,-1,34
 443.26171875 269 443.26171875 269 436.809570312 218.5 c 4,35,36
 431.280273438 178 431.280273438 178 430.818359375 131 c 4,37,38
 430.358398438 104 430.358398438 104 445.104492188 89.5 c 132,-1,39
 459.849609375 75 459.849609375 75 480.5859375 75 c 4,40,41
 489.340820312 75 489.340820312 75 498.095703125 77 c 4,42,43
 507.772460938 79 507.772460938 79 514.684570312 83 c 5,44,-1
 526.666015625 13 l 5,45,46
 516.989257812 8 516.989257812 8 500.861328125 3.5 c 4,47,48
 485.654296875 -1 485.654296875 -1 463.075195312 -1 c 4,49,50
 419.298828125 -1 419.298828125 -1 391.651367188 25.5 c 132,-1,51
 364.002929688 52 364.002929688 52 364.46484375 109 c 5,52,-1
 360.77734375 109 l 5,53,54
 303.176757812 -1 303.176757812 -1 205.02734375 -1 c 4,14,15
222.537109375 76 m 4,55,56
 255.71484375 76 255.71484375 76 285.66796875 98.5 c 132,-1,57
 315.619140625 121 315.619140625 121 335.89453125 159.5 c 132,-1,58
 356.168945312 198 356.168945312 198 358.93359375 244 c 6,59,-1
 367.229492188 347 l 5,60,61
 356.168945312 391 356.168945312 391 341.884765625 419.5 c 132,-1,62
 327.599609375 448 327.599609375 448 311.010742188 464 c 132,-1,63
 294.422851562 480 294.422851562 480 276.451171875 486 c 132,-1,64
 258.48046875 492 258.48046875 492 240.969726562 492 c 4,65,66
 205.02734375 492 205.02734375 492 172.770507812 467.5 c 132,-1,67
 140.515625 443 140.515625 443 120.240234375 395 c 132,-1,68
 99.96484375 347 99.96484375 347 99.96484375 275 c 4,69,70
 99.96484375 180 99.96484375 180 132.681640625 128 c 132,-1,71
 165.3984375 76 165.3984375 76 222.537109375 76 c 4,55,56
EndSplineSet
EndChar

StartChar: b
Encoding: 98 98 68
Width: 540
GlyphClass: 2
Flags: W
LayerCount: 2
Fore
SplineSet
286.383789062 -3.921875 m 0,0,1
 226.985351562 -4 226.985351562 -4 187.45703125 16.8720703125 c 0,2,3
 146.985351562 37 146.985351562 37 124.322265625 65.09765625 c 1,4,-1
 118.357421875 65.09765625 l 1,5,-1
 110.403320312 4.927734375 l 1,6,-1
 38.8173828125 4.927734375 l 1,7,-1
 38.8173828125 676.072265625 l 1,8,-1
 125.31640625 676.072265625 l 1,9,-1
 125.31640625 514.606445312 l 2,10,11
 124.985351562 490 124.985351562 490 124.819335938 465.939453125 c 0,12,13
 123.985351562 442 123.985351562 442 121.33984375 417.272460938 c 1,14,-1
 125.31640625 417.272460938 l 1,15,16
 145.985351562 446 145.985351562 446 185.965820312 466.825195312 c 0,17,18
 225.985351562 488 225.985351562 488 286.383789062 488.061523438 c 0,19,20
 333.985351562 488 333.985351562 488 373.876953125 472.576171875 c 0,21,22
 412.985351562 457 412.985351562 457 441.983398438 426.120117188 c 0,23,24
 467.985351562 398 467.985351562 398 485.729492188 349.138671875 c 0,25,26
 500.985351562 307 500.985351562 307 501.140625 242.955078125 c 0,27,28
 501.985351562 182 501.985351562 182 485.729492188 135.885742188 c 0,29,30
 469.985351562 90 469.985351562 90 441.487304688 58.4609375 c 0,31,32
 411.985351562 27 411.985351562 27 373.379882812 11.5625 c 0,33,34
 333.985351562 -4 333.985351562 -4 286.383789062 -3.921875 c 0,0,1
269.482421875 60.671875 m 0,35,36
 342.0625 60.671875 342.0625 60.671875 375.866210938 107.5703125 c 128,-1,37
 409.670898438 154.46875 409.670898438 154.46875 409.670898438 242.955078125 c 0,38,39
 409.670898438 329.670898438 409.670898438 329.670898438 375.866210938 376.568359375 c 128,-1,40
 342.0625 423.466796875 342.0625 423.466796875 268.487304688 423.466796875 c 0,41,42
 199.884765625 423.466796875 199.884765625 423.466796875 162.600585938 377.010742188 c 128,-1,43
 125.31640625 330.556640625 125.31640625 330.556640625 125.31640625 244.724609375 c 0,44,45
 125.31640625 155.353515625 125.31640625 155.353515625 160.612304688 108.013671875 c 128,-1,46
 195.908203125 60.671875 195.908203125 60.671875 269.482421875 60.671875 c 0,35,36
EndSplineSet
EndChar

StartChar: c
Encoding: 99 99 69
Width: 540
GlyphClass: 2
Flags: W
LayerCount: 2
Fore
SplineSet
379 17 m 0,0,1
 261 17 261 17 196 84 c 128,-1,2
 131 151 131 151 131 272 c 0,3,4
 131 352 131 352 160 407.5 c 128,-1,5
 189 463 189 463 243 492 c 1,6,-1
 15 492 l 1,7,-1
 15 564 l 1,8,-1
 525 564 l 1,9,-1
 525 492 l 1,10,-1
 423 492 l 2,11,12
 329 492 329 492 275.5 438.5 c 128,-1,13
 222 385 222 385 222 279 c 0,14,15
 222 192 222 192 265 141.5 c 128,-1,16
 308 91 308 91 388 91 c 0,17,18
 425 91 425 91 459 100.5 c 128,-1,19
 493 110 493 110 525 126 c 1,20,-1
 525 48 l 1,21,22
 496 32 496 32 461 24.5 c 128,-1,23
 426 17 426 17 379 17 c 0,0,1
EndSplineSet
EndChar

StartChar: d
Encoding: 100 100 70
Width: 540
GlyphClass: 2
Flags: W
LayerCount: 2
Fore
SplineSet
255.8359375 2.5400390625 m 0,0,1
 204.74609375 3 204.74609375 3 161.9140625 15.7314453125 c 0,2,3
 119.74609375 29 119.74609375 29 88.98046875 56.083984375 c 0,4,5
 58.74609375 83 58.74609375 83 42.283203125 124.372070312 c 0,6,7
 25.74609375 166 25.74609375 166 26.0166015625 220.595703125 c 0,8,9
 25.74609375 290 25.74609375 290 52.7763671875 337.383789062 c 0,10,11
 79.74609375 385 79.74609375 385 133.055664062 409.551757812 c 0,12,13
 186.74609375 434 186.74609375 434 266.329101562 433.99609375 c 0,14,15
 304.74609375 434 304.74609375 434 335.065429688 426.235351562 c 0,16,17
 364.74609375 418 364.74609375 418 386.486328125 404.895507812 c 0,18,19
 407.74609375 391 407.74609375 391 420.590820312 373.46875 c 1,20,-1
 426.887695312 373.46875 l 1,21,22
 425.74609375 381 425.74609375 381 424.263671875 391.704101562 c 0,23,24
 422.74609375 402 422.74609375 402 421.640625 413.431640625 c 0,25,26
 420.74609375 432 420.74609375 432 420.590820312 434.771484375 c 2,27,-1
 420.590820312 616.059570312 l 1,28,-1
 513.98828125 616.059570312 l 1,29,-1
 513.98828125 10.2998046875 l 1,30,-1
 436.33203125 10.2998046875 l 1,31,-1
 425.837890625 66.171875 l 1,32,-1
 421.640625 66.171875 l 1,33,34
 405.74609375 48 405.74609375 48 383.337890625 33.19140625 c 0,35,36
 360.74609375 19 360.74609375 19 329.818359375 10.6884765625 c 0,37,38
 298.74609375 3 298.74609375 3 255.8359375 2.5400390625 c 0,0,1
273.67578125 59.1884765625 m 0,39,40
 348.182617188 59.1884765625 348.182617188 59.1884765625 384.38671875 97.599609375 c 128,-1,41
 420.590820312 136.01171875 420.590820312 136.01171875 420.590820312 201.971679688 c 2,42,-1
 420.590820312 217.491210938 l 2,43,44
 420.590820312 263.275390625 420.590820312 263.275390625 406.94921875 299.360351562 c 128,-1,45
 393.306640625 335.444335938 393.306640625 335.444335938 361.82421875 356.395507812 c 128,-1,46
 330.342773438 377.348632812 330.342773438 377.348632812 276.823242188 377.348632812 c 0,47,48
 203.365234375 377.348632812 203.365234375 377.348632812 162.963867188 336.99609375 c 128,-1,49
 122.561523438 296.64453125 122.561523438 296.64453125 122.561523438 213.611328125 c 0,50,51
 122.561523438 136.788085938 122.561523438 136.788085938 159.815429688 97.98828125 c 128,-1,52
 197.068359375 59.1884765625 197.068359375 59.1884765625 273.67578125 59.1884765625 c 0,39,40
EndSplineSet
EndChar

StartChar: e
Encoding: 101 101 71
Width: 540
GlyphClass: 2
Flags: W
LayerCount: 2
Fore
SplineSet
307 -10 m 0,0,1
 221 -10 221 -10 159 22 c 128,-1,2
 97 54 97 54 63.5 115.5 c 128,-1,3
 30 177 30 177 30 266 c 0,4,5
 30 354 30 354 62 416.5 c 128,-1,6
 94 479 94 479 151 512.5 c 128,-1,7
 208 546 208 546 284 546 c 0,8,9
 354 546 354 546 404.5 515 c 128,-1,10
 455 484 455 484 482.5 427.5 c 128,-1,11
 510 371 510 371 510 292 c 2,12,-1
 510 251 l 1,13,-1
 121 251 l 1,14,15
 123 181 123 181 147.5 140 c 128,-1,16
 172 99 172 99 214.5 81.5 c 128,-1,17
 257 64 257 64 313 64 c 0,18,19
 357 64 357 64 400 76 c 128,-1,20
 443 88 443 88 486 108 c 1,21,-1
 486 28 l 1,22,23
 440 8 440 8 394 -1 c 128,-1,24
 348 -10 348 -10 307 -10 c 0,0,1
420 323 m 1,25,26
 418 370 418 370 402 403.5 c 128,-1,27
 386 437 386 437 356.5 455 c 128,-1,28
 327 473 327 473 284 473 c 0,29,30
 217 473 217 473 175.5 432.5 c 128,-1,31
 134 392 134 392 123 323 c 1,32,-1
 420 323 l 1,25,26
EndSplineSet
EndChar

StartChar: f
Encoding: 102 102 72
Width: 540
GlyphClass: 2
Flags: W
LayerCount: 2
Fore
SplineSet
86 -81 m 0,0,1
 86.517578125 -67 86.517578125 -67 91.5 -57.5 c 128,-1,2
 96.517578125 -48 96.517578125 -48 105 -42 c 0,3,4
 112.517578125 -36 112.517578125 -36 122.5 -33.5 c 128,-1,5
 132.517578125 -31 132.517578125 -31 138 -29 c 0,6,7
 164.517578125 -21 164.517578125 -21 172.5 -6 c 0,8,9
 186.485351562 18.943359375 186.485351562 18.943359375 189 51 c 2,10,-1
 209 306 l 1,11,-1
 44 306 l 2,12,13
 33.517578125 306 33.517578125 306 27 319 c 0,14,15
 20.517578125 334 20.517578125 334 21 346 c 256,16,17
 21.517578125 360 21.517578125 360 27 370.5 c 0,18,19
 33.517578125 381 33.517578125 381 44 381 c 2,20,-1
 214 381 l 1,21,-1
 217 478 l 2,22,23
 219.517578125 553 219.517578125 553 259 596 c 0,24,25
 292.517578125 633 292.517578125 633 391 633 c 0,26,27
 419.517578125 633 419.517578125 633 434.5 621 c 0,28,29
 448.517578125 610 448.517578125 610 449 590 c 0,30,31
 449.517578125 576 449.517578125 576 444.5 567.5 c 128,-1,32
 439.517578125 559 439.517578125 559 433 554.5 c 0,33,34
 425.517578125 550 425.517578125 550 419 549.5 c 0,35,36
 411.517578125 549 411.517578125 549 406 550 c 0,37,38
 389.517578125 553 389.517578125 553 378 551.5 c 0,39,40
 331.517578125 549 331.517578125 549 328.5 541.5 c 0,41,42
 320.517578125 521 320.517578125 521 316.5 517 c 0,43,44
 310.147460938 509.56640625 310.147460938 509.56640625 309 474 c 2,45,-1
 306 381 l 1,46,-1
 490 381 l 2,47,48
 504.517578125 381 504.517578125 381 512 371 c 0,49,50
 519.517578125 359 519.517578125 359 519 345 c 0,51,52
 518.517578125 330 518.517578125 330 512.5 319 c 128,-1,53
 506.517578125 308 506.517578125 308 491 308 c 0,54,55
 482.517578125 308 482.517578125 308 470.5 307 c 0,56,57
 457.517578125 306 457.517578125 306 425 306 c 2,58,-1
 302 306 l 1,59,-1
 282 44 l 2,60,61
 276.517578125 -31 276.517578125 -31 242 -70 c 0,62,63
 206.517578125 -110 206.517578125 -110 153 -118 c 0,64,65
 122.517578125 -123 122.517578125 -123 104.5 -113.5 c 0,66,67
 85.517578125 -103 85.517578125 -103 86 -81 c 0,0,1
252 526 m 0,68,69
 252 537 252 537 260 553 c 128,-1,70
 268 569 268 569 276 577 c 256,71,72
 284 585 284 585 285 589.5 c 128,-1,73
 286 594 286 594 282 594 c 0,74,75
 274 594 274 594 266 585 c 128,-1,76
 258 576 258 576 252 564 c 128,-1,77
 246 552 246 552 242 540 c 128,-1,78
 238 528 238 528 238 521 c 0,79,80
 238 511 238 511 244 511 c 0,81,82
 252 511 252 511 252 526 c 0,68,69
108 -84 m 256,83,84
 110 -84 110 -84 111.5 -80 c 128,-1,85
 113 -76 113 -76 114.5 -71 c 128,-1,86
 116 -66 116 -66 119.5 -61.5 c 128,-1,87
 123 -57 123 -57 130 -55 c 0,88,89
 135 -53 135 -53 141 -52 c 128,-1,90
 147 -51 147 -51 147 -43 c 0,91,92
 147 -40 147 -40 141 -40 c 0,93,94
 136 -40 136 -40 129 -43.5 c 128,-1,95
 122 -47 122 -47 115 -52.5 c 128,-1,96
 108 -58 108 -58 103.5 -64.5 c 128,-1,97
 99 -71 99 -71 99 -77 c 0,98,99
 99 -80 99 -80 102.5 -82 c 128,-1,100
 106 -84 106 -84 108 -84 c 256,83,84
EndSplineSet
EndChar

StartChar: g
Encoding: 103 103 73
Width: 540
GlyphClass: 2
Flags: W
LayerCount: 2
Fore
SplineSet
269 1 m 0,0,1
 206 1 206 1 165.5 34 c 128,-1,2
 125 67 125 67 102 117 c 128,-1,3
 79 167 79 167 70.5 225 c 128,-1,4
 62 283 62 283 62 334 c 0,5,6
 62 390 62 390 75.5 443.5 c 128,-1,7
 89 497 89 497 117.5 538.5 c 128,-1,8
 146 580 146 580 191.5 605.5 c 128,-1,9
 237 631 237 631 301 631 c 0,10,11
 328 631 328 631 357.5 625 c 128,-1,12
 387 619 387 619 411.5 602.5 c 128,-1,13
 436 586 436 586 452.5 558 c 128,-1,14
 469 530 469 530 469 486 c 0,15,16
 469 470 469 470 462.5 460.5 c 128,-1,17
 456 451 456 451 446.5 445.5 c 128,-1,18
 437 440 437 440 427 438.5 c 128,-1,19
 417 437 417 437 411 437 c 0,20,21
 397 437 397 437 384.5 447 c 128,-1,22
 372 457 372 457 372 486 c 0,23,24
 372 509 372 509 364 521 c 128,-1,25
 356 533 356 533 345 538.5 c 128,-1,26
 334 544 334 544 323.5 545 c 128,-1,27
 313 546 313 546 307 546 c 0,28,29
 281 546 281 546 258 530.5 c 128,-1,30
 235 515 235 515 217.5 486 c 128,-1,31
 200 457 200 457 190 415 c 128,-1,32
 180 373 180 373 180 320 c 0,33,34
 180 291 180 291 183.5 251 c 128,-1,35
 187 211 187 211 199 175 c 128,-1,36
 211 139 211 139 233 113.5 c 128,-1,37
 255 88 255 88 291 88 c 0,38,39
 314 88 314 88 331 103 c 128,-1,40
 348 118 348 118 359.5 140 c 128,-1,41
 371 162 371 162 377 186.5 c 128,-1,42
 383 211 383 211 382 230 c 0,43,44
 381 246 381 246 362.5 247.5 c 128,-1,45
 344 249 344 249 321 249 c 2,46,-1
 259 249 l 2,47,48
 253 249 253 249 248 255 c 128,-1,49
 243 261 243 261 240 269.5 c 128,-1,50
 237 278 237 278 235 287 c 128,-1,51
 233 296 233 296 233 302 c 0,52,53
 233 318 233 318 243.5 330.5 c 128,-1,54
 254 343 254 343 277 343 c 2,55,-1
 402 342 l 2,56,57
 415 342 415 342 428.5 336.5 c 128,-1,58
 442 331 442 331 452.5 320.5 c 128,-1,59
 463 310 463 310 470 293.5 c 128,-1,60
 477 277 477 277 477 254 c 0,61,62
 477 219 477 219 477.5 189 c 128,-1,63
 478 159 478 159 478 115 c 0,64,65
 478 81 478 81 475.5 60 c 128,-1,66
 473 39 473 39 467 27 c 128,-1,67
 461 15 461 15 452.5 10.5 c 128,-1,68
 444 6 444 6 432 6 c 0,69,70
 415 6 415 6 407 18.5 c 128,-1,71
 399 31 399 31 395.5 46 c 128,-1,72
 392 61 392 61 391 73.5 c 128,-1,73
 390 86 390 86 387 86 c 256,74,75
 384 86 384 86 378 72.5 c 128,-1,76
 372 59 372 59 359 43.5 c 128,-1,77
 346 28 346 28 325 14.5 c 128,-1,78
 304 1 304 1 269 1 c 0,0,1
174 82 m 0,79,80
 174 87 174 87 158 110 c 0,81,82
 151 121 151 121 144 135.5 c 128,-1,83
 137 150 137 150 132 164 c 128,-1,84
 127 178 127 178 124 190 c 128,-1,85
 121 202 121 202 122 206 c 0,86,87
 123 211 123 211 120 213.5 c 128,-1,88
 117 216 117 216 116 216 c 0,89,90
 108 216 108 216 106 205 c 256,91,92
 104 194 104 194 109.5 173 c 128,-1,93
 115 152 115 152 124.5 131 c 128,-1,94
 134 110 134 110 145.5 94 c 128,-1,95
 157 78 157 78 166 77 c 0,96,97
 173 75 173 75 174 82 c 0,79,80
437 31 m 0,98,99
 437 39 437 39 429 44.5 c 128,-1,100
 421 50 421 50 420 62 c 0,101,102
 420 65 420 65 419.5 73 c 128,-1,103
 419 81 419 81 414 81 c 256,104,105
 409 81 409 81 408 74.5 c 128,-1,106
 407 68 407 68 407 63 c 256,107,108
 407 58 407 58 408.5 50.5 c 128,-1,109
 410 43 410 43 413 36.5 c 128,-1,110
 416 30 416 30 420 25 c 128,-1,111
 424 20 424 20 429 20 c 256,112,113
 434 20 434 20 435.5 24 c 128,-1,114
 437 28 437 28 437 31 c 0,98,99
194 65 m 0,115,116
 195 68 195 68 192.5 70.5 c 128,-1,117
 190 73 190 73 188 73 c 0,118,119
 184 74 184 74 182.5 71 c 128,-1,120
 181 68 181 68 180 66 c 0,121,122
 179 61 179 61 181.5 59.5 c 128,-1,123
 184 58 184 58 186 58 c 0,124,125
 192 58 192 58 194 65 c 0,115,116
EndSplineSet
EndChar

StartChar: h
Encoding: 104 104 74
Width: 540
GlyphClass: 2
Flags: W
LayerCount: 2
Fore
SplineSet
47.5 0 m 1,0,-1
 47.5 616 l 5,1,-1
 137.5 616 l 5,2,-1
 137.5 400 l 6,3,4
 138 381 138 381 136 352 c 132,-1,5
 134 323 134 323 133.5 306 c 5,6,-1
 138.5 306 l 5,7,8
 156 339 156 339 181 360 c 132,-1,9
 206 381 206 381 238.5 391.5 c 4,10,11
 270 402 270 402 306.5 402 c 4,12,13
 390 402 390 402 441 355.5 c 4,14,15
 492.5 308.544117647 492.5 308.544117647 492.5 206 c 6,16,-1
 492.5 0 l 1,17,-1
 402.5 0 l 1,18,-1
 402.5 188 l 6,19,20
 402 261 402 261 371.5 295 c 4,21,22
 340 329 340 329 283.5 329 c 4,23,24
 240 329 240 329 206.5 306 c 4,25,26
 174 283 174 283 155.5 239.5 c 4,27,28
 137.5 194.757142857 137.5 194.757142857 137.5 134 c 6,29,-1
 137.5 0 l 1,30,-1
 47.5 0 l 1,0,-1
EndSplineSet
EndChar

StartChar: i
Encoding: 105 105 75
Width: 540
GlyphClass: 2
Flags: W
LayerCount: 2
Fore
SplineSet
200.5 576 m 4,0,1
 160.5 576 160.5 576 132 604 c 132,-1,2
 103.5 632 103.5 632 103.5 676 c 4,3,4
 103.5 700 103.5 700 112 721.5 c 132,-1,5
 120.5 743 120.5 743 135.5 758.5 c 132,-1,6
 150.5 774 150.5 774 171.5 783.5 c 132,-1,7
 192.5 793 192.5 793 217.5 793 c 4,8,9
 237.5 793 237.5 793 254.5 784.5 c 132,-1,10
 271.5 776 271.5 776 283.5 761 c 132,-1,11
 295.5 746 295.5 746 302 727 c 132,-1,12
 308.5 708 308.5 708 308.5 687 c 4,13,14
 308.5 660 308.5 660 300 639.5 c 132,-1,15
 291.5 619 291.5 619 276.5 605 c 132,-1,16
 261.5 591 261.5 591 242 583.5 c 132,-1,17
 222.5 576 222.5 576 200.5 576 c 4,0,1
163.5 749 m 4,18,19
 170.5 756 170.5 756 172 761 c 132,-1,20
 173.5 766 173.5 766 171.5 766 c 4,21,22
 163.5 766 163.5 766 154.5 758.5 c 132,-1,23
 145.5 751 145.5 751 138 740.5 c 132,-1,24
 130.5 730 130.5 730 125.5 718 c 132,-1,25
 120.5 706 120.5 706 120.5 696 c 4,26,27
 120.5 694 120.5 694 122 688 c 132,-1,28
 123.5 682 123.5 682 126.5 682 c 4,29,30
 130.5 682 130.5 682 136.5 704 c 4,31,32
 139.5 718 139.5 718 147.5 729.5 c 132,-1,33
 155.5 741 155.5 741 163.5 749 c 4,18,19
204.5 633 m 4,34,35
 216.5 633 216.5 633 233 647 c 132,-1,36
 249.5 661 249.5 661 249.5 687 c 4,37,38
 249.5 707 249.5 707 239 720.5 c 132,-1,39
 228.5 734 228.5 734 211.5 734 c 260,40,41
 194.5 734 194.5 734 180.5 720.5 c 132,-1,42
 166.5 707 166.5 707 166.5 683 c 260,43,44
 166.5 659 166.5 659 177.5 646 c 132,-1,45
 188.5 633 188.5 633 204.5 633 c 4,34,35
40 0 m 1,46,-1
 40 60 l 1,47,-1
 231 75 l 1,48,-1
 231 461 l 1,49,-1
 56 474 l 1,50,-1
 56 536 l 1,51,-1
 321 536 l 1,52,-1
 321 75 l 1,53,-1
 500 60 l 1,54,-1
 500 0 l 1,55,-1
 40 0 l 1,46,-1
EndSplineSet
EndChar

StartChar: j
Encoding: 106 106 76
Width: 540
GlyphClass: 2
Flags: W
LayerCount: 2
Fore
SplineSet
263 664.599609375 m 0,0,1
 236.400390625 664.599609375 236.400390625 664.599609375 220.299804688 680.849609375 c 0,2,3
 204.200195312 697.099609375 204.200195312 697.099609375 204.200195312 724.399414062 c 0,4,5
 204.200195312 749.099609375 204.200195312 749.099609375 218.200195312 770.549804688 c 0,6,7
 232.200195312 792 232.200195312 792 263 792 c 0,8,9
 295.200195312 792 295.200195312 792 312 771.849609375 c 0,10,11
 328.799804688 751.700195312 328.799804688 751.700195312 328.799804688 724.399414062 c 0,12,13
 328.799804688 694.5 328.799804688 694.5 309.900390625 679.549804688 c 0,14,15
 291 664.599609375 291 664.599609375 263 664.599609375 c 0,0,1
237.799804688 732.200195312 m 0,16,17
 239.200195312 746.5 239.200195312 746.5 244.799804688 758.200195312 c 0,18,19
 250.400390625 769.899414062 250.400390625 769.899414062 243.400390625 769.899414062 c 0,20,21
 233.600585938 769.899414062 233.600585938 769.899414062 227.299804688 751.049804688 c 0,22,23
 221 732.200195312 221 732.200195312 221 717.899414062 c 0,24,25
 221 704.899414062 221 704.899414062 228 704.899414062 c 0,26,27
 233.600585938 704.899414062 233.600585938 704.899414062 235 714.649414062 c 0,28,29
 236.400390625 724.399414062 236.400390625 724.399414062 237.799804688 732.200195312 c 0,16,17
EndSplineSet
Refer: 44 74 S 1 0 0 1 0 -44 2
EndChar

StartChar: k
Encoding: 107 107 77
Width: 540
GlyphClass: 2
Flags: W
LayerCount: 2
Fore
SplineSet
127 0 m 0,0,1
 106 0 106 0 96 11 c 128,-1,2
 86 22 86 22 82.5 38.5 c 128,-1,3
 79 55 79 55 79 73 c 128,-1,4
 79 91 79 91 79 105 c 2,5,-1
 79 204 l 1,6,-1
 78 402 l 1,7,-1
 78 501 l 2,8,9
 78 533 78 533 80 554 c 128,-1,10
 82 575 82 575 88 590 c 128,-1,11
 94 605 94 605 105.5 613 c 128,-1,12
 117 621 117 621 137 621 c 0,13,14
 160 621 160 621 177.5 602.5 c 128,-1,15
 195 584 195 584 195 554 c 0,16,17
 195 549 195 549 194.5 533 c 128,-1,18
 194 517 194 517 194 493.5 c 128,-1,19
 194 470 194 470 194 446.5 c 128,-1,20
 194 423 194 423 194 403.5 c 128,-1,21
 194 384 194 384 195.5 371 c 128,-1,22
 197 358 197 358 199 358 c 0,23,24
 203 358 203 358 215 377 c 128,-1,25
 227 396 227 396 243 425 c 128,-1,26
 259 454 259 454 278 487 c 128,-1,27
 297 520 297 520 316 549 c 128,-1,28
 335 578 335 578 351.5 597 c 128,-1,29
 368 616 368 616 379 616 c 0,30,31
 388 616 388 616 399 613 c 128,-1,32
 410 610 410 610 419 604 c 128,-1,33
 428 598 428 598 434 589 c 128,-1,34
 440 580 440 580 440 567 c 0,35,36
 440 559 440 559 429 538.5 c 128,-1,37
 418 518 418 518 402 492 c 128,-1,38
 386 466 386 466 366.5 437.5 c 128,-1,39
 347 409 347 409 331 385 c 128,-1,40
 315 361 315 361 304 344 c 128,-1,41
 293 327 293 327 293 324 c 0,42,43
 293 320 293 320 305.5 300.5 c 128,-1,44
 318 281 318 281 337 253.5 c 128,-1,45
 356 226 356 226 377.5 194 c 128,-1,46
 399 162 399 162 418 133 c 128,-1,47
 437 104 437 104 449.5 81 c 128,-1,48
 462 58 462 58 462 48 c 0,49,50
 462 35 462 35 453.5 26 c 128,-1,51
 445 17 445 17 433 11 c 128,-1,52
 421 5 421 5 409 2 c 128,-1,53
 397 -1 397 -1 389 -1 c 0,54,55
 375 -1 375 -1 360 18 c 0,56,57
 341 41 341 41 333 57 c 0,58,59
 329 65 329 65 315 87.5 c 128,-1,60
 301 110 301 110 285 136 c 0,61,62
 259 179 259 179 253 186 c 0,63,64
 236 210 236 210 228 223 c 0,65,66
 225 228 225 228 220 228 c 0,67,68
 216 229 216 229 211 223 c 2,69,-1
 201 210 l 2,70,71
 193 200 193 200 193 178 c 2,72,-1
 193 155 l 1,73,-1
 194 125 l 1,74,-1
 194 102 l 2,75,76
 194 51 194 51 178 25.5 c 128,-1,77
 162 0 162 0 127 0 c 0,0,1
97 566 m 0,78,79
 102 565 102 565 107 568.5 c 128,-1,80
 112 572 112 572 116.5 577.5 c 128,-1,81
 121 583 121 583 124.5 589 c 128,-1,82
 128 595 128 595 129 599 c 0,83,84
 130 602 130 602 127 604.5 c 128,-1,85
 124 607 124 607 121 607 c 0,86,87
 117 607 117 607 112.5 602.5 c 128,-1,88
 108 598 108 598 103.5 591.5 c 128,-1,89
 99 585 99 585 96.5 579 c 128,-1,90
 94 573 94 573 94 570 c 0,91,92
 94 566 94 566 97 566 c 0,78,79
353 558 m 0,93,94
 356 558 356 558 361.5 562.5 c 128,-1,95
 367 567 367 567 372 573.5 c 128,-1,96
 377 580 377 580 380.5 586.5 c 128,-1,97
 384 593 384 593 383 597 c 0,98,99
 383 601 383 601 379 601 c 0,100,101
 376 602 376 602 370 597.5 c 128,-1,102
 364 593 364 593 358.5 586.5 c 128,-1,103
 353 580 353 580 349 573.5 c 128,-1,104
 345 567 345 567 346 564 c 0,105,106
 348 559 348 559 353 558 c 0,93,94
112 81 m 0,107,108
 112 85 112 85 112 97.5 c 128,-1,109
 112 110 112 110 111 123.5 c 128,-1,110
 110 137 110 137 108 147.5 c 128,-1,111
 106 158 106 158 102 158 c 0,112,113
 99 158 99 158 96.5 153 c 128,-1,114
 94 148 94 148 93 141 c 128,-1,115
 92 134 92 134 91.5 127.5 c 128,-1,116
 91 121 91 121 91 119 c 0,117,118
 91 115 91 115 91 104.5 c 128,-1,119
 91 94 91 94 92.5 83 c 128,-1,120
 94 72 94 72 97 63 c 128,-1,121
 100 54 100 54 106 54 c 0,122,123
 108 54 108 54 109.5 58 c 128,-1,124
 111 62 111 62 111.5 66.5 c 128,-1,125
 112 71 112 71 112 75.5 c 128,-1,126
 112 80 112 80 112 81 c 0,107,108
392 21 m 0,127,128
 392 24 392 24 389 30.5 c 128,-1,129
 386 37 386 37 381.5 43 c 128,-1,130
 377 49 377 49 372 54 c 128,-1,131
 367 59 367 59 364 59 c 0,132,133
 362 59 362 59 361 55.5 c 128,-1,134
 360 52 360 52 360 50 c 0,135,136
 360 47 360 47 362.5 41 c 128,-1,137
 365 35 365 35 368.5 29 c 128,-1,138
 372 23 372 23 377 19 c 128,-1,139
 382 15 382 15 386 15 c 0,140,141
 392 15 392 15 392 21 c 0,127,128
121 31 m 0,142,143
 123 36 123 36 119 41 c 128,-1,144
 115 46 115 46 110 46 c 0,145,146
 104 46 104 46 100.5 41 c 128,-1,147
 97 36 97 36 99 31 c 0,148,149
 103 21 103 21 110 21 c 256,150,151
 117 21 117 21 121 31 c 0,142,143
EndSplineSet
EndChar

